<svg width="387" height="324" viewBox="0 0 387 324" fill="none" xmlns="http://www.w3.org/2000/svg">
<g opacity="0.7">
<circle cx="23.1665" cy="3.5" r="1.5" fill="#476CFF" fill-opacity="0.1"/>
<circle cx="40.1665" cy="3.5" r="1.5" fill="#476CFF" fill-opacity="0.1"/>
<circle cx="57.1665" cy="3.5" r="1.5" fill="#476CFF" fill-opacity="0.1"/>
<circle cx="74.1665" cy="3.5" r="1.5" fill="#476CFF" fill-opacity="0.1"/>
<circle cx="91.1665" cy="3.5" r="1.5" fill="#476CFF" fill-opacity="0.1"/>
<circle cx="108.167" cy="3.5" r="1.5" fill="#476CFF" fill-opacity="0.1"/>
<circle cx="125.167" cy="3.5" r="1.5" fill="#476CFF" fill-opacity="0.1"/>
<circle cx="142.167" cy="3.5" r="1.5" fill="#476CFF" fill-opacity="0.1"/>
<circle cx="159.167" cy="3.5" r="1.5" fill="#476CFF" fill-opacity="0.1"/>
<circle cx="176.167" cy="3.5" r="1.5" fill="#476CFF" fill-opacity="0.1"/>
<circle cx="193.167" cy="3.5" r="1.5" fill="#476CFF" fill-opacity="0.1"/>
<circle cx="210.167" cy="3.5" r="1.5" fill="#476CFF" fill-opacity="0.1"/>
<circle cx="227.167" cy="3.5" r="1.5" fill="#476CFF" fill-opacity="0.1"/>
<circle cx="244.167" cy="3.5" r="1.5" fill="#476CFF" fill-opacity="0.1"/>
<circle cx="261.167" cy="3.5" r="1.5" fill="#476CFF" fill-opacity="0.1"/>
<circle cx="278.167" cy="3.5" r="1.5" fill="#476CFF" fill-opacity="0.1"/>
<circle cx="295.167" cy="3.5" r="1.5" fill="#476CFF" fill-opacity="0.1"/>
<circle cx="312.167" cy="3.5" r="1.5" fill="#476CFF" fill-opacity="0.1"/>
<circle cx="329.167" cy="3.5" r="1.5" fill="#476CFF" fill-opacity="0.1"/>
<circle cx="346.167" cy="3.5" r="1.5" fill="#476CFF" fill-opacity="0.1"/>
<circle cx="363.167" cy="3.5" r="1.5" fill="#476CFF" fill-opacity="0.1"/>
<circle cx="23.1665" cy="21.5" r="1.5" fill="#476CFF" fill-opacity="0.1"/>
<circle cx="40.1665" cy="21.5" r="1.5" fill="#476CFF" fill-opacity="0.1"/>
<circle cx="57.1665" cy="21.5" r="1.5" fill="#476CFF" fill-opacity="0.1"/>
<circle cx="74.1665" cy="21.5" r="1.5" fill="#476CFF" fill-opacity="0.1"/>
<circle cx="91.1665" cy="21.5" r="1.5" fill="#476CFF" fill-opacity="0.1"/>
<circle cx="108.167" cy="21.5" r="1.5" fill="#476CFF" fill-opacity="0.1"/>
<circle cx="125.167" cy="21.5" r="1.5" fill="#476CFF" fill-opacity="0.1"/>
<circle cx="142.167" cy="21.5" r="1.5" fill="#476CFF" fill-opacity="0.1"/>
<circle cx="159.167" cy="21.5" r="1.5" fill="#476CFF" fill-opacity="0.1"/>
<circle cx="176.167" cy="21.5" r="1.5" fill="#476CFF" fill-opacity="0.1"/>
<circle cx="193.167" cy="21.5" r="1.5" fill="#476CFF" fill-opacity="0.1"/>
<circle cx="210.167" cy="21.5" r="1.5" fill="#476CFF" fill-opacity="0.1"/>
<circle cx="227.167" cy="21.5" r="1.5" fill="#476CFF" fill-opacity="0.1"/>
<circle cx="244.167" cy="21.5" r="1.5" fill="#476CFF" fill-opacity="0.1"/>
<circle cx="261.167" cy="21.5" r="1.5" fill="#476CFF" fill-opacity="0.1"/>
<circle cx="278.167" cy="21.5" r="1.5" fill="#476CFF" fill-opacity="0.1"/>
<circle cx="295.167" cy="21.5" r="1.5" fill="#476CFF" fill-opacity="0.1"/>
<circle cx="312.167" cy="21.5" r="1.5" fill="#476CFF" fill-opacity="0.1"/>
<circle cx="329.167" cy="21.5" r="1.5" fill="#476CFF" fill-opacity="0.1"/>
<circle cx="346.167" cy="21.5" r="1.5" fill="#476CFF" fill-opacity="0.1"/>
<circle cx="363.167" cy="21.5" r="1.5" fill="#476CFF" fill-opacity="0.1"/>
<circle cx="23.1665" cy="39.5" r="1.5" fill="#476CFF" fill-opacity="0.1"/>
<circle cx="40.1665" cy="39.5" r="1.5" fill="#476CFF" fill-opacity="0.1"/>
<circle cx="57.1665" cy="39.5" r="1.5" fill="#476CFF" fill-opacity="0.1"/>
<circle cx="74.1665" cy="39.5" r="1.5" fill="#476CFF" fill-opacity="0.1"/>
<circle cx="91.1665" cy="39.5" r="1.5" fill="#476CFF" fill-opacity="0.1"/>
<circle cx="108.167" cy="39.5" r="1.5" fill="#476CFF" fill-opacity="0.1"/>
<circle cx="125.167" cy="39.5" r="1.5" fill="#476CFF" fill-opacity="0.1"/>
<circle cx="142.167" cy="39.5" r="1.5" fill="#476CFF" fill-opacity="0.1"/>
<circle cx="159.167" cy="39.5" r="1.5" fill="#476CFF" fill-opacity="0.1"/>
<circle cx="176.167" cy="39.5" r="1.5" fill="#476CFF" fill-opacity="0.1"/>
<circle cx="193.167" cy="39.5" r="1.5" fill="#476CFF" fill-opacity="0.1"/>
<circle cx="210.167" cy="39.5" r="1.5" fill="#476CFF" fill-opacity="0.1"/>
<circle cx="227.167" cy="39.5" r="1.5" fill="#476CFF" fill-opacity="0.1"/>
<circle cx="244.167" cy="39.5" r="1.5" fill="#476CFF" fill-opacity="0.1"/>
<circle cx="261.167" cy="39.5" r="1.5" fill="#476CFF" fill-opacity="0.1"/>
<circle cx="278.167" cy="39.5" r="1.5" fill="#476CFF" fill-opacity="0.1"/>
<circle cx="295.167" cy="39.5" r="1.5" fill="#476CFF" fill-opacity="0.1"/>
<circle cx="312.167" cy="39.5" r="1.5" fill="#476CFF" fill-opacity="0.1"/>
<circle cx="329.167" cy="39.5" r="1.5" fill="#476CFF" fill-opacity="0.1"/>
<circle cx="346.167" cy="39.5" r="1.5" fill="#476CFF" fill-opacity="0.1"/>
<circle cx="363.167" cy="39.5" r="1.5" fill="#476CFF" fill-opacity="0.1"/>
<circle cx="23.1665" cy="57.5" r="1.5" fill="#476CFF" fill-opacity="0.1"/>
<circle cx="40.1665" cy="57.5" r="1.5" fill="#476CFF" fill-opacity="0.1"/>
<circle cx="57.1665" cy="57.5" r="1.5" fill="#476CFF" fill-opacity="0.1"/>
<circle cx="74.1665" cy="57.5" r="1.5" fill="#476CFF" fill-opacity="0.1"/>
<circle cx="91.1665" cy="57.5" r="1.5" fill="#476CFF" fill-opacity="0.1"/>
<circle cx="108.167" cy="57.5" r="1.5" fill="#476CFF" fill-opacity="0.1"/>
<circle cx="125.167" cy="57.5" r="1.5" fill="#476CFF" fill-opacity="0.1"/>
<circle cx="142.167" cy="57.5" r="1.5" fill="#476CFF" fill-opacity="0.1"/>
<circle cx="159.167" cy="57.5" r="1.5" fill="#476CFF" fill-opacity="0.1"/>
<circle cx="176.167" cy="57.5" r="1.5" fill="#476CFF" fill-opacity="0.1"/>
<circle cx="193.167" cy="57.5" r="1.5" fill="#476CFF" fill-opacity="0.1"/>
<circle cx="210.167" cy="57.5" r="1.5" fill="#476CFF" fill-opacity="0.1"/>
<circle cx="227.167" cy="57.5" r="1.5" fill="#476CFF" fill-opacity="0.1"/>
<circle cx="244.167" cy="57.5" r="1.5" fill="#476CFF" fill-opacity="0.1"/>
<circle cx="261.167" cy="57.5" r="1.5" fill="#476CFF" fill-opacity="0.1"/>
<circle cx="278.167" cy="57.5" r="1.5" fill="#476CFF" fill-opacity="0.1"/>
<circle cx="295.167" cy="57.5" r="1.5" fill="#476CFF" fill-opacity="0.1"/>
<circle cx="312.167" cy="57.5" r="1.5" fill="#476CFF" fill-opacity="0.1"/>
<circle cx="329.167" cy="57.5" r="1.5" fill="#476CFF" fill-opacity="0.1"/>
<circle cx="346.167" cy="57.5" r="1.5" fill="#476CFF" fill-opacity="0.1"/>
<circle cx="363.167" cy="57.5" r="1.5" fill="#476CFF" fill-opacity="0.1"/>
<circle cx="23.1665" cy="75.5" r="1.5" fill="#476CFF" fill-opacity="0.1"/>
<circle cx="40.1665" cy="75.5" r="1.5" fill="#476CFF" fill-opacity="0.1"/>
<circle cx="57.1665" cy="75.5" r="1.5" fill="#476CFF" fill-opacity="0.1"/>
<circle cx="74.1665" cy="75.5" r="1.5" fill="#476CFF" fill-opacity="0.1"/>
<circle cx="91.1665" cy="75.5" r="1.5" fill="#476CFF" fill-opacity="0.1"/>
<circle cx="108.167" cy="75.5" r="1.5" fill="#476CFF" fill-opacity="0.1"/>
<circle cx="125.167" cy="75.5" r="1.5" fill="#476CFF" fill-opacity="0.1"/>
<circle cx="142.167" cy="75.5" r="1.5" fill="#476CFF" fill-opacity="0.1"/>
<circle cx="159.167" cy="75.5" r="1.5" fill="#476CFF" fill-opacity="0.1"/>
<circle cx="176.167" cy="75.5" r="1.5" fill="#476CFF" fill-opacity="0.1"/>
<circle cx="193.167" cy="75.5" r="1.5" fill="#476CFF" fill-opacity="0.1"/>
<circle cx="210.167" cy="75.5" r="1.5" fill="#476CFF" fill-opacity="0.1"/>
<circle cx="227.167" cy="75.5" r="1.5" fill="#476CFF" fill-opacity="0.1"/>
<circle cx="244.167" cy="75.5" r="1.5" fill="#476CFF" fill-opacity="0.1"/>
<circle cx="261.167" cy="75.5" r="1.5" fill="#476CFF" fill-opacity="0.1"/>
<circle cx="278.167" cy="75.5" r="1.5" fill="#476CFF" fill-opacity="0.1"/>
<circle cx="295.167" cy="75.5" r="1.5" fill="#476CFF" fill-opacity="0.1"/>
<circle cx="312.167" cy="75.5" r="1.5" fill="#476CFF" fill-opacity="0.1"/>
<circle cx="329.167" cy="75.5" r="1.5" fill="#476CFF" fill-opacity="0.1"/>
<circle cx="346.167" cy="75.5" r="1.5" fill="#476CFF" fill-opacity="0.1"/>
<circle cx="363.167" cy="75.5" r="1.5" fill="#476CFF" fill-opacity="0.1"/>
<circle cx="23.1665" cy="93.5" r="1.5" fill="#476CFF" fill-opacity="0.1"/>
<circle cx="40.1665" cy="93.5" r="1.5" fill="#476CFF" fill-opacity="0.1"/>
<circle cx="57.1665" cy="93.5" r="1.5" fill="#476CFF" fill-opacity="0.1"/>
<circle cx="74.1665" cy="93.5" r="1.5" fill="#476CFF" fill-opacity="0.1"/>
<circle cx="91.1665" cy="93.5" r="1.5" fill="#476CFF" fill-opacity="0.1"/>
<circle cx="108.167" cy="93.5" r="1.5" fill="#476CFF" fill-opacity="0.1"/>
<circle cx="125.167" cy="93.5" r="1.5" fill="#476CFF" fill-opacity="0.1"/>
<circle cx="142.167" cy="93.5" r="1.5" fill="#476CFF" fill-opacity="0.1"/>
<circle cx="159.167" cy="93.5" r="1.5" fill="#476CFF" fill-opacity="0.1"/>
<circle cx="176.167" cy="93.5" r="1.5" fill="#476CFF" fill-opacity="0.1"/>
<circle cx="193.167" cy="93.5" r="1.5" fill="#476CFF" fill-opacity="0.1"/>
<circle cx="210.167" cy="93.5" r="1.5" fill="#476CFF" fill-opacity="0.1"/>
<circle cx="227.167" cy="93.5" r="1.5" fill="#476CFF" fill-opacity="0.1"/>
<circle cx="244.167" cy="93.5" r="1.5" fill="#476CFF" fill-opacity="0.1"/>
<circle cx="261.167" cy="93.5" r="1.5" fill="#476CFF" fill-opacity="0.1"/>
<circle cx="278.167" cy="93.5" r="1.5" fill="#476CFF" fill-opacity="0.1"/>
<circle cx="295.167" cy="93.5" r="1.5" fill="#476CFF" fill-opacity="0.1"/>
<circle cx="312.167" cy="93.5" r="1.5" fill="#476CFF" fill-opacity="0.1"/>
<circle cx="329.167" cy="93.5" r="1.5" fill="#476CFF" fill-opacity="0.1"/>
<circle cx="346.167" cy="93.5" r="1.5" fill="#476CFF" fill-opacity="0.1"/>
<circle cx="363.167" cy="93.5" r="1.5" fill="#476CFF" fill-opacity="0.1"/>
<circle cx="23.1665" cy="111.5" r="1.5" fill="#476CFF" fill-opacity="0.1"/>
<circle cx="40.1665" cy="111.5" r="1.5" fill="#476CFF" fill-opacity="0.1"/>
<circle cx="57.1665" cy="111.5" r="1.5" fill="#476CFF" fill-opacity="0.1"/>
<circle cx="74.1665" cy="111.5" r="1.5" fill="#476CFF" fill-opacity="0.1"/>
<circle cx="91.1665" cy="111.5" r="1.5" fill="#476CFF" fill-opacity="0.1"/>
<circle cx="108.167" cy="111.5" r="1.5" fill="#476CFF" fill-opacity="0.1"/>
<circle cx="125.167" cy="111.5" r="1.5" fill="#476CFF" fill-opacity="0.1"/>
<circle cx="142.167" cy="111.5" r="1.5" fill="#476CFF" fill-opacity="0.1"/>
<circle cx="159.167" cy="111.5" r="1.5" fill="#476CFF" fill-opacity="0.1"/>
<circle cx="176.167" cy="111.5" r="1.5" fill="#476CFF" fill-opacity="0.1"/>
<circle cx="193.167" cy="111.5" r="1.5" fill="#476CFF" fill-opacity="0.1"/>
<circle cx="210.167" cy="111.5" r="1.5" fill="#476CFF" fill-opacity="0.1"/>
<circle cx="227.167" cy="111.5" r="1.5" fill="#476CFF" fill-opacity="0.1"/>
<circle cx="244.167" cy="111.5" r="1.5" fill="#476CFF" fill-opacity="0.1"/>
<circle cx="261.167" cy="111.5" r="1.5" fill="#476CFF" fill-opacity="0.1"/>
<circle cx="278.167" cy="111.5" r="1.5" fill="#476CFF" fill-opacity="0.1"/>
<circle cx="295.167" cy="111.5" r="1.5" fill="#476CFF" fill-opacity="0.1"/>
<circle cx="312.167" cy="111.5" r="1.5" fill="#476CFF" fill-opacity="0.1"/>
<circle cx="329.167" cy="111.5" r="1.5" fill="#476CFF" fill-opacity="0.1"/>
<circle cx="346.167" cy="111.5" r="1.5" fill="#476CFF" fill-opacity="0.1"/>
<circle cx="363.167" cy="111.5" r="1.5" fill="#476CFF" fill-opacity="0.1"/>
<circle cx="23.1665" cy="129.5" r="1.5" fill="#476CFF" fill-opacity="0.1"/>
<circle cx="40.1665" cy="129.5" r="1.5" fill="#476CFF" fill-opacity="0.1"/>
<circle cx="57.1665" cy="129.5" r="1.5" fill="#476CFF" fill-opacity="0.1"/>
<circle cx="74.1665" cy="129.5" r="1.5" fill="#476CFF" fill-opacity="0.1"/>
<circle cx="91.1665" cy="129.5" r="1.5" fill="#476CFF" fill-opacity="0.1"/>
<circle cx="108.167" cy="129.5" r="1.5" fill="#476CFF" fill-opacity="0.1"/>
<circle cx="125.167" cy="129.5" r="1.5" fill="#476CFF" fill-opacity="0.1"/>
<circle cx="142.167" cy="129.5" r="1.5" fill="#476CFF" fill-opacity="0.1"/>
<circle cx="159.167" cy="129.5" r="1.5" fill="#476CFF" fill-opacity="0.1"/>
<circle cx="176.167" cy="129.5" r="1.5" fill="#476CFF" fill-opacity="0.1"/>
<circle cx="193.167" cy="129.5" r="1.5" fill="#476CFF" fill-opacity="0.1"/>
<circle cx="210.167" cy="129.5" r="1.5" fill="#476CFF" fill-opacity="0.1"/>
<circle cx="227.167" cy="129.5" r="1.5" fill="#476CFF" fill-opacity="0.1"/>
<circle cx="244.167" cy="129.5" r="1.5" fill="#476CFF" fill-opacity="0.1"/>
<circle cx="261.167" cy="129.5" r="1.5" fill="#476CFF" fill-opacity="0.1"/>
<circle cx="278.167" cy="129.5" r="1.5" fill="#476CFF" fill-opacity="0.1"/>
<circle cx="295.167" cy="129.5" r="1.5" fill="#476CFF" fill-opacity="0.1"/>
<circle cx="312.167" cy="129.5" r="1.5" fill="#476CFF" fill-opacity="0.1"/>
<circle cx="329.167" cy="129.5" r="1.5" fill="#476CFF" fill-opacity="0.1"/>
<circle cx="346.167" cy="129.5" r="1.5" fill="#476CFF" fill-opacity="0.1"/>
<circle cx="363.167" cy="129.5" r="1.5" fill="#476CFF" fill-opacity="0.1"/>
<circle cx="23.1665" cy="147.5" r="1.5" fill="#476CFF" fill-opacity="0.1"/>
<circle cx="40.1665" cy="147.5" r="1.5" fill="#476CFF" fill-opacity="0.1"/>
<circle cx="57.1665" cy="147.5" r="1.5" fill="#476CFF" fill-opacity="0.1"/>
<circle cx="74.1665" cy="147.5" r="1.5" fill="#476CFF" fill-opacity="0.1"/>
<circle cx="91.1665" cy="147.5" r="1.5" fill="#476CFF" fill-opacity="0.1"/>
<circle cx="108.167" cy="147.5" r="1.5" fill="#476CFF" fill-opacity="0.1"/>
<circle cx="125.167" cy="147.5" r="1.5" fill="#476CFF" fill-opacity="0.1"/>
<circle cx="142.167" cy="147.5" r="1.5" fill="#476CFF" fill-opacity="0.1"/>
<circle cx="159.167" cy="147.5" r="1.5" fill="#476CFF" fill-opacity="0.1"/>
<circle cx="176.167" cy="147.5" r="1.5" fill="#476CFF" fill-opacity="0.1"/>
<circle cx="193.167" cy="147.5" r="1.5" fill="#476CFF" fill-opacity="0.1"/>
<circle cx="210.167" cy="147.5" r="1.5" fill="#476CFF" fill-opacity="0.1"/>
<circle cx="227.167" cy="147.5" r="1.5" fill="#476CFF" fill-opacity="0.1"/>
<circle cx="244.167" cy="147.5" r="1.5" fill="#476CFF" fill-opacity="0.1"/>
<circle cx="261.167" cy="147.5" r="1.5" fill="#476CFF" fill-opacity="0.1"/>
<circle cx="278.167" cy="147.5" r="1.5" fill="#476CFF" fill-opacity="0.1"/>
<circle cx="295.167" cy="147.5" r="1.5" fill="#476CFF" fill-opacity="0.1"/>
<circle cx="312.167" cy="147.5" r="1.5" fill="#476CFF" fill-opacity="0.1"/>
<circle cx="329.167" cy="147.5" r="1.5" fill="#476CFF" fill-opacity="0.1"/>
<circle cx="346.167" cy="147.5" r="1.5" fill="#476CFF" fill-opacity="0.1"/>
<circle cx="363.167" cy="147.5" r="1.5" fill="#476CFF" fill-opacity="0.1"/>
<circle cx="23.1665" cy="165.5" r="1.5" fill="#476CFF" fill-opacity="0.1"/>
<circle cx="40.1665" cy="165.5" r="1.5" fill="#476CFF" fill-opacity="0.1"/>
<circle cx="57.1665" cy="165.5" r="1.5" fill="#476CFF" fill-opacity="0.1"/>
<circle cx="74.1665" cy="165.5" r="1.5" fill="#476CFF" fill-opacity="0.1"/>
<circle cx="91.1665" cy="165.5" r="1.5" fill="#476CFF" fill-opacity="0.1"/>
<circle cx="108.167" cy="165.5" r="1.5" fill="#476CFF" fill-opacity="0.1"/>
<circle cx="125.167" cy="165.5" r="1.5" fill="#476CFF" fill-opacity="0.1"/>
<circle cx="142.167" cy="165.5" r="1.5" fill="#476CFF" fill-opacity="0.1"/>
<circle cx="159.167" cy="165.5" r="1.5" fill="#476CFF" fill-opacity="0.1"/>
<circle cx="176.167" cy="165.5" r="1.5" fill="#476CFF" fill-opacity="0.1"/>
<circle cx="193.167" cy="165.5" r="1.5" fill="#476CFF" fill-opacity="0.1"/>
<circle cx="210.167" cy="165.5" r="1.5" fill="#476CFF" fill-opacity="0.1"/>
<circle cx="227.167" cy="165.5" r="1.5" fill="#476CFF" fill-opacity="0.1"/>
<circle cx="244.167" cy="165.5" r="1.5" fill="#476CFF" fill-opacity="0.1"/>
<circle cx="261.167" cy="165.5" r="1.5" fill="#476CFF" fill-opacity="0.1"/>
<circle cx="278.167" cy="165.5" r="1.5" fill="#476CFF" fill-opacity="0.1"/>
<circle cx="295.167" cy="165.5" r="1.5" fill="#476CFF" fill-opacity="0.1"/>
<circle cx="312.167" cy="165.5" r="1.5" fill="#476CFF" fill-opacity="0.1"/>
<circle cx="329.167" cy="165.5" r="1.5" fill="#476CFF" fill-opacity="0.1"/>
<circle cx="346.167" cy="165.5" r="1.5" fill="#476CFF" fill-opacity="0.1"/>
<circle cx="363.167" cy="165.5" r="1.5" fill="#476CFF" fill-opacity="0.1"/>
<circle cx="23.1665" cy="183.5" r="1.5" fill="#476CFF" fill-opacity="0.1"/>
<circle cx="40.1665" cy="183.5" r="1.5" fill="#476CFF" fill-opacity="0.1"/>
<circle cx="57.1665" cy="183.5" r="1.5" fill="#476CFF" fill-opacity="0.1"/>
<circle cx="74.1665" cy="183.5" r="1.5" fill="#476CFF" fill-opacity="0.1"/>
<circle cx="91.1665" cy="183.5" r="1.5" fill="#476CFF" fill-opacity="0.1"/>
<circle cx="108.167" cy="183.5" r="1.5" fill="#476CFF" fill-opacity="0.1"/>
<circle cx="125.167" cy="183.5" r="1.5" fill="#476CFF" fill-opacity="0.1"/>
<circle cx="142.167" cy="183.5" r="1.5" fill="#476CFF" fill-opacity="0.1"/>
<circle cx="159.167" cy="183.5" r="1.5" fill="#476CFF" fill-opacity="0.1"/>
<circle cx="176.167" cy="183.5" r="1.5" fill="#476CFF" fill-opacity="0.1"/>
<circle cx="193.167" cy="183.5" r="1.5" fill="#476CFF" fill-opacity="0.1"/>
<circle cx="210.167" cy="183.5" r="1.5" fill="#476CFF" fill-opacity="0.1"/>
<circle cx="227.167" cy="183.5" r="1.5" fill="#476CFF" fill-opacity="0.1"/>
<circle cx="244.167" cy="183.5" r="1.5" fill="#476CFF" fill-opacity="0.1"/>
<circle cx="261.167" cy="183.5" r="1.5" fill="#476CFF" fill-opacity="0.1"/>
<circle cx="278.167" cy="183.5" r="1.5" fill="#476CFF" fill-opacity="0.1"/>
<circle cx="295.167" cy="183.5" r="1.5" fill="#476CFF" fill-opacity="0.1"/>
<circle cx="312.167" cy="183.5" r="1.5" fill="#476CFF" fill-opacity="0.1"/>
<circle cx="329.167" cy="183.5" r="1.5" fill="#476CFF" fill-opacity="0.1"/>
<circle cx="346.167" cy="183.5" r="1.5" fill="#476CFF" fill-opacity="0.1"/>
<circle cx="363.167" cy="183.5" r="1.5" fill="#476CFF" fill-opacity="0.1"/>
<circle cx="23.1665" cy="201.5" r="1.5" fill="#476CFF" fill-opacity="0.1"/>
<circle cx="40.1665" cy="201.5" r="1.5" fill="#476CFF" fill-opacity="0.1"/>
<circle cx="57.1665" cy="201.5" r="1.5" fill="#476CFF" fill-opacity="0.1"/>
<circle cx="74.1665" cy="201.5" r="1.5" fill="#476CFF" fill-opacity="0.1"/>
<circle cx="91.1665" cy="201.5" r="1.5" fill="#476CFF" fill-opacity="0.1"/>
<circle cx="108.167" cy="201.5" r="1.5" fill="#476CFF" fill-opacity="0.1"/>
<circle cx="125.167" cy="201.5" r="1.5" fill="#476CFF" fill-opacity="0.1"/>
<circle cx="142.167" cy="201.5" r="1.5" fill="#476CFF" fill-opacity="0.1"/>
<circle cx="159.167" cy="201.5" r="1.5" fill="#476CFF" fill-opacity="0.1"/>
<circle cx="176.167" cy="201.5" r="1.5" fill="#476CFF" fill-opacity="0.1"/>
<circle cx="193.167" cy="201.5" r="1.5" fill="#476CFF" fill-opacity="0.1"/>
<circle cx="210.167" cy="201.5" r="1.5" fill="#476CFF" fill-opacity="0.1"/>
<circle cx="227.167" cy="201.5" r="1.5" fill="#476CFF" fill-opacity="0.1"/>
<circle cx="244.167" cy="201.5" r="1.5" fill="#476CFF" fill-opacity="0.1"/>
<circle cx="261.167" cy="201.5" r="1.5" fill="#476CFF" fill-opacity="0.1"/>
<circle cx="278.167" cy="201.5" r="1.5" fill="#476CFF" fill-opacity="0.1"/>
<circle cx="295.167" cy="201.5" r="1.5" fill="#476CFF" fill-opacity="0.1"/>
<circle cx="312.167" cy="201.5" r="1.5" fill="#476CFF" fill-opacity="0.1"/>
<circle cx="329.167" cy="201.5" r="1.5" fill="#476CFF" fill-opacity="0.1"/>
<circle cx="346.167" cy="201.5" r="1.5" fill="#476CFF" fill-opacity="0.1"/>
<circle cx="363.167" cy="201.5" r="1.5" fill="#476CFF" fill-opacity="0.1"/>
<circle cx="23.1665" cy="219.5" r="1.5" fill="#476CFF" fill-opacity="0.1"/>
<circle cx="40.1665" cy="219.5" r="1.5" fill="#476CFF" fill-opacity="0.1"/>
<circle cx="57.1665" cy="219.5" r="1.5" fill="#476CFF" fill-opacity="0.1"/>
<circle cx="74.1665" cy="219.5" r="1.5" fill="#476CFF" fill-opacity="0.1"/>
<circle cx="91.1665" cy="219.5" r="1.5" fill="#476CFF" fill-opacity="0.1"/>
<circle cx="108.167" cy="219.5" r="1.5" fill="#476CFF" fill-opacity="0.1"/>
<circle cx="125.167" cy="219.5" r="1.5" fill="#476CFF" fill-opacity="0.1"/>
<circle cx="142.167" cy="219.5" r="1.5" fill="#476CFF" fill-opacity="0.1"/>
<circle cx="159.167" cy="219.5" r="1.5" fill="#476CFF" fill-opacity="0.1"/>
<circle cx="176.167" cy="219.5" r="1.5" fill="#476CFF" fill-opacity="0.1"/>
<circle cx="193.167" cy="219.5" r="1.5" fill="#476CFF" fill-opacity="0.1"/>
<circle cx="210.167" cy="219.5" r="1.5" fill="#476CFF" fill-opacity="0.1"/>
<circle cx="227.167" cy="219.5" r="1.5" fill="#476CFF" fill-opacity="0.1"/>
<circle cx="244.167" cy="219.5" r="1.5" fill="#476CFF" fill-opacity="0.1"/>
<circle cx="261.167" cy="219.5" r="1.5" fill="#476CFF" fill-opacity="0.1"/>
<circle cx="278.167" cy="219.5" r="1.5" fill="#476CFF" fill-opacity="0.1"/>
<circle cx="295.167" cy="219.5" r="1.5" fill="#476CFF" fill-opacity="0.1"/>
<circle cx="312.167" cy="219.5" r="1.5" fill="#476CFF" fill-opacity="0.1"/>
<circle cx="329.167" cy="219.5" r="1.5" fill="#476CFF" fill-opacity="0.1"/>
<circle cx="346.167" cy="219.5" r="1.5" fill="#476CFF" fill-opacity="0.1"/>
<circle cx="363.167" cy="219.5" r="1.5" fill="#476CFF" fill-opacity="0.1"/>
<circle cx="23.1665" cy="237.5" r="1.5" fill="#476CFF" fill-opacity="0.1"/>
<circle cx="40.1665" cy="237.5" r="1.5" fill="#476CFF" fill-opacity="0.1"/>
<circle cx="57.1665" cy="237.5" r="1.5" fill="#476CFF" fill-opacity="0.1"/>
<circle cx="74.1665" cy="237.5" r="1.5" fill="#476CFF" fill-opacity="0.1"/>
<circle cx="91.1665" cy="237.5" r="1.5" fill="#476CFF" fill-opacity="0.1"/>
<circle cx="108.167" cy="237.5" r="1.5" fill="#476CFF" fill-opacity="0.1"/>
<circle cx="125.167" cy="237.5" r="1.5" fill="#476CFF" fill-opacity="0.1"/>
<circle cx="142.167" cy="237.5" r="1.5" fill="#476CFF" fill-opacity="0.1"/>
<circle cx="159.167" cy="237.5" r="1.5" fill="#476CFF" fill-opacity="0.1"/>
<circle cx="176.167" cy="237.5" r="1.5" fill="#476CFF" fill-opacity="0.1"/>
<circle cx="193.167" cy="237.5" r="1.5" fill="#476CFF" fill-opacity="0.1"/>
<circle cx="210.167" cy="237.5" r="1.5" fill="#476CFF" fill-opacity="0.1"/>
<circle cx="227.167" cy="237.5" r="1.5" fill="#476CFF" fill-opacity="0.1"/>
<circle cx="244.167" cy="237.5" r="1.5" fill="#476CFF" fill-opacity="0.1"/>
<circle cx="261.167" cy="237.5" r="1.5" fill="#476CFF" fill-opacity="0.1"/>
<circle cx="278.167" cy="237.5" r="1.5" fill="#476CFF" fill-opacity="0.1"/>
<circle cx="295.167" cy="237.5" r="1.5" fill="#476CFF" fill-opacity="0.1"/>
<circle cx="312.167" cy="237.5" r="1.5" fill="#476CFF" fill-opacity="0.1"/>
<circle cx="329.167" cy="237.5" r="1.5" fill="#476CFF" fill-opacity="0.1"/>
<circle cx="346.167" cy="237.5" r="1.5" fill="#476CFF" fill-opacity="0.1"/>
<circle cx="363.167" cy="237.5" r="1.5" fill="#476CFF" fill-opacity="0.1"/>
<circle cx="23.1665" cy="255.5" r="1.5" fill="#476CFF" fill-opacity="0.1"/>
<circle cx="40.1665" cy="255.5" r="1.5" fill="#476CFF" fill-opacity="0.1"/>
<circle cx="57.1665" cy="255.5" r="1.5" fill="#476CFF" fill-opacity="0.1"/>
<circle cx="74.1665" cy="255.5" r="1.5" fill="#476CFF" fill-opacity="0.1"/>
<circle cx="91.1665" cy="255.5" r="1.5" fill="#476CFF" fill-opacity="0.1"/>
<circle cx="108.167" cy="255.5" r="1.5" fill="#476CFF" fill-opacity="0.1"/>
<circle cx="125.167" cy="255.5" r="1.5" fill="#476CFF" fill-opacity="0.1"/>
<circle cx="142.167" cy="255.5" r="1.5" fill="#476CFF" fill-opacity="0.1"/>
<circle cx="159.167" cy="255.5" r="1.5" fill="#476CFF" fill-opacity="0.1"/>
<circle cx="176.167" cy="255.5" r="1.5" fill="#476CFF" fill-opacity="0.1"/>
<circle cx="193.167" cy="255.5" r="1.5" fill="#476CFF" fill-opacity="0.1"/>
<circle cx="210.167" cy="255.5" r="1.5" fill="#476CFF" fill-opacity="0.1"/>
<circle cx="227.167" cy="255.5" r="1.5" fill="#476CFF" fill-opacity="0.1"/>
<circle cx="244.167" cy="255.5" r="1.5" fill="#476CFF" fill-opacity="0.1"/>
<circle cx="261.167" cy="255.5" r="1.5" fill="#476CFF" fill-opacity="0.1"/>
<circle cx="278.167" cy="255.5" r="1.5" fill="#476CFF" fill-opacity="0.1"/>
<circle cx="295.167" cy="255.5" r="1.5" fill="#476CFF" fill-opacity="0.1"/>
<circle cx="312.167" cy="255.5" r="1.5" fill="#476CFF" fill-opacity="0.1"/>
<circle cx="329.167" cy="255.5" r="1.5" fill="#476CFF" fill-opacity="0.1"/>
<circle cx="346.167" cy="255.5" r="1.5" fill="#476CFF" fill-opacity="0.1"/>
<circle cx="363.167" cy="255.5" r="1.5" fill="#476CFF" fill-opacity="0.1"/>
</g>
<mask id="mask0_1_15553" style="mask-type:alpha" maskUnits="userSpaceOnUse" x="32" y="1" width="324" height="323">
<rect x="32.5" y="1" width="323" height="323" rx="161.5" fill="url(#paint0_radial_1_15553)"/>
</mask>
<g mask="url(#mask0_1_15553)">
<g filter="url(#filter0_dddddd_1_15553)">
<path d="M207.329 111.028V67.6268C207.329 60.9975 199.381 58.3794 195.964 63.8824L132.809 165.465C130.032 169.931 132.992 175.928 137.962 175.928H173.883C177.318 175.928 180.095 178.931 180.095 182.646V226.107C180.095 232.736 188.025 235.354 191.46 229.861L254.852 128.229C257.639 123.763 254.679 117.756 249.7 117.756H213.541C210.106 117.756 207.329 114.753 207.329 111.038V111.028Z" fill="white"/>
</g>
<g opacity="0.5">
<mask id="path-318-inside-1_1_15553" fill="white">
<path d="M201.065 60.7443C204.239 60.7443 207.348 63.3276 207.348 67.4846V110.965C207.348 114.686 210.128 117.695 213.567 117.695H249.763C254.747 117.695 257.701 123.723 254.921 128.187L191.463 230.003C190.183 232.062 188.271 232.983 186.378 232.983C183.205 232.983 180.095 230.399 180.095 226.242V182.703C180.095 178.981 177.315 175.972 173.877 175.972H137.918C132.943 175.972 129.98 169.955 132.76 165.491L195.981 63.7235C197.261 61.6648 199.181 60.7344 201.074 60.7344M201.065 50.8467C195.99 50.8467 191.243 53.5982 188.381 58.2105L125.161 159.978C121.987 165.085 121.676 171.637 124.347 177.071C127.017 182.505 132.221 185.88 137.909 185.88H170.941V226.252C170.941 235.586 177.718 242.89 186.369 242.89C191.509 242.89 196.127 240.218 199.035 235.546L262.493 133.729C265.676 128.622 265.996 122.07 263.325 116.626C260.655 111.183 255.451 107.807 249.763 107.807H216.493V67.4945C216.493 58.161 209.717 50.8566 201.065 50.8566V50.8467Z"/>
</mask>
<path d="M201.065 60.7443C204.239 60.7443 207.348 63.3276 207.348 67.4846V110.965C207.348 114.686 210.128 117.695 213.567 117.695H249.763C254.747 117.695 257.701 123.723 254.921 128.187L191.463 230.003C190.183 232.062 188.271 232.983 186.378 232.983C183.205 232.983 180.095 230.399 180.095 226.242V182.703C180.095 178.981 177.315 175.972 173.877 175.972H137.918C132.943 175.972 129.98 169.955 132.76 165.491L195.981 63.7235C197.261 61.6648 199.181 60.7344 201.074 60.7344M201.065 50.8467C195.99 50.8467 191.243 53.5982 188.381 58.2105L125.161 159.978C121.987 165.085 121.676 171.637 124.347 177.071C127.017 182.505 132.221 185.88 137.909 185.88H170.941V226.252C170.941 235.586 177.718 242.89 186.369 242.89C191.509 242.89 196.127 240.218 199.035 235.546L262.493 133.729C265.676 128.622 265.996 122.07 263.325 116.626C260.655 111.183 255.451 107.807 249.763 107.807H216.493V67.4945C216.493 58.161 209.717 50.8566 201.065 50.8566V50.8467Z" fill="#47C2FF" fill-opacity="0.1"/>
<path d="M254.921 128.187L255.77 128.716L255.77 128.715L254.921 128.187ZM191.463 230.003L190.614 229.474L190.614 229.475L191.463 230.003ZM132.76 165.491L133.609 166.019L133.61 166.018L132.76 165.491ZM195.981 63.7235L195.131 63.1954L195.131 63.1958L195.981 63.7235ZM201.065 50.8467H202.065V49.8467H201.065V50.8467ZM188.381 58.2105L189.23 58.7382L189.231 58.7378L188.381 58.2105ZM125.161 159.978L126.01 160.506L126.01 160.505L125.161 159.978ZM170.941 185.88H171.941V184.88H170.941V185.88ZM199.035 235.546L198.186 235.017L198.186 235.018L199.035 235.546ZM262.493 133.729L263.342 134.258L263.342 134.258L262.493 133.729ZM216.493 107.807H215.493V108.807H216.493V107.807ZM201.065 50.8566H200.065V51.8566H201.065V50.8566ZM201.065 61.7443C203.693 61.7443 206.348 63.8867 206.348 67.4846H208.348C208.348 62.7684 204.784 59.7443 201.065 59.7443V61.7443ZM206.348 67.4846V110.965H208.348V67.4846H206.348ZM206.348 110.965C206.348 115.163 209.503 118.695 213.567 118.695V116.695C210.753 116.695 208.348 114.21 208.348 110.965H206.348ZM213.567 118.695H249.763V116.695H213.567V118.695ZM249.763 118.695C251.814 118.695 253.482 119.928 254.356 121.708C255.232 123.491 255.264 125.745 254.072 127.658L255.77 128.715C257.358 126.165 257.304 123.173 256.151 120.826C254.998 118.477 252.697 116.695 249.763 116.695V118.695ZM254.072 127.658L190.614 229.474L192.312 230.532L255.77 128.716L254.072 127.658ZM190.614 229.475C189.515 231.242 187.924 231.983 186.378 231.983V233.983C188.619 233.983 190.85 232.882 192.312 230.531L190.614 229.475ZM186.378 231.983C183.75 231.983 181.095 229.84 181.095 226.242H179.095C179.095 230.958 182.659 233.983 186.378 233.983V231.983ZM181.095 226.242V182.703H179.095V226.242H181.095ZM181.095 182.703C181.095 178.505 177.941 174.972 173.877 174.972V176.972C176.69 176.972 179.095 179.458 179.095 182.703H181.095ZM173.877 174.972H137.918V176.972H173.877V174.972ZM137.918 174.972C135.872 174.972 134.203 173.742 133.328 171.964C132.452 170.183 132.418 167.932 133.609 166.019L131.911 164.962C130.323 167.513 130.38 170.503 131.534 172.847C132.689 175.194 134.989 176.972 137.918 176.972V174.972ZM133.61 166.018L196.83 64.2512L195.131 63.1958L131.911 164.963L133.61 166.018ZM196.83 64.2516C197.929 62.4833 199.531 61.7344 201.074 61.7344V59.7344C198.832 59.7344 196.592 60.8463 195.131 63.1954L196.83 64.2516ZM201.065 49.8467C195.617 49.8467 190.561 52.8009 187.531 57.6832L189.231 58.7378C191.926 54.3955 196.363 51.8467 201.065 51.8467V49.8467ZM187.532 57.6828L124.311 159.45L126.01 160.505L189.23 58.7382L187.532 57.6828ZM124.311 159.45C120.954 164.853 120.628 171.771 123.449 177.512L125.244 176.63C122.725 171.503 123.02 165.317 126.01 160.506L124.311 159.45ZM123.449 177.512C126.275 183.261 131.81 186.88 137.909 186.88V184.88C132.631 184.88 127.76 181.748 125.244 176.63L123.449 177.512ZM137.909 186.88H170.941V184.88H137.909V186.88ZM169.941 185.88V226.252H171.941V185.88H169.941ZM169.941 226.252C169.941 236.066 177.096 243.89 186.369 243.89V241.89C178.34 241.89 171.941 235.106 171.941 226.252H169.941ZM186.369 243.89C191.881 243.89 196.808 241.015 199.884 236.074L198.186 235.018C195.446 239.42 191.136 241.89 186.369 241.89V243.89ZM199.884 236.075L263.342 134.258L261.645 133.2L198.186 235.017L199.884 236.075ZM263.342 134.258C266.709 128.856 267.044 121.937 264.223 116.186L262.428 117.067C264.947 122.203 264.643 128.389 261.645 133.2L263.342 134.258ZM264.223 116.186C261.398 110.427 255.862 106.807 249.763 106.807V108.807C255.041 108.807 259.912 111.938 262.428 117.067L264.223 116.186ZM249.763 106.807H216.493V108.807H249.763V106.807ZM217.493 107.807V67.4945H215.493V107.807H217.493ZM217.493 67.4945C217.493 57.681 210.339 49.8566 201.065 49.8566V51.8566C209.095 51.8566 215.493 58.641 215.493 67.4945H217.493ZM202.065 50.8566V50.8467H200.065V50.8566H202.065Z" fill="url(#paint1_linear_1_15553)" fill-opacity="0.2" mask="url(#path-318-inside-1_1_15553)"/>
</g>
<g opacity="0.5">
<mask id="path-320-inside-2_1_15553" fill="white">
<path d="M201.071 59.7838C204.247 59.7838 207.359 62.3959 207.359 66.5992V110.564C207.359 114.327 210.141 117.37 213.583 117.37H249.809C254.798 117.37 257.754 123.465 254.971 127.978L191.461 230.93C190.179 233.012 188.266 233.943 186.372 233.943C183.196 233.943 180.084 231.331 180.084 227.127V183.102C180.084 179.339 177.301 176.297 173.86 176.297H137.872C132.892 176.297 129.927 170.212 132.709 165.698L195.982 62.7962C197.264 60.7146 199.186 59.7738 201.08 59.7738M201.071 35.7646C191.717 35.7646 182.994 40.8587 177.741 49.4055L114.468 152.308C108.647 161.775 108.07 173.925 112.985 183.993C117.891 194.071 127.428 200.326 137.862 200.326H158.108V227.137C158.108 244.141 170.785 257.972 186.363 257.972C195.698 257.972 204.412 252.888 209.665 244.371L273.176 141.419C279.016 131.951 279.601 119.802 274.696 109.714C269.79 99.6256 260.253 93.3606 249.809 93.3606H229.325V66.6092C229.325 49.6057 216.649 35.7747 201.071 35.7747V35.7646Z"/>
</mask>
<path d="M201.071 59.7838C204.247 59.7838 207.359 62.3959 207.359 66.5992V110.564C207.359 114.327 210.141 117.37 213.583 117.37H249.809C254.798 117.37 257.754 123.465 254.971 127.978L191.461 230.93C190.179 233.012 188.266 233.943 186.372 233.943C183.196 233.943 180.084 231.331 180.084 227.127V183.102C180.084 179.339 177.301 176.297 173.86 176.297H137.872C132.892 176.297 129.927 170.212 132.709 165.698L195.982 62.7962C197.264 60.7146 199.186 59.7738 201.08 59.7738M201.071 35.7646C191.717 35.7646 182.994 40.8587 177.741 49.4055L114.468 152.308C108.647 161.775 108.07 173.925 112.985 183.993C117.891 194.071 127.428 200.326 137.862 200.326H158.108V227.137C158.108 244.141 170.785 257.972 186.363 257.972C195.698 257.972 204.412 252.888 209.665 244.371L273.176 141.419C279.016 131.951 279.601 119.802 274.696 109.714C269.79 99.6256 260.253 93.3606 249.809 93.3606H229.325V66.6092C229.325 49.6057 216.649 35.7747 201.071 35.7747V35.7646Z" fill="#47C2FF" fill-opacity="0.1"/>
<path d="M254.971 127.978L255.823 128.503L255.823 128.503L254.971 127.978ZM191.461 230.93L190.61 230.405L190.609 230.406L191.461 230.93ZM132.709 165.698L133.561 166.223L133.561 166.222L132.709 165.698ZM195.982 62.7962L195.131 62.272L195.13 62.2724L195.982 62.7962ZM201.071 35.7646H202.071V34.7646H201.071V35.7646ZM177.741 49.4055L178.593 49.9293L178.593 49.9292L177.741 49.4055ZM114.468 152.308L113.616 151.784L113.616 151.784L114.468 152.308ZM112.985 183.993L113.884 183.555L113.884 183.554L112.985 183.993ZM158.108 200.326H159.108V199.326H158.108V200.326ZM209.665 244.371L208.814 243.846L208.814 243.846L209.665 244.371ZM273.176 141.419L274.027 141.944L274.027 141.944L273.176 141.419ZM229.325 93.3606H228.325V94.3606H229.325V93.3606ZM201.071 35.7747H200.071V36.7747H201.071V35.7747ZM201.071 60.7838C203.692 60.7838 206.359 62.9454 206.359 66.5992H208.359C208.359 61.8464 204.802 58.7838 201.071 58.7838V60.7838ZM206.359 66.5992V110.564H208.359V66.5992H206.359ZM206.359 110.564C206.359 114.794 209.507 118.37 213.583 118.37V116.37C210.776 116.37 208.359 113.861 208.359 110.564H206.359ZM213.583 118.37H249.809V116.37H213.583V118.37ZM249.809 118.37C251.856 118.37 253.527 119.613 254.405 121.419C255.284 123.227 255.316 125.513 254.12 127.453L255.823 128.503C257.409 125.929 257.355 122.912 256.204 120.544C255.052 118.174 252.751 116.37 249.809 116.37V118.37ZM254.12 127.453L190.61 230.405L192.312 231.455L255.823 128.503L254.12 127.453ZM190.609 230.406C189.507 232.197 187.914 232.943 186.372 232.943V234.943C188.619 234.943 190.852 233.827 192.312 231.455L190.609 230.406ZM186.372 232.943C183.751 232.943 181.084 230.781 181.084 227.127H179.084C179.084 231.88 182.641 234.943 186.372 234.943V232.943ZM181.084 227.127V183.102H179.084V227.127H181.084ZM181.084 183.102C181.084 178.873 177.936 175.297 173.86 175.297V177.297C176.667 177.297 179.084 179.805 179.084 183.102H181.084ZM173.86 175.297H137.872V177.297H173.86V175.297ZM137.872 175.297C135.829 175.297 134.157 174.056 133.279 172.252C132.399 170.447 132.365 168.163 133.561 166.223L131.858 165.174C130.271 167.747 130.329 170.763 131.481 173.128C132.634 175.495 134.935 177.297 137.872 177.297V175.297ZM133.561 166.222L196.834 63.32L195.13 62.2724L131.858 165.174L133.561 166.222ZM196.834 63.3204C197.937 61.5287 199.54 60.7738 201.08 60.7738V58.7738C198.832 58.7738 196.59 59.9004 195.131 62.272L196.834 63.3204ZM201.071 34.7646C191.341 34.7646 182.309 40.0644 176.889 48.8819L178.593 49.9292C183.68 41.6531 192.093 36.7646 201.071 36.7646V34.7646ZM176.889 48.8817L113.616 151.784L115.32 152.831L178.593 49.9293L176.889 48.8817ZM113.616 151.784C107.614 161.545 107.022 174.058 112.087 184.432L113.884 183.554C109.118 173.792 109.679 162.005 115.32 152.831L113.616 151.784ZM112.086 184.431C117.144 194.821 127.012 201.326 137.862 201.326V199.326C127.845 199.326 118.638 193.321 113.884 183.555L112.086 184.431ZM137.862 201.326H158.108V199.326H137.862V201.326ZM157.108 200.326V227.137H159.108V200.326H157.108ZM157.108 227.137C157.108 244.609 170.152 258.972 186.363 258.972V256.972C171.417 256.972 159.108 243.673 159.108 227.137H157.108ZM186.363 258.972C196.074 258.972 205.096 253.683 210.517 244.896L208.814 243.846C203.727 252.093 195.323 256.972 186.363 256.972V258.972ZM210.517 244.896L274.027 141.944L272.325 140.894L208.814 243.846L210.517 244.896ZM274.027 141.944C280.048 132.182 280.649 119.669 275.595 109.276L273.796 110.151C278.554 119.934 277.983 131.72 272.325 140.894L274.027 141.944ZM275.595 109.276C270.537 98.8761 260.67 92.3606 249.809 92.3606V94.3606C259.835 94.3606 269.042 100.375 273.796 110.151L275.595 109.276ZM249.809 92.3606H229.325V94.3606H249.809V92.3606ZM230.325 93.3606V66.6092H228.325V93.3606H230.325ZM230.325 66.6092C230.325 49.1374 217.282 34.7747 201.071 34.7747V36.7747C216.016 36.7747 228.325 50.074 228.325 66.6092H230.325ZM202.071 35.7747V35.7646H200.071V35.7747H202.071Z" fill="url(#paint2_linear_1_15553)" fill-opacity="0.2" mask="url(#path-320-inside-2_1_15553)"/>
</g>
<g opacity="0.5">
<mask id="path-322-inside-3_1_15553" fill="white">
<path d="M201.496 60.4214C204.659 60.4214 207.759 63.0144 207.759 67.1869V110.83C207.759 114.566 210.53 117.586 213.958 117.586H250.041C255.009 117.586 257.954 123.636 255.182 128.116L191.924 230.315C190.647 232.381 188.742 233.305 186.855 233.305C183.691 233.305 180.592 230.712 180.592 226.539V182.837C180.592 179.101 177.821 176.081 174.393 176.081H138.547C133.588 176.081 130.634 170.041 133.405 165.56L196.427 63.4118C197.703 61.3453 199.618 60.4115 201.505 60.4115M201.496 20.6826C187.311 20.6826 174.101 28.3721 166.161 41.2474L103.139 143.396C94.3232 157.682 93.4571 176.002 100.887 191.192C108.317 206.392 122.739 215.83 138.547 215.83H144.126V226.549C144.126 239.564 149.14 252.042 157.892 260.784C165.805 268.692 176.097 273.054 186.855 273.054C201.013 273.054 214.213 265.384 222.154 252.549L285.413 150.35C294.255 136.064 295.14 117.735 287.71 102.525C280.289 87.3047 265.849 77.8568 250.041 77.8568H244.225V67.1969C244.225 54.1824 239.201 41.6945 230.45 32.952C222.537 25.0439 212.244 20.6826 201.487 20.6826H201.496Z"/>
</mask>
<path d="M201.496 60.4214C204.659 60.4214 207.759 63.0144 207.759 67.1869V110.83C207.759 114.566 210.53 117.586 213.958 117.586H250.041C255.009 117.586 257.954 123.636 255.182 128.116L191.924 230.315C190.647 232.381 188.742 233.305 186.855 233.305C183.691 233.305 180.592 230.712 180.592 226.539V182.837C180.592 179.101 177.821 176.081 174.393 176.081H138.547C133.588 176.081 130.634 170.041 133.405 165.56L196.427 63.4118C197.703 61.3453 199.618 60.4115 201.505 60.4115M201.496 20.6826C187.311 20.6826 174.101 28.3721 166.161 41.2474L103.139 143.396C94.3232 157.682 93.4571 176.002 100.887 191.192C108.317 206.392 122.739 215.83 138.547 215.83H144.126V226.549C144.126 239.564 149.14 252.042 157.892 260.784C165.805 268.692 176.097 273.054 186.855 273.054C201.013 273.054 214.213 265.384 222.154 252.549L285.413 150.35C294.255 136.064 295.14 117.735 287.71 102.525C280.289 87.3047 265.849 77.8568 250.041 77.8568H244.225V67.1969C244.225 54.1824 239.201 41.6945 230.45 32.952C222.537 25.0439 212.244 20.6826 201.487 20.6826H201.496Z" fill="#47C2FF" fill-opacity="0.1"/>
<path d="M255.182 128.116L256.033 128.643L256.033 128.642L255.182 128.116ZM191.924 230.315L191.073 229.788L191.073 229.789L191.924 230.315ZM133.405 165.56L134.256 166.086L134.256 166.085L133.405 165.56ZM196.427 63.4118L195.576 62.8863L195.576 62.8867L196.427 63.4118ZM166.161 41.2474L167.012 41.7725L167.012 41.7724L166.161 41.2474ZM103.139 143.396L103.99 143.921L103.99 143.921L103.139 143.396ZM100.887 191.192L101.785 190.753L101.785 190.752L100.887 191.192ZM144.126 215.83H145.126V214.83H144.126V215.83ZM157.892 260.784L158.599 260.077L158.599 260.077L157.892 260.784ZM222.154 252.549L221.303 252.022L221.303 252.022L222.154 252.549ZM285.413 150.35L284.562 149.824L285.413 150.35ZM287.71 102.525L286.811 102.963L286.811 102.964L287.71 102.525ZM244.225 77.8568H243.225V78.8568H244.225V77.8568ZM230.45 32.952L229.743 33.6593L229.743 33.6594L230.45 32.952ZM201.496 61.4214C204.107 61.4214 206.759 63.5671 206.759 67.1869H208.759C208.759 62.4617 205.211 59.4214 201.496 59.4214V61.4214ZM206.759 67.1869V110.83H208.759V67.1869H206.759ZM206.759 110.83C206.759 115.035 209.899 118.586 213.958 118.586V116.586C211.162 116.586 208.759 114.096 208.759 110.83H206.759ZM213.958 118.586H250.041V116.586H213.958V118.586ZM250.041 118.586C252.08 118.586 253.743 119.82 254.615 121.609C255.489 123.401 255.521 125.667 254.332 127.59L256.033 128.642C257.615 126.085 257.561 123.086 256.413 120.733C255.264 118.377 252.97 116.586 250.041 116.586V118.586ZM254.332 127.59L191.073 229.788L192.774 230.841L256.033 128.643L254.332 127.59ZM191.073 229.789C189.977 231.564 188.391 232.305 186.855 232.305V234.305C189.093 234.305 191.318 233.198 192.774 230.84L191.073 229.789ZM186.855 232.305C184.243 232.305 181.592 230.159 181.592 226.539H179.592C179.592 231.265 183.14 234.305 186.855 234.305V232.305ZM181.592 226.539V182.837H179.592V226.539H181.592ZM181.592 182.837C181.592 178.632 178.452 175.081 174.393 175.081V177.081C177.189 177.081 179.592 179.571 179.592 182.837H181.592ZM174.393 175.081H138.547V177.081H174.393V175.081ZM138.547 175.081C136.512 175.081 134.849 173.849 133.975 172.062C133.101 170.272 133.067 168.009 134.256 166.086L132.555 165.034C130.973 167.592 131.03 170.589 132.179 172.94C133.329 175.293 135.622 177.081 138.547 177.081V175.081ZM134.256 166.085L197.278 63.9368L195.576 62.8867L132.554 165.035L134.256 166.085ZM197.278 63.9372C198.375 62.1609 199.97 61.4115 201.505 61.4115V59.4115C199.265 59.4115 197.032 60.5298 195.576 62.8863L197.278 63.9372ZM201.496 19.6826C186.937 19.6826 173.417 27.5757 165.309 40.7225L167.012 41.7724C174.785 29.1685 187.685 21.6826 201.496 21.6826V19.6826ZM165.31 40.7224L102.288 142.871L103.99 143.921L167.012 41.7725L165.31 40.7224ZM102.288 142.871C93.2904 157.451 92.4092 176.135 99.9887 191.631L101.785 190.752C94.5049 175.868 95.3559 157.913 103.99 143.921L102.288 142.871ZM99.9886 191.631C107.571 207.144 122.324 216.83 138.547 216.83V214.83C123.154 214.83 109.062 205.64 101.785 190.753L99.9886 191.631ZM138.547 216.83H144.126V214.83H138.547V216.83ZM143.126 215.83V226.549H145.126V215.83H143.126ZM143.126 226.549C143.126 239.814 148.235 252.551 157.185 261.492L158.599 260.077C150.046 251.533 145.126 239.314 145.126 226.549H143.126ZM157.185 261.492C165.277 269.579 175.821 274.054 186.855 274.054V272.054C176.374 272.054 166.333 267.806 158.599 260.077L157.185 261.492ZM186.855 274.054C201.386 274.054 214.896 266.181 223.004 253.075L221.303 252.022C213.531 264.587 200.639 272.054 186.855 272.054V274.054ZM223.004 253.075L286.263 150.877L284.562 149.824L221.303 252.022L223.004 253.075ZM286.263 150.877C295.288 136.296 296.188 117.602 288.608 102.086L286.811 102.964C294.092 117.868 293.223 135.832 284.562 149.824L286.263 150.877ZM288.609 102.086C281.035 86.5531 266.264 76.8568 250.041 76.8568V78.8568C265.434 78.8568 279.543 88.0563 286.811 102.963L288.609 102.086ZM250.041 76.8568H244.225V78.8568H250.041V76.8568ZM245.225 77.8568V67.1969H243.225V77.8568H245.225ZM245.225 67.1969C245.225 53.9324 240.106 41.1852 231.156 32.2445L229.743 33.6594C238.296 42.2038 243.225 54.4324 243.225 67.1969H245.225ZM231.156 32.2446C223.064 24.1577 212.521 19.6826 201.487 19.6826V21.6826C211.967 21.6826 222.009 25.9302 229.743 33.6593L231.156 32.2446ZM201.487 21.6826H201.496V19.6826H201.487V21.6826Z" fill="url(#paint3_linear_1_15553)" fill-opacity="0.2" mask="url(#path-322-inside-3_1_15553)"/>
</g>
<g opacity="0.5">
<mask id="path-324-inside-4_1_15553" fill="white">
<path d="M201.932 60.2768C205.087 60.2768 208.179 62.8739 208.179 67.0532V110.767C208.179 114.508 210.943 117.533 214.362 117.533H250.351C255.306 117.533 258.243 123.593 255.479 128.081L192.385 230.443C191.112 232.513 189.212 233.438 187.329 233.438C184.174 233.438 181.083 230.841 181.083 226.662V182.889C181.083 179.148 178.319 176.123 174.9 176.123H139.147C134.201 176.123 131.255 170.073 134.019 165.585L196.877 63.272C198.15 61.2022 200.059 60.2668 201.941 60.2668M201.932 0.572754C181.719 0.572754 162.906 11.5583 151.595 29.967L88.7375 132.28C76.1896 152.709 74.9621 178.889 85.5369 200.621C94.1567 218.343 109.414 230.583 126.945 234.503C128.645 250.215 135.437 264.893 146.149 275.639C157.405 286.933 172.035 293.162 187.329 293.162C207.506 293.162 226.301 282.207 237.621 263.848L300.715 161.485C313.299 141.066 314.563 114.866 303.988 93.114C295.323 75.2824 279.966 62.9933 262.308 59.1424C260.58 43.4701 253.797 28.8327 243.113 18.1158C231.856 6.82178 217.235 0.602607 201.941 0.602607L201.932 0.572754Z"/>
</mask>
<path d="M201.932 60.2768C205.087 60.2768 208.179 62.8739 208.179 67.0532V110.767C208.179 114.508 210.943 117.533 214.362 117.533H250.351C255.306 117.533 258.243 123.593 255.479 128.081L192.385 230.443C191.112 232.513 189.212 233.438 187.329 233.438C184.174 233.438 181.083 230.841 181.083 226.662V182.889C181.083 179.148 178.319 176.123 174.9 176.123H139.147C134.201 176.123 131.255 170.073 134.019 165.585L196.877 63.272C198.15 61.2022 200.059 60.2668 201.941 60.2668M201.932 0.572754C181.719 0.572754 162.906 11.5583 151.595 29.967L88.7375 132.28C76.1896 152.709 74.9621 178.889 85.5369 200.621C94.1567 218.343 109.414 230.583 126.945 234.503C128.645 250.215 135.437 264.893 146.149 275.639C157.405 286.933 172.035 293.162 187.329 293.162C207.506 293.162 226.301 282.207 237.621 263.848L300.715 161.485C313.299 141.066 314.563 114.866 303.988 93.114C295.323 75.2824 279.966 62.9933 262.308 59.1424C260.58 43.4701 253.797 28.8327 243.113 18.1158C231.856 6.82178 217.235 0.602607 201.941 0.602607L201.932 0.572754Z" fill="#47C2FF" fill-opacity="0.1"/>
<path d="M255.479 128.081L256.33 128.605L256.33 128.605L255.479 128.081ZM192.385 230.443L191.534 229.919L191.533 229.919L192.385 230.443ZM134.019 165.585L134.87 166.109L134.871 166.108L134.019 165.585ZM196.877 63.272L196.025 62.7481L196.025 62.7485L196.877 63.272ZM201.932 0.572754L202.889 0.281531L202.673 -0.427246H201.932V0.572754ZM151.595 29.967L150.743 29.4435L150.743 29.4436L151.595 29.967ZM88.7375 132.28L87.8854 131.756L87.8854 131.757L88.7375 132.28ZM85.5369 200.621L86.4361 200.184L86.4361 200.184L85.5369 200.621ZM126.945 234.503L127.939 234.396L127.862 233.684L127.163 233.527L126.945 234.503ZM146.149 275.639L145.44 276.345V276.345L146.149 275.639ZM237.621 263.848L238.472 264.373L238.472 264.372L237.621 263.848ZM300.715 161.485L301.566 162.01L301.566 162.01L300.715 161.485ZM303.988 93.114L303.089 93.5511L303.089 93.5512L303.988 93.114ZM262.308 59.1424L261.314 59.252L261.392 59.9663L262.094 60.1195L262.308 59.1424ZM243.113 18.1158L242.405 18.8217L242.405 18.8218L243.113 18.1158ZM201.941 0.602607L200.985 0.893829L201.2 1.60261H201.941V0.602607ZM201.932 61.2768C204.532 61.2768 207.179 63.4226 207.179 67.0532H209.179C209.179 62.3252 205.643 59.2768 201.932 59.2768V61.2768ZM207.179 67.0532V110.767H209.179V67.0532H207.179ZM207.179 110.767C207.179 114.973 210.308 118.533 214.362 118.533V116.533C211.578 116.533 209.179 114.042 209.179 110.767H207.179ZM214.362 118.533H250.351V116.533H214.362V118.533ZM250.351 118.533C252.381 118.533 254.039 119.767 254.91 121.561C255.782 123.357 255.815 125.629 254.628 127.556L256.33 128.605C257.907 126.045 257.853 123.043 256.709 120.687C255.564 118.329 253.276 116.533 250.351 116.533V118.533ZM254.628 127.556L191.534 229.919L193.236 230.968L256.33 128.605L254.628 127.556ZM191.533 229.919C190.439 231.698 188.859 232.438 187.329 232.438V234.438C189.564 234.438 191.785 233.328 193.237 230.967L191.533 229.919ZM187.329 232.438C184.73 232.438 182.083 230.293 182.083 226.662H180.083C180.083 231.39 183.618 234.438 187.329 234.438V232.438ZM182.083 226.662V182.889H180.083V226.662H182.083ZM182.083 182.889C182.083 178.682 178.954 175.123 174.9 175.123V177.123C177.683 177.123 180.083 179.613 180.083 182.889H182.083ZM174.9 175.123H139.147V177.123H174.9V175.123ZM139.147 175.123C137.121 175.123 135.463 173.891 134.591 172.099C133.718 170.305 133.684 168.036 134.87 166.109L133.168 165.06C131.59 167.621 131.647 170.621 132.793 172.974C133.939 175.329 136.227 177.123 139.147 177.123V175.123ZM134.871 166.108L197.729 63.7954L196.025 62.7485L133.167 165.061L134.871 166.108ZM197.728 63.7958C198.823 62.0159 200.413 61.2668 201.941 61.2668V59.2668C199.705 59.2668 197.476 60.3885 196.025 62.7481L197.728 63.7958ZM201.932 -0.427246C181.344 -0.427246 162.221 10.7633 150.743 29.4435L152.447 30.4906C163.592 12.3533 182.095 1.57275 201.932 1.57275V-0.427246ZM150.743 29.4436L87.8854 131.756L89.5895 132.803L152.447 30.4905L150.743 29.4436ZM87.8854 131.757C75.1569 152.479 73.9148 179.022 84.6377 201.059L86.4361 200.184C76.0094 178.756 77.2223 152.938 89.5896 132.803L87.8854 131.757ZM84.6376 201.059C93.3814 219.035 108.879 231.488 126.727 235.479L127.163 233.527C109.95 229.678 94.9321 217.651 86.4361 200.184L84.6376 201.059ZM125.951 234.611C127.674 250.535 134.559 265.428 145.44 276.345L146.857 274.933C136.316 264.357 129.616 249.896 127.939 234.396L125.951 234.611ZM145.44 276.345C156.876 287.818 171.757 294.162 187.329 294.162V292.162C172.314 292.162 157.935 286.048 146.857 274.933L145.44 276.345ZM187.329 294.162C207.881 294.162 226.985 283.002 238.472 264.373L236.77 263.323C225.616 281.411 207.131 292.162 187.329 292.162V294.162ZM238.472 264.372L301.566 162.01L299.864 160.96L236.77 263.323L238.472 264.372ZM301.566 162.01C314.332 141.297 315.611 114.734 304.888 92.6768L303.089 93.5512C313.516 114.998 312.267 140.835 299.864 160.96L301.566 162.01ZM304.888 92.6769C296.098 74.5898 280.499 62.0862 262.521 58.1654L262.094 60.1195C279.432 63.9004 294.548 75.975 303.089 93.5511L304.888 92.6769ZM263.302 59.0329C261.551 43.1496 254.675 28.2973 243.821 17.4098L242.405 18.8218C252.918 29.368 259.609 43.7907 261.314 59.252L263.302 59.0329ZM243.821 17.4099C232.386 5.93653 217.513 -0.397393 201.941 -0.397393V1.60261C216.957 1.60261 231.327 7.70702 242.405 18.8217L243.821 17.4099ZM202.898 0.311384L202.889 0.281531L200.976 0.863976L200.985 0.893829L202.898 0.311384Z" fill="url(#paint4_linear_1_15553)" fill-opacity="0.2" mask="url(#path-324-inside-4_1_15553)"/>
</g>
<g opacity="0.5">
<mask id="path-326-inside-5_1_15553" fill="white">
<path d="M201.026 60.6591C204.187 60.6591 207.284 63.2451 207.284 67.4064V110.932C207.284 114.657 210.053 117.669 213.478 117.669H249.533C254.497 117.669 257.44 123.703 254.67 128.172L191.461 230.094C190.186 232.155 188.282 233.077 186.396 233.077C183.235 233.077 180.138 230.491 180.138 226.329V182.744C180.138 179.019 177.369 176.007 173.944 176.007H138.126C133.171 176.007 130.219 169.983 132.988 165.514L195.961 63.6414C197.236 61.5806 199.149 60.6492 201.035 60.6492M201.026 -23.5581C173.179 -23.5581 147.263 -8.52781 131.695 16.6581L68.7223 118.521C51.442 146.471 49.7568 182.298 64.3134 212.032C73.6869 231.164 88.7355 245.63 106.535 253.517C110.889 268.656 118.851 282.467 129.755 293.336C145.25 308.783 165.363 317.294 186.396 317.294C214.189 317.294 240.077 302.303 255.654 277.196L318.873 175.264C336.208 147.314 337.929 111.467 323.382 81.7035C313.963 62.4326 298.787 47.8878 280.841 40.0308C276.469 24.9609 268.535 11.2286 257.676 0.389307C242.172 -15.0472 222.059 -23.5581 201.026 -23.5581Z"/>
</mask>
<path d="M201.026 60.6591C204.187 60.6591 207.284 63.2451 207.284 67.4064V110.932C207.284 114.657 210.053 117.669 213.478 117.669H249.533C254.497 117.669 257.44 123.703 254.67 128.172L191.461 230.094C190.186 232.155 188.282 233.077 186.396 233.077C183.235 233.077 180.138 230.491 180.138 226.329V182.744C180.138 179.019 177.369 176.007 173.944 176.007H138.126C133.171 176.007 130.219 169.983 132.988 165.514L195.961 63.6414C197.236 61.5806 199.149 60.6492 201.035 60.6492M201.026 -23.5581C173.179 -23.5581 147.263 -8.52781 131.695 16.6581L68.7223 118.521C51.442 146.471 49.7568 182.298 64.3134 212.032C73.6869 231.164 88.7355 245.63 106.535 253.517C110.889 268.656 118.851 282.467 129.755 293.336C145.25 308.783 165.363 317.294 186.396 317.294C214.189 317.294 240.077 302.303 255.654 277.196L318.873 175.264C336.208 147.314 337.929 111.467 323.382 81.7035C313.963 62.4326 298.787 47.8878 280.841 40.0308C276.469 24.9609 268.535 11.2286 257.676 0.389307C242.172 -15.0472 222.059 -23.5581 201.026 -23.5581Z" fill="#47C2FF" fill-opacity="0.1"/>
<path d="M254.67 128.172L255.52 128.699L255.52 128.698L254.67 128.172ZM191.461 230.094L190.611 229.567L190.611 229.568L191.461 230.094ZM132.988 165.514L133.838 166.041L133.839 166.04L132.988 165.514ZM195.961 63.6414L195.111 63.1152L195.11 63.1156L195.961 63.6414ZM131.695 16.6581L132.545 17.1839L132.546 17.1839L131.695 16.6581ZM68.7223 118.521L69.5729 119.047L69.5729 119.047L68.7223 118.521ZM64.3134 212.032L63.4153 212.472L63.4154 212.472L64.3134 212.032ZM106.535 253.517L107.496 253.24L107.367 252.791L106.94 252.602L106.535 253.517ZM129.755 293.336L130.461 292.628L130.461 292.628L129.755 293.336ZM255.654 277.196L256.504 277.724L256.504 277.723L255.654 277.196ZM318.873 175.264L318.023 174.737L318.873 175.264ZM323.382 81.7035L322.483 82.1426L323.382 81.7035ZM280.841 40.0308L279.881 40.3095L280.011 40.7591L280.44 40.9469L280.841 40.0308ZM257.676 0.389307L258.383 -0.318419L258.382 -0.31934L257.676 0.389307ZM201.026 61.6591C203.637 61.6591 206.284 63.7996 206.284 67.4064H208.284C208.284 62.6906 204.737 59.6591 201.026 59.6591V61.6591ZM206.284 67.4064V110.932H208.284V67.4064H206.284ZM206.284 110.932C206.284 115.129 209.423 118.669 213.478 118.669V116.669C210.683 116.669 208.284 114.186 208.284 110.932H206.284ZM213.478 118.669H249.533V116.669H213.478V118.669ZM249.533 118.669C251.571 118.669 253.232 119.9 254.103 121.684C254.976 123.47 255.008 125.728 253.82 127.645L255.52 128.698C257.102 126.147 257.048 123.154 255.9 120.806C254.752 118.455 252.459 116.669 249.533 116.669V118.669ZM253.821 127.645L190.611 229.567L192.311 230.621L255.52 128.699L253.821 127.645ZM190.611 229.568C189.516 231.337 187.932 232.077 186.396 232.077V234.077C188.632 234.077 190.856 232.973 192.311 230.62L190.611 229.568ZM186.396 232.077C183.785 232.077 181.138 229.936 181.138 226.329H179.138C179.138 231.045 182.685 234.077 186.396 234.077V232.077ZM181.138 226.329V182.744H179.138V226.329H181.138ZM181.138 182.744C181.138 178.547 177.999 175.007 173.944 175.007V177.007C176.739 177.007 179.138 179.49 179.138 182.744H181.138ZM173.944 175.007H138.126V177.007H173.944V175.007ZM138.126 175.007C136.092 175.007 134.431 173.778 133.559 171.997C132.685 170.213 132.651 167.957 133.838 166.041L132.138 164.988C130.557 167.54 130.614 170.531 131.762 172.876C132.912 175.224 135.204 177.007 138.126 177.007V175.007ZM133.839 166.04L196.812 64.1672L195.11 63.1156L132.138 164.989L133.839 166.04ZM196.811 64.1676C197.907 62.3969 199.501 61.6492 201.035 61.6492V59.6492C198.798 59.6492 196.566 60.7642 195.111 63.1152L196.811 64.1676ZM201.026 -24.5581C172.806 -24.5581 146.58 -9.32593 130.844 16.1323L132.546 17.1839C147.945 -7.72969 173.551 -22.5581 201.026 -22.5581V-24.5581ZM130.844 16.1323L67.8718 117.995L69.5729 119.047L132.545 17.1839L130.844 16.1323ZM67.8718 117.995C50.409 146.241 48.709 182.432 63.4153 212.472L65.2116 211.592C50.8046 182.164 52.475 146.702 69.5729 119.047L67.8718 117.995ZM63.4154 212.472C72.8875 231.806 88.1057 246.445 106.13 254.431L106.94 252.602C89.3652 244.815 74.4863 230.523 65.2115 211.592L63.4154 212.472ZM105.574 253.793C109.973 269.086 118.018 283.049 129.049 294.045L130.461 292.628C119.684 281.886 111.806 268.225 107.496 253.24L105.574 253.793ZM129.049 294.045C144.722 309.669 165.086 318.294 186.396 318.294V316.294C165.639 316.294 145.777 307.896 130.461 292.628L129.049 294.045ZM186.396 318.294C214.56 318.294 240.759 303.102 256.504 277.724L254.804 276.669C239.396 301.504 213.817 316.294 186.396 316.294V318.294ZM256.504 277.723L319.723 175.791L318.023 174.737L254.804 276.669L256.504 277.723ZM319.723 175.791C337.241 147.546 338.977 111.334 324.28 81.2644L322.483 82.1426C336.881 111.6 335.175 147.082 318.023 174.737L319.723 175.791ZM324.28 81.2644C314.762 61.7907 299.415 47.0712 281.242 39.1148L280.44 40.9469C298.159 48.7044 313.163 63.0745 322.483 82.1426L324.28 81.2644ZM281.802 39.7522C277.385 24.5292 269.367 10.6466 258.383 -0.318419L256.97 1.09703C267.702 11.8105 275.553 25.3927 279.881 40.3095L281.802 39.7522ZM258.382 -0.31934C242.699 -15.9338 222.336 -24.5581 201.026 -24.5581V-22.5581C221.783 -22.5581 241.646 -14.1606 256.971 1.09796L258.382 -0.31934Z" fill="url(#paint5_linear_1_15553)" fill-opacity="0.2" mask="url(#path-326-inside-5_1_15553)"/>
</g>
<path d="M212.13 117.533L177.04 176.763C178.955 177.908 180.249 180.111 180.249 182.646V226.106C180.249 232.736 188.186 235.354 191.625 229.861L255.079 128.229C257.868 123.763 254.905 117.756 249.921 117.756H213.727C213.175 117.756 212.64 117.679 212.13 117.533Z" fill="url(#paint6_linear_1_15553)" fill-opacity="0.1"/>
</g>
<path d="M64.1665 139C94.6274 139 142.667 139 142.667 139" stroke="#476CFF" stroke-opacity="0.5" stroke-dasharray="4 4"/>
<path d="M252.167 139C282.627 139 323.167 139 323.167 139" stroke="#476CFF" stroke-opacity="0.5" stroke-dasharray="4 4"/>
<g filter="url(#filter1_bdddddd_1_15553)">
<rect x="45.1665" y="109" width="60" height="60" rx="30" fill="white" fill-opacity="0.72" shape-rendering="crispEdges"/>
<path d="M72.7663 137.8V134.2L78.7663 139L72.7663 143.8V140.2H61.9663V137.8H72.7663ZM63.7159 142.6H66.2647C67.1024 144.663 68.6308 146.371 70.5884 147.431C72.5461 148.492 74.8115 148.839 76.997 148.414C79.1825 147.988 81.1523 146.817 82.5695 145.1C83.9867 143.383 84.7633 141.226 84.7663 139C84.7676 136.771 83.9932 134.611 82.5762 132.891C81.1591 131.171 79.1876 129.997 76.9999 129.571C74.8121 129.146 72.5444 129.494 70.5856 130.558C68.6269 131.621 67.0993 133.333 66.2647 135.4H63.7159C65.2447 130.532 69.7927 127 75.1663 127C81.7939 127 87.1663 132.372 87.1663 139C87.1663 145.628 81.7939 151 75.1663 151C69.7927 151 65.2447 147.468 63.7159 142.6Z" fill="url(#paint7_linear_1_15553)"/>
</g>
<g filter="url(#filter2_bdddddd_1_15553)">
<g clip-path="url(#clip0_1_15553)">
<rect x="283.167" y="109" width="60" height="60" rx="30" fill="white" fill-opacity="0.72" shape-rendering="crispEdges"/>
<g filter="url(#filter3_d_1_15553)">
<path fill-rule="evenodd" clip-rule="evenodd" d="M321.773 124.71L319.951 131.953C319.713 132.899 320.239 133.664 321.128 133.664H327.933C328.821 133.664 329.347 134.429 329.109 135.374L326.855 144.33H318.44C317.552 144.33 317.026 143.565 317.263 142.62L319.085 135.377C319.323 134.431 318.797 133.666 317.909 133.666H311.104C310.216 133.666 309.689 132.902 309.927 131.956L312.182 123H320.596C321.485 123 322.011 123.765 321.773 124.71ZM314.728 141.271L316.489 143.832H316.492C316.715 144.153 316.773 144.587 316.659 145.042L314.151 155H305.737C304.848 155 304.322 154.235 304.56 153.289L306.516 145.516C306.598 145.19 306.549 144.894 306.402 144.68L313.478 141.061C313.969 140.818 314.475 140.904 314.728 141.271ZM306.401 144.679C306.402 144.679 306.402 144.679 306.402 144.68L306.4 144.681L306.401 144.679ZM306.401 144.679C306.254 144.465 306.011 144.333 305.704 144.333H298.4C297.512 144.333 296.986 143.568 297.224 142.623L299.476 133.67H308.832C309.257 133.67 309.621 133.85 309.841 134.171L311.674 136.834C311.929 137.209 311.861 137.783 311.506 138.243L306.401 144.679Z" fill="url(#paint8_linear_1_15553)"/>
</g>
</g>
</g>
<defs>
<filter id="filter0_dddddd_1_15553" x="119.741" y="59.9009" width="148.186" height="208.934" filterUnits="userSpaceOnUse" color-interpolation-filters="sRGB">
<feFlood flood-opacity="0" result="BackgroundImageFix"/>
<feColorMatrix in="SourceAlpha" type="matrix" values="0 0 0 0 0 0 0 0 0 0 0 0 0 0 0 0 0 0 127 0" result="hardAlpha"/>
<feMorphology radius="12" operator="erode" in="SourceAlpha" result="effect1_dropShadow_1_15553"/>
<feOffset dy="24"/>
<feGaussianBlur stdDeviation="12"/>
<feComposite in2="hardAlpha" operator="out"/>
<feColorMatrix type="matrix" values="0 0 0 0 0.054902 0 0 0 0 0.247059 0 0 0 0 0.494118 0 0 0 0.04 0"/>
<feBlend mode="normal" in2="BackgroundImageFix" result="effect1_dropShadow_1_15553"/>
<feColorMatrix in="SourceAlpha" type="matrix" values="0 0 0 0 0 0 0 0 0 0 0 0 0 0 0 0 0 0 127 0" result="hardAlpha"/>
<feMorphology radius="6" operator="erode" in="SourceAlpha" result="effect2_dropShadow_1_15553"/>
<feOffset dy="12"/>
<feGaussianBlur stdDeviation="6"/>
<feComposite in2="hardAlpha" operator="out"/>
<feColorMatrix type="matrix" values="0 0 0 0 0.054902 0 0 0 0 0.247059 0 0 0 0 0.494118 0 0 0 0.04 0"/>
<feBlend mode="normal" in2="effect1_dropShadow_1_15553" result="effect2_dropShadow_1_15553"/>
<feColorMatrix in="SourceAlpha" type="matrix" values="0 0 0 0 0 0 0 0 0 0 0 0 0 0 0 0 0 0 127 0" result="hardAlpha"/>
<feMorphology radius="3" operator="erode" in="SourceAlpha" result="effect3_dropShadow_1_15553"/>
<feOffset dy="6"/>
<feGaussianBlur stdDeviation="3"/>
<feComposite in2="hardAlpha" operator="out"/>
<feColorMatrix type="matrix" values="0 0 0 0 0.164706 0 0 0 0 0.2 0 0 0 0 0.27451 0 0 0 0.04 0"/>
<feBlend mode="normal" in2="effect2_dropShadow_1_15553" result="effect3_dropShadow_1_15553"/>
<feColorMatrix in="SourceAlpha" type="matrix" values="0 0 0 0 0 0 0 0 0 0 0 0 0 0 0 0 0 0 127 0" result="hardAlpha"/>
<feMorphology radius="1.5" operator="erode" in="SourceAlpha" result="effect4_dropShadow_1_15553"/>
<feOffset dy="3"/>
<feGaussianBlur stdDeviation="1.5"/>
<feComposite in2="hardAlpha" operator="out"/>
<feColorMatrix type="matrix" values="0 0 0 0 0.164706 0 0 0 0 0.2 0 0 0 0 0.27451 0 0 0 0.04 0"/>
<feBlend mode="normal" in2="effect3_dropShadow_1_15553" result="effect4_dropShadow_1_15553"/>
<feColorMatrix in="SourceAlpha" type="matrix" values="0 0 0 0 0 0 0 0 0 0 0 0 0 0 0 0 0 0 127 0" result="hardAlpha"/>
<feMorphology radius="0.5" operator="erode" in="SourceAlpha" result="effect5_dropShadow_1_15553"/>
<feOffset dy="1"/>
<feGaussianBlur stdDeviation="0.5"/>
<feComposite in2="hardAlpha" operator="out"/>
<feColorMatrix type="matrix" values="0 0 0 0 0.164706 0 0 0 0 0.2 0 0 0 0 0.270588 0 0 0 0.04 0"/>
<feBlend mode="normal" in2="effect4_dropShadow_1_15553" result="effect5_dropShadow_1_15553"/>
<feColorMatrix in="SourceAlpha" type="matrix" values="0 0 0 0 0 0 0 0 0 0 0 0 0 0 0 0 0 0 127 0" result="hardAlpha"/>
<feMorphology radius="1" operator="dilate" in="SourceAlpha" result="effect6_dropShadow_1_15553"/>
<feOffset/>
<feComposite in2="hardAlpha" operator="out"/>
<feColorMatrix type="matrix" values="0 0 0 0 0.054902 0 0 0 0 0.247059 0 0 0 0 0.494118 0 0 0 0.04 0"/>
<feBlend mode="normal" in2="effect5_dropShadow_1_15553" result="effect6_dropShadow_1_15553"/>
<feBlend mode="normal" in="SourceGraphic" in2="effect6_dropShadow_1_15553" result="shape"/>
</filter>
<filter id="filter1_bdddddd_1_15553" x="33.1665" y="99" width="84" height="106" filterUnits="userSpaceOnUse" color-interpolation-filters="sRGB">
<feFlood flood-opacity="0" result="BackgroundImageFix"/>
<feGaussianBlur in="BackgroundImageFix" stdDeviation="5"/>
<feComposite in2="SourceAlpha" operator="in" result="effect1_backgroundBlur_1_15553"/>
<feColorMatrix in="SourceAlpha" type="matrix" values="0 0 0 0 0 0 0 0 0 0 0 0 0 0 0 0 0 0 127 0" result="hardAlpha"/>
<feMorphology radius="12" operator="erode" in="SourceAlpha" result="effect2_dropShadow_1_15553"/>
<feOffset dy="24"/>
<feGaussianBlur stdDeviation="12"/>
<feComposite in2="hardAlpha" operator="out"/>
<feColorMatrix type="matrix" values="0 0 0 0 0.054902 0 0 0 0 0.247059 0 0 0 0 0.494118 0 0 0 0.04 0"/>
<feBlend mode="normal" in2="effect1_backgroundBlur_1_15553" result="effect2_dropShadow_1_15553"/>
<feColorMatrix in="SourceAlpha" type="matrix" values="0 0 0 0 0 0 0 0 0 0 0 0 0 0 0 0 0 0 127 0" result="hardAlpha"/>
<feMorphology radius="6" operator="erode" in="SourceAlpha" result="effect3_dropShadow_1_15553"/>
<feOffset dy="12"/>
<feGaussianBlur stdDeviation="6"/>
<feComposite in2="hardAlpha" operator="out"/>
<feColorMatrix type="matrix" values="0 0 0 0 0.054902 0 0 0 0 0.247059 0 0 0 0 0.494118 0 0 0 0.04 0"/>
<feBlend mode="normal" in2="effect2_dropShadow_1_15553" result="effect3_dropShadow_1_15553"/>
<feColorMatrix in="SourceAlpha" type="matrix" values="0 0 0 0 0 0 0 0 0 0 0 0 0 0 0 0 0 0 127 0" result="hardAlpha"/>
<feMorphology radius="3" operator="erode" in="SourceAlpha" result="effect4_dropShadow_1_15553"/>
<feOffset dy="6"/>
<feGaussianBlur stdDeviation="3"/>
<feComposite in2="hardAlpha" operator="out"/>
<feColorMatrix type="matrix" values="0 0 0 0 0.164706 0 0 0 0 0.2 0 0 0 0 0.27451 0 0 0 0.04 0"/>
<feBlend mode="normal" in2="effect3_dropShadow_1_15553" result="effect4_dropShadow_1_15553"/>
<feColorMatrix in="SourceAlpha" type="matrix" values="0 0 0 0 0 0 0 0 0 0 0 0 0 0 0 0 0 0 127 0" result="hardAlpha"/>
<feMorphology radius="1.5" operator="erode" in="SourceAlpha" result="effect5_dropShadow_1_15553"/>
<feOffset dy="3"/>
<feGaussianBlur stdDeviation="1.5"/>
<feComposite in2="hardAlpha" operator="out"/>
<feColorMatrix type="matrix" values="0 0 0 0 0.164706 0 0 0 0 0.2 0 0 0 0 0.27451 0 0 0 0.04 0"/>
<feBlend mode="normal" in2="effect4_dropShadow_1_15553" result="effect5_dropShadow_1_15553"/>
<feColorMatrix in="SourceAlpha" type="matrix" values="0 0 0 0 0 0 0 0 0 0 0 0 0 0 0 0 0 0 127 0" result="hardAlpha"/>
<feMorphology radius="0.5" operator="erode" in="SourceAlpha" result="effect6_dropShadow_1_15553"/>
<feOffset dy="1"/>
<feGaussianBlur stdDeviation="0.5"/>
<feComposite in2="hardAlpha" operator="out"/>
<feColorMatrix type="matrix" values="0 0 0 0 0.164706 0 0 0 0 0.2 0 0 0 0 0.270588 0 0 0 0.04 0"/>
<feBlend mode="normal" in2="effect5_dropShadow_1_15553" result="effect6_dropShadow_1_15553"/>
<feColorMatrix in="SourceAlpha" type="matrix" values="0 0 0 0 0 0 0 0 0 0 0 0 0 0 0 0 0 0 127 0" result="hardAlpha"/>
<feMorphology radius="1" operator="dilate" in="SourceAlpha" result="effect7_dropShadow_1_15553"/>
<feOffset/>
<feComposite in2="hardAlpha" operator="out"/>
<feColorMatrix type="matrix" values="0 0 0 0 0.054902 0 0 0 0 0.247059 0 0 0 0 0.494118 0 0 0 0.04 0"/>
<feBlend mode="normal" in2="effect6_dropShadow_1_15553" result="effect7_dropShadow_1_15553"/>
<feBlend mode="normal" in="SourceGraphic" in2="effect7_dropShadow_1_15553" result="shape"/>
</filter>
<filter id="filter2_bdddddd_1_15553" x="271.167" y="99" width="84" height="106" filterUnits="userSpaceOnUse" color-interpolation-filters="sRGB">
<feFlood flood-opacity="0" result="BackgroundImageFix"/>
<feGaussianBlur in="BackgroundImageFix" stdDeviation="5"/>
<feComposite in2="SourceAlpha" operator="in" result="effect1_backgroundBlur_1_15553"/>
<feColorMatrix in="SourceAlpha" type="matrix" values="0 0 0 0 0 0 0 0 0 0 0 0 0 0 0 0 0 0 127 0" result="hardAlpha"/>
<feMorphology radius="12" operator="erode" in="SourceAlpha" result="effect2_dropShadow_1_15553"/>
<feOffset dy="24"/>
<feGaussianBlur stdDeviation="12"/>
<feComposite in2="hardAlpha" operator="out"/>
<feColorMatrix type="matrix" values="0 0 0 0 0.054902 0 0 0 0 0.247059 0 0 0 0 0.494118 0 0 0 0.04 0"/>
<feBlend mode="normal" in2="effect1_backgroundBlur_1_15553" result="effect2_dropShadow_1_15553"/>
<feColorMatrix in="SourceAlpha" type="matrix" values="0 0 0 0 0 0 0 0 0 0 0 0 0 0 0 0 0 0 127 0" result="hardAlpha"/>
<feMorphology radius="6" operator="erode" in="SourceAlpha" result="effect3_dropShadow_1_15553"/>
<feOffset dy="12"/>
<feGaussianBlur stdDeviation="6"/>
<feComposite in2="hardAlpha" operator="out"/>
<feColorMatrix type="matrix" values="0 0 0 0 0.054902 0 0 0 0 0.247059 0 0 0 0 0.494118 0 0 0 0.04 0"/>
<feBlend mode="normal" in2="effect2_dropShadow_1_15553" result="effect3_dropShadow_1_15553"/>
<feColorMatrix in="SourceAlpha" type="matrix" values="0 0 0 0 0 0 0 0 0 0 0 0 0 0 0 0 0 0 127 0" result="hardAlpha"/>
<feMorphology radius="3" operator="erode" in="SourceAlpha" result="effect4_dropShadow_1_15553"/>
<feOffset dy="6"/>
<feGaussianBlur stdDeviation="3"/>
<feComposite in2="hardAlpha" operator="out"/>
<feColorMatrix type="matrix" values="0 0 0 0 0.164706 0 0 0 0 0.2 0 0 0 0 0.27451 0 0 0 0.04 0"/>
<feBlend mode="normal" in2="effect3_dropShadow_1_15553" result="effect4_dropShadow_1_15553"/>
<feColorMatrix in="SourceAlpha" type="matrix" values="0 0 0 0 0 0 0 0 0 0 0 0 0 0 0 0 0 0 127 0" result="hardAlpha"/>
<feMorphology radius="1.5" operator="erode" in="SourceAlpha" result="effect5_dropShadow_1_15553"/>
<feOffset dy="3"/>
<feGaussianBlur stdDeviation="1.5"/>
<feComposite in2="hardAlpha" operator="out"/>
<feColorMatrix type="matrix" values="0 0 0 0 0.164706 0 0 0 0 0.2 0 0 0 0 0.27451 0 0 0 0.04 0"/>
<feBlend mode="normal" in2="effect4_dropShadow_1_15553" result="effect5_dropShadow_1_15553"/>
<feColorMatrix in="SourceAlpha" type="matrix" values="0 0 0 0 0 0 0 0 0 0 0 0 0 0 0 0 0 0 127 0" result="hardAlpha"/>
<feMorphology radius="0.5" operator="erode" in="SourceAlpha" result="effect6_dropShadow_1_15553"/>
<feOffset dy="1"/>
<feGaussianBlur stdDeviation="0.5"/>
<feComposite in2="hardAlpha" operator="out"/>
<feColorMatrix type="matrix" values="0 0 0 0 0.164706 0 0 0 0 0.2 0 0 0 0 0.270588 0 0 0 0.04 0"/>
<feBlend mode="normal" in2="effect5_dropShadow_1_15553" result="effect6_dropShadow_1_15553"/>
<feColorMatrix in="SourceAlpha" type="matrix" values="0 0 0 0 0 0 0 0 0 0 0 0 0 0 0 0 0 0 127 0" result="hardAlpha"/>
<feMorphology radius="1" operator="dilate" in="SourceAlpha" result="effect7_dropShadow_1_15553"/>
<feOffset/>
<feComposite in2="hardAlpha" operator="out"/>
<feColorMatrix type="matrix" values="0 0 0 0 0.054902 0 0 0 0 0.247059 0 0 0 0 0.494118 0 0 0 0.04 0"/>
<feBlend mode="normal" in2="effect6_dropShadow_1_15553" result="effect7_dropShadow_1_15553"/>
<feBlend mode="normal" in="SourceGraphic" in2="effect7_dropShadow_1_15553" result="shape"/>
</filter>
<filter id="filter3_d_1_15553" x="277.167" y="119" width="72" height="72" filterUnits="userSpaceOnUse" color-interpolation-filters="sRGB">
<feFlood flood-opacity="0" result="BackgroundImageFix"/>
<feColorMatrix in="SourceAlpha" type="matrix" values="0 0 0 0 0 0 0 0 0 0 0 0 0 0 0 0 0 0 127 0" result="hardAlpha"/>
<feMorphology radius="12" operator="erode" in="SourceAlpha" result="effect1_dropShadow_1_15553"/>
<feOffset dy="16"/>
<feGaussianBlur stdDeviation="16"/>
<feColorMatrix type="matrix" values="0 0 0 0 0.0533333 0 0 0 0 0.0693333 0 0 0 0 0.106667 0 0 0 0.1 0"/>
<feBlend mode="normal" in2="BackgroundImageFix" result="effect1_dropShadow_1_15553"/>
<feBlend mode="normal" in="SourceGraphic" in2="effect1_dropShadow_1_15553" result="shape"/>
</filter>
<radialGradient id="paint0_radial_1_15553" cx="0" cy="0" r="1" gradientUnits="userSpaceOnUse" gradientTransform="translate(194 162.5) scale(123.611 211.002)">
<stop/>
<stop offset="1" stop-color="white" stop-opacity="0"/>
</radialGradient>
<linearGradient id="paint1_linear_1_15553" x1="193.834" y1="50.8467" x2="193.834" y2="242.89" gradientUnits="userSpaceOnUse">
<stop stop-color="#476CFF"/>
<stop offset="1" stop-color="#2B4199" stop-opacity="0"/>
</linearGradient>
<linearGradient id="paint2_linear_1_15553" x1="193.834" y1="35.7646" x2="193.834" y2="257.972" gradientUnits="userSpaceOnUse">
<stop stop-color="#476CFF"/>
<stop offset="1" stop-color="#2B4199" stop-opacity="0"/>
</linearGradient>
<linearGradient id="paint3_linear_1_15553" x1="194.293" y1="20.6826" x2="194.293" y2="273.054" gradientUnits="userSpaceOnUse">
<stop stop-color="#476CFF"/>
<stop offset="1" stop-color="#2B4199" stop-opacity="0"/>
</linearGradient>
<linearGradient id="paint4_linear_1_15553" x1="194.753" y1="0.572754" x2="194.753" y2="293.162" gradientUnits="userSpaceOnUse">
<stop stop-color="#476CFF"/>
<stop offset="1" stop-color="#2B4199" stop-opacity="0"/>
</linearGradient>
<linearGradient id="paint5_linear_1_15553" x1="193.833" y1="-23.5581" x2="193.833" y2="317.294" gradientUnits="userSpaceOnUse">
<stop stop-color="#476CFF"/>
<stop offset="1" stop-color="#2B4199" stop-opacity="0"/>
</linearGradient>
<linearGradient id="paint6_linear_1_15553" x1="195.667" y1="142.5" x2="230.667" y2="165" gradientUnits="userSpaceOnUse">
<stop stop-color="#476CFF"/>
<stop offset="0.667339" stop-color="#2B4199" stop-opacity="0"/>
</linearGradient>
<linearGradient id="paint7_linear_1_15553" x1="74.5663" y1="127" x2="74.5663" y2="151" gradientUnits="userSpaceOnUse">
<stop stop-color="#1BB3F3"/>
<stop offset="1" stop-color="#186CE6"/>
</linearGradient>
<linearGradient id="paint8_linear_1_15553" x1="313.166" y1="123" x2="313.166" y2="155" gradientUnits="userSpaceOnUse">
<stop stop-color="#1BB3F3"/>
<stop offset="1" stop-color="#186CE6"/>
</linearGradient>
<clipPath id="clip0_1_15553">
<rect x="283.167" y="109" width="60" height="60" rx="30" fill="white"/>
</clipPath>
</defs>
</svg>
