<svg width="376" height="372" viewBox="0 0 376 372" fill="none" xmlns="http://www.w3.org/2000/svg">
<mask id="mask0_1_15765" style="mask-type:alpha" maskUnits="userSpaceOnUse" x="-17" y="-38" width="411" height="410">
<rect x="-16.8335" y="-38" width="410" height="410" rx="205" fill="url(#paint0_radial_1_15765)"/>
</mask>
<g mask="url(#mask0_1_15765)">
<g filter="url(#filter0_dddddd_1_15765)">
<path d="M80.6665 81.5C92.4389 90.6976 120.825 113.539 120.825 113.539" stroke="#335CFF" stroke-opacity="0.5" stroke-dasharray="3 3"/>
<path d="M259.508 74.5176C250.31 86.29 235.805 104.856 235.805 104.856" stroke="#335CFF" stroke-opacity="0.5" stroke-dasharray="3 3"/>
<path d="M134.735 205.559C123.809 215.747 106.578 231.816 106.578 231.816" stroke="#335CFF" stroke-opacity="0.5" stroke-dasharray="3 3"/>
<path d="M267.406 165.687C282.346 165.687 305.906 165.687 305.906 165.687" stroke="#335CFF" stroke-opacity="0.5" stroke-dasharray="3 3"/>
<g opacity="0.2">
<path d="M187.606 86.2172C232.466 86.2172 268.829 122.581 268.829 167.44C268.829 212.299 232.466 248.663 187.606 248.663C142.747 248.663 106.384 212.299 106.384 167.44C106.384 122.581 142.747 86.2172 187.606 86.2172ZM187.606 77.2363C137.871 77.2363 97.4028 117.704 97.4028 167.44C97.4028 217.176 137.871 257.644 187.606 257.644C237.342 257.644 277.81 217.176 277.81 167.44C277.81 117.704 237.342 77.2363 187.606 77.2363Z" fill="#476CFF" fill-opacity="0.1"/>
<path d="M269.329 167.44C269.329 122.304 232.742 85.7172 187.606 85.7172C142.471 85.7172 105.884 122.304 105.884 167.44C105.884 212.575 142.471 249.163 187.606 249.163C232.742 249.163 269.329 212.575 269.329 167.44ZM97.9028 167.44C97.9028 117.98 138.147 77.7363 187.606 77.7363C237.066 77.7363 277.31 117.98 277.31 167.44C277.31 216.9 237.066 257.144 187.606 257.144C138.147 257.144 97.9028 216.9 97.9028 167.44Z" stroke="url(#paint1_linear_1_15765)" stroke-opacity="0.2"/>
</g>
<g opacity="0.2">
<path d="M187.606 86.2171C232.466 86.2171 268.829 122.581 268.829 167.44C268.829 212.299 232.466 248.663 187.606 248.663C142.747 248.663 106.384 212.299 106.384 167.44C106.384 122.581 142.747 86.2171 187.606 86.2171ZM187.606 9.87988C166.367 9.87988 145.729 14.056 126.249 22.2914C107.479 30.2305 90.6312 41.5823 76.19 56.0235C61.7488 70.4737 50.397 87.3128 42.4579 106.083C34.2225 125.562 30.0464 146.209 30.0464 167.44C30.0464 188.671 34.2225 209.318 42.4579 228.797C50.397 247.567 61.7488 264.415 76.19 278.856C90.6312 293.297 107.479 304.649 126.249 312.588C145.72 320.824 166.367 325 187.606 325C208.846 325 229.484 320.824 248.964 312.588C267.733 304.649 284.582 293.297 299.023 278.856C313.473 264.415 324.816 247.567 332.755 228.797C340.99 209.327 345.166 188.68 345.166 167.44C345.166 146.2 340.99 125.562 332.755 106.083C324.816 87.3128 313.464 70.4647 299.023 56.0235C284.582 41.5823 267.733 30.2305 248.964 22.2914C229.484 14.056 208.846 9.87988 187.606 9.87988Z" fill="#476CFF" fill-opacity="0.1"/>
<path d="M299.023 278.856L298.669 278.503C313.074 264.107 324.38 247.313 332.294 228.602C340.504 209.194 344.666 188.613 344.666 167.44C344.666 146.267 340.504 125.695 332.294 106.277C324.38 87.567 313.065 70.7728 298.669 56.377C284.273 41.9813 267.479 30.6659 248.769 22.7519C229.351 14.5427 208.779 10.3799 187.606 10.3799C166.433 10.3799 145.862 14.5426 126.444 22.7519C107.734 30.6658 90.9394 41.9812 76.5436 56.3769C76.5436 56.377 76.5436 56.377 76.5435 56.377M299.023 278.856L76.5435 56.377M299.023 278.856L298.669 278.503C284.273 292.898 267.479 304.214 248.769 312.128C229.351 320.337 208.779 324.5 187.606 324.5C166.433 324.5 145.853 320.337 126.444 312.128C107.733 304.214 90.9393 292.898 76.5435 278.503C62.1478 264.107 50.8324 247.313 42.9185 228.602C34.7092 209.185 30.5464 188.604 30.5464 167.44C30.5464 146.276 34.7092 125.695 42.9184 106.278M299.023 278.856L42.9184 106.278M76.5435 56.377C62.1477 70.7819 50.8323 87.5671 42.9184 106.278M76.5435 56.377L42.9184 106.278M269.329 167.44C269.329 122.304 232.742 85.7171 187.606 85.7171C142.471 85.7171 105.884 122.304 105.884 167.44C105.884 212.575 142.471 249.163 187.606 249.163C232.742 249.163 269.329 212.575 269.329 167.44Z" stroke="url(#paint2_linear_1_15765)" stroke-opacity="0.2"/>
</g>
<g opacity="0.2">
<path d="M187.607 86.2171C232.466 86.2171 268.829 122.581 268.829 167.44C268.829 212.299 232.466 248.663 187.607 248.663C142.747 248.663 106.384 212.299 106.384 167.44C106.384 122.581 142.747 86.2171 187.607 86.2171ZM187.607 32.332C169.393 32.332 151.692 35.9154 134.997 42.9743C118.903 49.7818 104.462 59.5171 92.0683 71.9106C79.6748 84.3042 69.9395 98.7454 63.1321 114.839C56.0731 131.534 52.4897 149.227 52.4897 167.449C52.4897 185.671 56.0731 203.363 63.1321 220.059C69.9395 236.152 79.6748 250.594 92.0683 262.987C104.462 275.381 118.903 285.116 134.997 291.923C151.692 298.982 169.384 302.566 187.607 302.566C205.829 302.566 223.521 298.982 240.216 291.923C256.31 285.116 270.751 275.381 283.145 262.987C295.538 250.594 305.274 236.152 312.081 220.059C319.14 203.363 322.723 185.671 322.723 167.449C322.723 149.227 319.14 131.534 312.081 114.839C305.274 98.7454 295.538 84.3042 283.145 71.9106C270.751 59.5171 256.31 49.7818 240.216 42.9743C223.521 35.9154 205.829 32.332 187.607 32.332Z" fill="#476CFF" fill-opacity="0.1"/>
<path d="M269.329 167.44C269.329 122.304 232.742 85.7171 187.607 85.7171C142.471 85.7171 105.884 122.304 105.884 167.44C105.884 212.575 142.471 249.163 187.607 249.163C232.742 249.163 269.329 212.575 269.329 167.44ZM92.4219 72.2642C104.77 59.916 119.157 50.2172 135.192 43.4349C151.825 36.4021 169.46 32.832 187.607 32.832C205.762 32.832 223.388 36.4021 240.022 43.4348C256.056 50.2171 270.443 59.916 282.791 72.2642C295.139 84.6124 304.838 98.9997 311.621 115.034C318.653 131.667 322.223 149.293 322.223 167.449C322.223 185.604 318.653 203.23 311.621 219.864C304.838 235.898 295.139 250.285 282.791 262.634C270.443 274.982 256.056 284.681 240.022 291.463C223.388 298.496 205.762 302.066 187.607 302.066C169.451 302.066 151.825 298.496 135.192 291.463C119.157 284.681 104.77 274.982 92.4219 262.634C80.0737 250.285 70.3749 235.898 63.5926 219.864C56.5598 203.23 52.9897 185.604 52.9897 167.449C52.9897 149.293 56.5598 131.667 63.5926 115.034C70.3749 98.9997 80.0737 84.6123 92.4219 72.2642Z" stroke="url(#paint3_linear_1_15765)" stroke-opacity="0.2"/>
</g>
<g opacity="0.2">
<path d="M187.607 86.2173C232.466 86.2173 268.829 122.581 268.829 167.44C268.829 212.299 232.466 248.663 187.607 248.663C142.747 248.663 106.384 212.299 106.384 167.44C106.384 122.581 142.747 86.2173 187.607 86.2173ZM187.607 50.2939C156.317 50.2939 126.896 62.481 104.767 84.6098C82.6384 106.739 70.4514 136.151 70.4514 167.449C70.4514 198.747 82.6384 228.16 104.767 250.288C126.896 272.417 156.308 284.604 187.607 284.604C218.905 284.604 248.317 272.417 270.446 250.288C292.575 228.16 304.762 198.747 304.762 167.449C304.762 136.151 292.575 106.739 270.446 84.6098C248.317 62.481 218.905 50.2939 187.607 50.2939Z" fill="#476CFF" fill-opacity="0.1"/>
<path d="M269.329 167.44C269.329 122.305 232.742 85.7173 187.607 85.7173C142.471 85.7173 105.884 122.305 105.884 167.44C105.884 212.576 142.471 249.163 187.607 249.163C232.742 249.163 269.329 212.576 269.329 167.44ZM105.121 84.9633C127.156 62.9283 156.45 50.7939 187.607 50.7939C218.772 50.7939 248.057 62.9283 270.092 84.9633C292.127 106.998 304.262 136.284 304.262 167.449C304.262 198.615 292.127 227.9 270.092 249.935C248.057 271.97 218.772 284.104 187.607 284.104C156.441 284.104 127.156 271.97 105.121 249.935C83.0857 227.9 70.9514 198.615 70.9514 167.449C70.9514 136.284 83.0857 106.998 105.121 84.9633Z" stroke="url(#paint4_linear_1_15765)" stroke-opacity="0.2"/>
</g>
<g opacity="0.2">
<path d="M187.606 86.2171C232.466 86.2171 268.829 122.581 268.829 167.44C268.829 212.299 232.466 248.663 187.606 248.663C142.747 248.663 106.384 212.299 106.384 167.44C106.384 122.581 142.747 86.2171 187.606 86.2171ZM187.606 64.6631C160.152 64.6631 134.341 75.3503 114.933 94.7669C95.5168 114.183 84.8296 139.985 84.8296 167.44C84.8296 194.894 95.5168 220.705 114.933 240.113C134.35 259.521 160.152 270.217 187.606 270.217C215.061 270.217 240.872 259.53 260.279 240.113C279.696 220.696 290.383 194.894 290.383 167.44C290.383 139.985 279.696 114.174 260.279 94.7669C240.863 75.3503 215.061 64.6631 187.606 64.6631Z" fill="#476CFF" fill-opacity="0.1"/>
<path d="M115.287 95.1204L115.287 95.1204C134.601 75.7977 160.285 65.1631 187.606 65.1631C214.928 65.1631 240.603 75.7976 259.926 95.1204L260.279 94.7669L259.926 95.1205C279.249 114.434 289.883 140.118 289.883 167.44C289.883 194.762 279.249 220.437 259.926 239.759L259.926 239.759C240.612 259.082 214.928 269.717 187.606 269.717C160.285 269.717 134.61 259.073 115.287 239.759C95.9642 220.445 85.3296 194.762 85.3296 167.44C85.3296 140.118 95.9641 114.443 115.287 95.1204ZM269.329 167.44C269.329 122.304 232.742 85.7171 187.606 85.7171C142.471 85.7171 105.884 122.304 105.884 167.44C105.884 212.575 142.471 249.163 187.606 249.163C232.742 249.163 269.329 212.575 269.329 167.44Z" stroke="url(#paint5_linear_1_15765)" stroke-opacity="0.2"/>
</g>
<g filter="url(#filter1_dddddd_1_15765)">
<path d="M187.606 249.12C232.651 249.12 269.166 212.604 269.166 167.56C269.166 122.516 232.651 86 187.606 86C142.562 86 106.046 122.516 106.046 167.56C106.046 212.604 142.562 249.12 187.606 249.12Z" fill="white"/>
</g>
<path opacity="0.9" d="M161.167 205.672H170.767V196.072H161.167V205.672ZM172.399 205.672H181.999V196.072H172.399V205.672ZM183.631 205.672H193.231V196.072H183.631V205.672ZM194.863 205.672H204.463V196.072H194.863V205.672ZM206.095 205.672H215.695V196.072H206.095V205.672Z" fill="#0E121B"/>
<g filter="url(#filter2_dddddd_1_15765)">
<mask id="path-18-outside-1_1_15765" maskUnits="userSpaceOnUse" x="140.24" y="149.799" width="87" height="38" fill="black">
<rect fill="white" x="140.24" y="149.799" width="87" height="38"/>
<path d="M153.976 186.359C145.965 186.359 141.084 181.128 141.084 174.495H147.063C147.063 178.676 149.749 181.385 153.906 181.385C157.853 181.385 160.562 178.746 160.562 174.939C160.562 171.086 157.666 168.797 152.995 168.797H148.394V164.757L157.362 156.163V156.116H143.163V151.001H164.836V155.976L155.05 165.224C162.664 165.13 166.564 169.288 166.564 175.079C166.564 181.689 161.496 186.359 153.976 186.359ZM183.017 186.359C174.61 186.359 169.448 179.447 169.448 168.423C169.448 157.377 174.61 150.441 183.017 150.441C191.425 150.441 196.586 157.354 196.586 168.423C196.586 179.447 191.425 186.359 183.017 186.359ZM183.017 181.268C187.828 181.268 190.747 176.41 190.747 168.423C190.747 160.39 187.828 155.532 183.017 155.532C178.23 155.532 175.287 160.39 175.287 168.423C175.287 176.41 178.23 181.268 183.017 181.268ZM213.039 186.359C204.632 186.359 199.471 179.447 199.471 168.423C199.471 157.377 204.632 150.441 213.039 150.441C221.447 150.441 226.608 157.354 226.608 168.423C226.608 179.447 221.447 186.359 213.039 186.359ZM213.039 181.268C217.85 181.268 220.769 176.41 220.769 168.423C220.769 160.39 217.85 155.532 213.039 155.532C208.252 155.532 205.309 160.39 205.309 168.423C205.309 176.41 208.252 181.268 213.039 181.268Z"/>
</mask>
<path d="M153.976 186.359C145.965 186.359 141.084 181.128 141.084 174.495H147.063C147.063 178.676 149.749 181.385 153.906 181.385C157.853 181.385 160.562 178.746 160.562 174.939C160.562 171.086 157.666 168.797 152.995 168.797H148.394V164.757L157.362 156.163V156.116H143.163V151.001H164.836V155.976L155.05 165.224C162.664 165.13 166.564 169.288 166.564 175.079C166.564 181.689 161.496 186.359 153.976 186.359ZM183.017 186.359C174.61 186.359 169.448 179.447 169.448 168.423C169.448 157.377 174.61 150.441 183.017 150.441C191.425 150.441 196.586 157.354 196.586 168.423C196.586 179.447 191.425 186.359 183.017 186.359ZM183.017 181.268C187.828 181.268 190.747 176.41 190.747 168.423C190.747 160.39 187.828 155.532 183.017 155.532C178.23 155.532 175.287 160.39 175.287 168.423C175.287 176.41 178.23 181.268 183.017 181.268ZM213.039 186.359C204.632 186.359 199.471 179.447 199.471 168.423C199.471 157.377 204.632 150.441 213.039 150.441C221.447 150.441 226.608 157.354 226.608 168.423C226.608 179.447 221.447 186.359 213.039 186.359ZM213.039 181.268C217.85 181.268 220.769 176.41 220.769 168.423C220.769 160.39 217.85 155.532 213.039 155.532C208.252 155.532 205.309 160.39 205.309 168.423C205.309 176.41 208.252 181.268 213.039 181.268Z" fill="url(#paint6_linear_1_15765)" shape-rendering="crispEdges"/>
<path d="M141.084 174.495V173.995H140.584V174.495H141.084ZM147.063 174.495H147.563V173.995H147.063V174.495ZM148.394 168.797H147.894V169.297H148.394V168.797ZM148.394 164.757L148.048 164.396L147.894 164.543V164.757H148.394ZM157.362 156.163L157.708 156.524L157.862 156.376V156.163H157.362ZM157.362 156.116H157.862V155.616H157.362V156.116ZM143.163 156.116H142.663V156.616H143.163V156.116ZM143.163 151.001V150.501H142.663V151.001H143.163ZM164.836 151.001H165.336V150.501H164.836V151.001ZM164.836 155.976L165.179 156.339L165.336 156.191V155.976H164.836ZM155.05 165.224L154.707 164.861L153.777 165.74L155.056 165.724L155.05 165.224ZM153.976 185.859C150.082 185.859 146.989 184.59 144.873 182.554C142.756 180.518 141.584 177.686 141.584 174.495H140.584C140.584 177.938 141.853 181.037 144.18 183.275C146.507 185.513 149.859 186.859 153.976 186.859V185.859ZM141.084 174.995H147.063V173.995H141.084V174.995ZM146.563 174.495C146.563 176.694 147.272 178.551 148.571 179.86C149.87 181.169 151.716 181.885 153.906 181.885V180.885C151.938 180.885 150.363 180.246 149.28 179.156C148.198 178.065 147.563 176.477 147.563 174.495H146.563ZM153.906 181.885C155.993 181.885 157.787 181.186 159.062 179.948C160.338 178.71 161.062 176.965 161.062 174.939H160.062C160.062 176.72 159.431 178.198 158.366 179.231C157.3 180.265 155.766 180.885 153.906 180.885V181.885ZM161.062 174.939C161.062 172.875 160.28 171.191 158.844 170.034C157.421 168.887 155.406 168.297 152.995 168.297V169.297C155.255 169.297 157.023 169.851 158.216 170.812C159.396 171.763 160.062 173.149 160.062 174.939H161.062ZM152.995 168.297H148.394V169.297H152.995V168.297ZM148.894 168.797V164.757H147.894V168.797H148.894ZM148.74 165.118L157.708 156.524L157.016 155.802L148.048 164.396L148.74 165.118ZM157.862 156.163V156.116H156.862V156.163H157.862ZM157.362 155.616H143.163V156.616H157.362V155.616ZM143.663 156.116V151.001H142.663V156.116H143.663ZM143.163 151.501H164.836V150.501H143.163V151.501ZM164.336 151.001V155.976H165.336V151.001H164.336ZM164.492 155.612L154.707 164.861L155.394 165.587L165.179 156.339L164.492 155.612ZM155.056 165.724C158.773 165.678 161.517 166.67 163.326 168.315C165.131 169.956 166.064 172.299 166.064 175.079H167.064C167.064 172.068 166.047 169.437 163.998 167.575C161.954 165.716 158.941 164.676 155.044 164.724L155.056 165.724ZM166.064 175.079C166.064 178.249 164.852 180.932 162.755 182.827C160.654 184.725 157.633 185.859 153.976 185.859V186.859C157.839 186.859 161.112 185.659 163.425 183.569C165.742 181.476 167.064 178.519 167.064 175.079H166.064ZM183.017 185.859C178.967 185.859 175.724 184.202 173.479 181.224C171.223 178.231 169.948 173.864 169.948 168.423H168.948C168.948 174.006 170.255 178.607 172.681 181.826C175.119 185.06 178.66 186.859 183.017 186.859V185.859ZM169.948 168.423C169.948 162.971 171.223 158.592 173.48 155.59C175.725 152.603 178.967 150.941 183.017 150.941V149.941C178.66 149.941 175.118 151.746 172.68 154.989C170.254 158.217 168.948 162.83 168.948 168.423H169.948ZM183.017 150.941C187.068 150.941 190.31 152.598 192.555 155.581C194.811 158.581 196.086 162.959 196.086 168.423H197.086C197.086 162.818 195.78 158.205 193.354 154.98C190.916 151.74 187.374 149.941 183.017 149.941V150.941ZM196.086 168.423C196.086 173.864 194.811 178.231 192.555 181.224C190.31 184.202 187.068 185.859 183.017 185.859V186.859C187.374 186.859 190.916 185.06 193.354 181.826C195.78 178.607 197.086 174.006 197.086 168.423H196.086ZM183.017 181.768C185.623 181.768 187.707 180.439 189.115 178.099C190.51 175.78 191.247 172.467 191.247 168.423H190.247C190.247 172.367 189.525 175.477 188.258 177.583C187.004 179.668 185.222 180.768 183.017 180.768V181.768ZM191.247 168.423C191.247 164.357 190.51 161.033 189.115 158.708C187.707 156.361 185.623 155.032 183.017 155.032V156.032C185.222 156.032 187.003 157.132 188.258 159.222C189.525 161.334 190.247 164.456 190.247 168.423H191.247ZM183.017 155.032C180.422 155.032 178.339 156.362 176.928 158.707C175.53 161.032 174.787 164.356 174.787 168.423H175.787C175.787 164.457 176.515 161.335 177.785 159.223C179.043 157.131 180.824 156.032 183.017 156.032V155.032ZM174.787 168.423C174.787 172.468 175.53 175.78 176.929 178.099C178.339 180.439 180.422 181.768 183.017 181.768V180.768C180.824 180.768 179.043 179.669 177.785 177.583C176.515 175.476 175.787 172.366 175.787 168.423H174.787ZM213.039 185.859C208.989 185.859 205.746 184.202 203.501 181.224C201.245 178.231 199.971 173.864 199.971 168.423H198.971C198.971 174.006 200.277 178.607 202.703 181.826C205.141 185.06 208.682 186.859 213.039 186.859V185.859ZM199.971 168.423C199.971 162.971 201.245 158.592 203.502 155.59C205.747 152.603 208.989 150.941 213.039 150.941V149.941C208.682 149.941 205.14 151.746 202.702 154.989C200.277 158.217 198.971 162.83 198.971 168.423H199.971ZM213.039 150.941C217.09 150.941 220.332 152.598 222.577 155.581C224.833 158.581 226.108 162.959 226.108 168.423H227.108C227.108 162.818 225.802 158.205 223.376 154.98C220.938 151.74 217.396 149.941 213.039 149.941V150.941ZM226.108 168.423C226.108 173.864 224.833 178.231 222.577 181.224C220.333 184.202 217.09 185.859 213.039 185.859V186.859C217.396 186.859 220.938 185.06 223.376 181.826C225.802 178.607 227.108 174.006 227.108 168.423H226.108ZM213.039 181.768C215.645 181.768 217.729 180.439 219.137 178.099C220.532 175.78 221.269 172.467 221.269 168.423H220.269C220.269 172.367 219.547 175.477 218.28 177.583C217.026 179.668 215.244 180.768 213.039 180.768V181.768ZM221.269 168.423C221.269 164.357 220.532 161.033 219.137 158.708C217.729 156.361 215.645 155.032 213.039 155.032V156.032C215.244 156.032 217.025 157.132 218.28 159.222C219.547 161.334 220.269 164.456 220.269 168.423H221.269ZM213.039 155.032C210.444 155.032 208.361 156.362 206.95 158.707C205.552 161.032 204.809 164.356 204.809 168.423H205.809C205.809 164.457 206.537 161.335 207.807 159.223C209.065 157.131 210.847 156.032 213.039 156.032V155.032ZM204.809 168.423C204.809 172.468 205.553 175.78 206.951 178.099C208.361 180.439 210.445 181.768 213.039 181.768V180.768C210.846 180.768 209.065 179.669 207.807 177.583C206.537 175.476 205.809 172.366 205.809 168.423H204.809Z" fill="#476CFF" fill-opacity="0.24" mask="url(#path-18-outside-1_1_15765)"/>
</g>
<g filter="url(#filter3_dddddd_1_15765)">
<mask id="path-20-outside-2_1_15765" maskUnits="userSpaceOnUse" x="229.419" y="155.994" width="25" height="25" fill="black">
<rect fill="white" x="229.419" y="155.994" width="25" height="25"/>
<path d="M239.287 180.266V171.018H230.156V166.09H239.287V156.842H244.449V166.09H253.557V171.018H244.449V180.266H239.287Z"/>
</mask>
<path d="M239.287 180.266V171.018H230.156V166.09H239.287V156.842H244.449V166.09H253.557V171.018H244.449V180.266H239.287Z" fill="url(#paint7_linear_1_15765)" shape-rendering="crispEdges"/>
<path d="M239.287 180.266H238.787V180.766H239.287V180.266ZM239.287 171.018H239.787V170.518H239.287V171.018ZM230.156 171.018H229.656V171.518H230.156V171.018ZM230.156 166.09V165.59H229.656V166.09H230.156ZM239.287 166.09V166.59H239.787V166.09H239.287ZM239.287 156.842V156.342H238.787V156.842H239.287ZM244.449 156.842H244.949V156.342H244.449V156.842ZM244.449 166.09H243.949V166.59H244.449V166.09ZM253.557 166.09H254.057V165.59H253.557V166.09ZM253.557 171.018V171.518H254.057V171.018H253.557ZM244.449 171.018V170.518H243.949V171.018H244.449ZM244.449 180.266V180.766H244.949V180.266H244.449ZM239.787 180.266V171.018H238.787V180.266H239.787ZM239.287 170.518H230.156V171.518H239.287V170.518ZM230.656 171.018V166.09H229.656V171.018H230.656ZM230.156 166.59H239.287V165.59H230.156V166.59ZM239.787 166.09V156.842H238.787V166.09H239.787ZM239.287 157.342H244.449V156.342H239.287V157.342ZM243.949 156.842V166.09H244.949V156.842H243.949ZM244.449 166.59H253.557V165.59H244.449V166.59ZM253.057 166.09V171.018H254.057V166.09H253.057ZM253.557 170.518H244.449V171.518H253.557V170.518ZM243.949 171.018V180.266H244.949V171.018H243.949ZM244.449 179.766H239.287V180.766H244.449V179.766Z" fill="#476CFF" fill-opacity="0.24" mask="url(#path-20-outside-2_1_15765)"/>
</g>
<g filter="url(#filter4_ddddddd_1_15765)">
<rect x="31.1665" y="40" width="60" height="60" rx="30" fill="white"/>
<path d="M63.8666 64.8785L74.6666 71.7V74.4L63.8666 70.9899V78.2259L67.9166 80.475V82.5L61.8416 81.15L55.7666 82.5V80.475L59.8166 78.2246V70.9886L49.0166 74.4V71.7L59.8166 64.8785V57.525C59.8166 56.9879 60.03 56.4729 60.4097 56.0931C60.7895 55.7133 61.3045 55.5 61.8416 55.5C62.3787 55.5 62.8937 55.7133 63.2735 56.0931C63.6533 56.4729 63.8666 56.9879 63.8666 57.525V64.8785Z" fill="#7D52F4"/>
</g>
<g filter="url(#filter5_ddddddd_1_15765)">
<rect x="297.167" y="144" width="45" height="45" rx="22.5" fill="white"/>
<path d="M313.822 173.663H325.829V163.815L319.826 158.358L313.822 163.815V173.663ZM326.83 175.664H312.822C312.556 175.664 312.302 175.559 312.114 175.371C311.926 175.184 311.821 174.929 311.821 174.664V165.659H308.819L319.152 156.265C319.336 156.098 319.577 156.005 319.826 156.005C320.075 156.005 320.315 156.098 320.499 156.265L330.832 165.659H327.83V174.664C327.83 174.929 327.725 175.184 327.537 175.371C327.349 175.559 327.095 175.664 326.83 175.664ZM315.323 167.66H317.324C317.324 168.323 317.588 168.96 318.057 169.429C318.526 169.898 319.162 170.161 319.826 170.161C320.489 170.161 321.125 169.898 321.594 169.429C322.063 168.96 322.327 168.323 322.327 167.66H324.328C324.328 168.854 323.854 169.999 323.009 170.844C322.165 171.688 321.02 172.162 319.826 172.162C318.631 172.162 317.486 171.688 316.642 170.844C315.797 169.999 315.323 168.854 315.323 167.66Z" fill="#335CFF"/>
</g>
<g filter="url(#filter6_ddddddd_1_15765)">
<rect x="87.1665" y="225" width="25" height="25" rx="12.5" fill="white"/>
<path d="M103.604 241H95.729V241.562C95.729 241.712 95.6697 241.855 95.5643 241.96C95.4588 242.066 95.3157 242.125 95.1665 242.125H94.604C94.4548 242.125 94.3117 242.066 94.2063 241.96C94.1008 241.855 94.0415 241.712 94.0415 241.562V235.938L95.4365 232.682C95.5233 232.479 95.6677 232.307 95.8517 232.186C96.0357 232.064 96.2512 232 96.4715 232H102.862C103.082 232 103.297 232.065 103.481 232.186C103.664 232.307 103.809 232.479 103.895 232.682L105.292 235.938V241.562C105.292 241.712 105.232 241.855 105.127 241.96C105.021 242.066 104.878 242.125 104.729 242.125H104.167C104.017 242.125 103.874 242.066 103.769 241.96C103.663 241.855 103.604 241.712 103.604 241.562V241ZM104.167 237.063H95.1665V239.875H104.167V237.063ZM95.2655 235.938H104.068L102.862 233.125H96.4715L95.2661 235.938H95.2655ZM96.5728 239.313C96.349 239.313 96.1344 239.224 95.9761 239.065C95.8179 238.907 95.729 238.693 95.729 238.469C95.729 238.245 95.8179 238.03 95.9761 237.872C96.1344 237.714 96.349 237.625 96.5728 237.625C96.7965 237.625 97.0111 237.714 97.1694 237.872C97.3276 238.03 97.4165 238.245 97.4165 238.469C97.4165 238.693 97.3276 238.907 97.1694 239.065C97.0111 239.224 96.7965 239.313 96.5728 239.313ZM102.76 239.313C102.536 239.313 102.322 239.224 102.164 239.065C102.005 238.907 101.917 238.693 101.917 238.469C101.917 238.245 102.005 238.03 102.164 237.872C102.322 237.714 102.536 237.625 102.76 237.625C102.984 237.625 103.199 237.714 103.357 237.872C103.515 238.03 103.604 238.245 103.604 238.469C103.604 238.693 103.515 238.907 103.357 239.065C103.199 239.224 102.984 239.313 102.76 239.313Z" fill="#1FC16B"/>
</g>
<g filter="url(#filter7_ddddddd_1_15765)">
<rect x="243.167" y="59" width="30" height="30" rx="15" fill="white"/>
<path d="M262.086 68.1392C264.286 68.1392 266.07 69.9502 266.07 72.4858C266.07 77.5568 260.637 80.4545 258.826 81.5411C257.393 80.682 253.695 78.6891 252.211 75.3842L250.857 75.3835V73.9346H251.733C251.635 73.4739 251.581 72.9914 251.581 72.4858C251.581 69.9502 253.392 68.1392 255.566 68.1392C256.913 68.1392 258.101 68.8636 258.826 69.588C259.55 68.8636 260.738 68.1392 262.086 68.1392ZM262.086 69.588C261.306 69.588 260.463 70.0009 259.85 70.6124L258.826 71.6367L257.801 70.6124C257.188 70.0009 256.345 69.588 255.566 69.588C254.16 69.588 253.03 70.7877 253.03 72.4858C253.03 72.982 253.095 73.4652 253.224 73.9346H254.793L256.29 71.4397L258.463 75.0618L259.14 73.9346H262.448V75.3835H259.96L258.463 77.8784L256.29 74.2563L255.614 75.3835H253.833C254.405 76.3788 255.271 77.3163 256.395 78.2109C256.935 78.6398 257.511 79.0404 258.149 79.4425C258.366 79.5794 258.58 79.7105 258.826 79.8568C259.071 79.7105 259.286 79.5794 259.502 79.4432C260.141 79.0404 260.716 78.6398 261.255 78.2109C263.415 76.494 264.621 74.6178 264.621 72.4858C264.621 70.7761 263.508 69.588 262.086 69.588Z" fill="#FF8447"/>
</g>
</g>
</g>
<defs>
<filter id="filter0_dddddd_1_15765" x="0.166504" y="-9" width="374.89" height="387.89" filterUnits="userSpaceOnUse" color-interpolation-filters="sRGB">
<feFlood flood-opacity="0" result="BackgroundImageFix"/>
<feColorMatrix in="SourceAlpha" type="matrix" values="0 0 0 0 0 0 0 0 0 0 0 0 0 0 0 0 0 0 127 0" result="hardAlpha"/>
<feMorphology radius="12" operator="erode" in="SourceAlpha" result="effect1_dropShadow_1_15765"/>
<feOffset dy="24"/>
<feGaussianBlur stdDeviation="12"/>
<feComposite in2="hardAlpha" operator="out"/>
<feColorMatrix type="matrix" values="0 0 0 0 0.054902 0 0 0 0 0.247059 0 0 0 0 0.494118 0 0 0 0.04 0"/>
<feBlend mode="normal" in2="BackgroundImageFix" result="effect1_dropShadow_1_15765"/>
<feColorMatrix in="SourceAlpha" type="matrix" values="0 0 0 0 0 0 0 0 0 0 0 0 0 0 0 0 0 0 127 0" result="hardAlpha"/>
<feMorphology radius="6" operator="erode" in="SourceAlpha" result="effect2_dropShadow_1_15765"/>
<feOffset dy="12"/>
<feGaussianBlur stdDeviation="6"/>
<feComposite in2="hardAlpha" operator="out"/>
<feColorMatrix type="matrix" values="0 0 0 0 0.054902 0 0 0 0 0.247059 0 0 0 0 0.494118 0 0 0 0.04 0"/>
<feBlend mode="normal" in2="effect1_dropShadow_1_15765" result="effect2_dropShadow_1_15765"/>
<feColorMatrix in="SourceAlpha" type="matrix" values="0 0 0 0 0 0 0 0 0 0 0 0 0 0 0 0 0 0 127 0" result="hardAlpha"/>
<feMorphology radius="3" operator="erode" in="SourceAlpha" result="effect3_dropShadow_1_15765"/>
<feOffset dy="6"/>
<feGaussianBlur stdDeviation="3"/>
<feComposite in2="hardAlpha" operator="out"/>
<feColorMatrix type="matrix" values="0 0 0 0 0.164706 0 0 0 0 0.2 0 0 0 0 0.27451 0 0 0 0.04 0"/>
<feBlend mode="normal" in2="effect2_dropShadow_1_15765" result="effect3_dropShadow_1_15765"/>
<feColorMatrix in="SourceAlpha" type="matrix" values="0 0 0 0 0 0 0 0 0 0 0 0 0 0 0 0 0 0 127 0" result="hardAlpha"/>
<feMorphology radius="1.5" operator="erode" in="SourceAlpha" result="effect4_dropShadow_1_15765"/>
<feOffset dy="3"/>
<feGaussianBlur stdDeviation="1.5"/>
<feComposite in2="hardAlpha" operator="out"/>
<feColorMatrix type="matrix" values="0 0 0 0 0.164706 0 0 0 0 0.2 0 0 0 0 0.27451 0 0 0 0.04 0"/>
<feBlend mode="normal" in2="effect3_dropShadow_1_15765" result="effect4_dropShadow_1_15765"/>
<feColorMatrix in="SourceAlpha" type="matrix" values="0 0 0 0 0 0 0 0 0 0 0 0 0 0 0 0 0 0 127 0" result="hardAlpha"/>
<feMorphology radius="0.5" operator="erode" in="SourceAlpha" result="effect5_dropShadow_1_15765"/>
<feOffset dy="1"/>
<feGaussianBlur stdDeviation="0.5"/>
<feComposite in2="hardAlpha" operator="out"/>
<feColorMatrix type="matrix" values="0 0 0 0 0.164706 0 0 0 0 0.2 0 0 0 0 0.270588 0 0 0 0.04 0"/>
<feBlend mode="normal" in2="effect4_dropShadow_1_15765" result="effect5_dropShadow_1_15765"/>
<feColorMatrix in="SourceAlpha" type="matrix" values="0 0 0 0 0 0 0 0 0 0 0 0 0 0 0 0 0 0 127 0" result="hardAlpha"/>
<feMorphology radius="1" operator="dilate" in="SourceAlpha" result="effect6_dropShadow_1_15765"/>
<feOffset/>
<feComposite in2="hardAlpha" operator="out"/>
<feColorMatrix type="matrix" values="0 0 0 0 0.054902 0 0 0 0 0.247059 0 0 0 0 0.494118 0 0 0 0.04 0"/>
<feBlend mode="normal" in2="effect5_dropShadow_1_15765" result="effect6_dropShadow_1_15765"/>
<feBlend mode="normal" in="SourceGraphic" in2="effect6_dropShadow_1_15765" result="shape"/>
</filter>
<filter id="filter1_dddddd_1_15765" x="94.0464" y="85" width="187.12" height="200.12" filterUnits="userSpaceOnUse" color-interpolation-filters="sRGB">
<feFlood flood-opacity="0" result="BackgroundImageFix"/>
<feColorMatrix in="SourceAlpha" type="matrix" values="0 0 0 0 0 0 0 0 0 0 0 0 0 0 0 0 0 0 127 0" result="hardAlpha"/>
<feMorphology radius="12" operator="erode" in="SourceAlpha" result="effect1_dropShadow_1_15765"/>
<feOffset dy="24"/>
<feGaussianBlur stdDeviation="12"/>
<feComposite in2="hardAlpha" operator="out"/>
<feColorMatrix type="matrix" values="0 0 0 0 0.054902 0 0 0 0 0.247059 0 0 0 0 0.494118 0 0 0 0.04 0"/>
<feBlend mode="normal" in2="BackgroundImageFix" result="effect1_dropShadow_1_15765"/>
<feColorMatrix in="SourceAlpha" type="matrix" values="0 0 0 0 0 0 0 0 0 0 0 0 0 0 0 0 0 0 127 0" result="hardAlpha"/>
<feMorphology radius="6" operator="erode" in="SourceAlpha" result="effect2_dropShadow_1_15765"/>
<feOffset dy="12"/>
<feGaussianBlur stdDeviation="6"/>
<feComposite in2="hardAlpha" operator="out"/>
<feColorMatrix type="matrix" values="0 0 0 0 0.054902 0 0 0 0 0.247059 0 0 0 0 0.494118 0 0 0 0.04 0"/>
<feBlend mode="normal" in2="effect1_dropShadow_1_15765" result="effect2_dropShadow_1_15765"/>
<feColorMatrix in="SourceAlpha" type="matrix" values="0 0 0 0 0 0 0 0 0 0 0 0 0 0 0 0 0 0 127 0" result="hardAlpha"/>
<feMorphology radius="3" operator="erode" in="SourceAlpha" result="effect3_dropShadow_1_15765"/>
<feOffset dy="6"/>
<feGaussianBlur stdDeviation="3"/>
<feComposite in2="hardAlpha" operator="out"/>
<feColorMatrix type="matrix" values="0 0 0 0 0.164706 0 0 0 0 0.2 0 0 0 0 0.27451 0 0 0 0.04 0"/>
<feBlend mode="normal" in2="effect2_dropShadow_1_15765" result="effect3_dropShadow_1_15765"/>
<feColorMatrix in="SourceAlpha" type="matrix" values="0 0 0 0 0 0 0 0 0 0 0 0 0 0 0 0 0 0 127 0" result="hardAlpha"/>
<feMorphology radius="1.5" operator="erode" in="SourceAlpha" result="effect4_dropShadow_1_15765"/>
<feOffset dy="3"/>
<feGaussianBlur stdDeviation="1.5"/>
<feComposite in2="hardAlpha" operator="out"/>
<feColorMatrix type="matrix" values="0 0 0 0 0.164706 0 0 0 0 0.2 0 0 0 0 0.27451 0 0 0 0.04 0"/>
<feBlend mode="normal" in2="effect3_dropShadow_1_15765" result="effect4_dropShadow_1_15765"/>
<feColorMatrix in="SourceAlpha" type="matrix" values="0 0 0 0 0 0 0 0 0 0 0 0 0 0 0 0 0 0 127 0" result="hardAlpha"/>
<feMorphology radius="0.5" operator="erode" in="SourceAlpha" result="effect5_dropShadow_1_15765"/>
<feOffset dy="1"/>
<feGaussianBlur stdDeviation="0.5"/>
<feComposite in2="hardAlpha" operator="out"/>
<feColorMatrix type="matrix" values="0 0 0 0 0.164706 0 0 0 0 0.2 0 0 0 0 0.270588 0 0 0 0.04 0"/>
<feBlend mode="normal" in2="effect4_dropShadow_1_15765" result="effect5_dropShadow_1_15765"/>
<feColorMatrix in="SourceAlpha" type="matrix" values="0 0 0 0 0 0 0 0 0 0 0 0 0 0 0 0 0 0 127 0" result="hardAlpha"/>
<feMorphology radius="1" operator="dilate" in="SourceAlpha" result="effect6_dropShadow_1_15765"/>
<feOffset/>
<feComposite in2="hardAlpha" operator="out"/>
<feColorMatrix type="matrix" values="0 0 0 0 0.054902 0 0 0 0 0.247059 0 0 0 0 0.494118 0 0 0 0.04 0"/>
<feBlend mode="normal" in2="effect5_dropShadow_1_15765" result="effect6_dropShadow_1_15765"/>
<feBlend mode="normal" in="SourceGraphic" in2="effect6_dropShadow_1_15765" result="shape"/>
</filter>
<filter id="filter2_dddddd_1_15765" x="129.084" y="149.441" width="109.523" height="72.9185" filterUnits="userSpaceOnUse" color-interpolation-filters="sRGB">
<feFlood flood-opacity="0" result="BackgroundImageFix"/>
<feColorMatrix in="SourceAlpha" type="matrix" values="0 0 0 0 0 0 0 0 0 0 0 0 0 0 0 0 0 0 127 0" result="hardAlpha"/>
<feMorphology radius="12" operator="erode" in="SourceAlpha" result="effect1_dropShadow_1_15765"/>
<feOffset dy="24"/>
<feGaussianBlur stdDeviation="12"/>
<feComposite in2="hardAlpha" operator="out"/>
<feColorMatrix type="matrix" values="0 0 0 0 0.054902 0 0 0 0 0.247059 0 0 0 0 0.494118 0 0 0 0.04 0"/>
<feBlend mode="normal" in2="BackgroundImageFix" result="effect1_dropShadow_1_15765"/>
<feColorMatrix in="SourceAlpha" type="matrix" values="0 0 0 0 0 0 0 0 0 0 0 0 0 0 0 0 0 0 127 0" result="hardAlpha"/>
<feMorphology radius="6" operator="erode" in="SourceAlpha" result="effect2_dropShadow_1_15765"/>
<feOffset dy="12"/>
<feGaussianBlur stdDeviation="6"/>
<feComposite in2="hardAlpha" operator="out"/>
<feColorMatrix type="matrix" values="0 0 0 0 0.054902 0 0 0 0 0.247059 0 0 0 0 0.494118 0 0 0 0.04 0"/>
<feBlend mode="normal" in2="effect1_dropShadow_1_15765" result="effect2_dropShadow_1_15765"/>
<feColorMatrix in="SourceAlpha" type="matrix" values="0 0 0 0 0 0 0 0 0 0 0 0 0 0 0 0 0 0 127 0" result="hardAlpha"/>
<feMorphology radius="3" operator="erode" in="SourceAlpha" result="effect3_dropShadow_1_15765"/>
<feOffset dy="6"/>
<feGaussianBlur stdDeviation="3"/>
<feComposite in2="hardAlpha" operator="out"/>
<feColorMatrix type="matrix" values="0 0 0 0 0.164706 0 0 0 0 0.2 0 0 0 0 0.27451 0 0 0 0.04 0"/>
<feBlend mode="normal" in2="effect2_dropShadow_1_15765" result="effect3_dropShadow_1_15765"/>
<feColorMatrix in="SourceAlpha" type="matrix" values="0 0 0 0 0 0 0 0 0 0 0 0 0 0 0 0 0 0 127 0" result="hardAlpha"/>
<feMorphology radius="1.5" operator="erode" in="SourceAlpha" result="effect4_dropShadow_1_15765"/>
<feOffset dy="3"/>
<feGaussianBlur stdDeviation="1.5"/>
<feComposite in2="hardAlpha" operator="out"/>
<feColorMatrix type="matrix" values="0 0 0 0 0.164706 0 0 0 0 0.2 0 0 0 0 0.27451 0 0 0 0.04 0"/>
<feBlend mode="normal" in2="effect3_dropShadow_1_15765" result="effect4_dropShadow_1_15765"/>
<feColorMatrix in="SourceAlpha" type="matrix" values="0 0 0 0 0 0 0 0 0 0 0 0 0 0 0 0 0 0 127 0" result="hardAlpha"/>
<feMorphology radius="0.5" operator="erode" in="SourceAlpha" result="effect5_dropShadow_1_15765"/>
<feOffset dy="1"/>
<feGaussianBlur stdDeviation="0.5"/>
<feComposite in2="hardAlpha" operator="out"/>
<feColorMatrix type="matrix" values="0 0 0 0 0.164706 0 0 0 0 0.2 0 0 0 0 0.270588 0 0 0 0.04 0"/>
<feBlend mode="normal" in2="effect4_dropShadow_1_15765" result="effect5_dropShadow_1_15765"/>
<feColorMatrix in="SourceAlpha" type="matrix" values="0 0 0 0 0 0 0 0 0 0 0 0 0 0 0 0 0 0 127 0" result="hardAlpha"/>
<feMorphology radius="1" operator="dilate" in="SourceAlpha" result="effect6_dropShadow_1_15765"/>
<feOffset/>
<feComposite in2="hardAlpha" operator="out"/>
<feColorMatrix type="matrix" values="0 0 0 0 0.054902 0 0 0 0 0.247059 0 0 0 0 0.494118 0 0 0 0.04 0"/>
<feBlend mode="normal" in2="effect5_dropShadow_1_15765" result="effect6_dropShadow_1_15765"/>
<feBlend mode="normal" in="SourceGraphic" in2="effect6_dropShadow_1_15765" result="shape"/>
</filter>
<filter id="filter3_dddddd_1_15765" x="218.156" y="155.842" width="47.4009" height="60.4243" filterUnits="userSpaceOnUse" color-interpolation-filters="sRGB">
<feFlood flood-opacity="0" result="BackgroundImageFix"/>
<feColorMatrix in="SourceAlpha" type="matrix" values="0 0 0 0 0 0 0 0 0 0 0 0 0 0 0 0 0 0 127 0" result="hardAlpha"/>
<feMorphology radius="12" operator="erode" in="SourceAlpha" result="effect1_dropShadow_1_15765"/>
<feOffset dy="24"/>
<feGaussianBlur stdDeviation="12"/>
<feComposite in2="hardAlpha" operator="out"/>
<feColorMatrix type="matrix" values="0 0 0 0 0.054902 0 0 0 0 0.247059 0 0 0 0 0.494118 0 0 0 0.04 0"/>
<feBlend mode="normal" in2="BackgroundImageFix" result="effect1_dropShadow_1_15765"/>
<feColorMatrix in="SourceAlpha" type="matrix" values="0 0 0 0 0 0 0 0 0 0 0 0 0 0 0 0 0 0 127 0" result="hardAlpha"/>
<feMorphology radius="6" operator="erode" in="SourceAlpha" result="effect2_dropShadow_1_15765"/>
<feOffset dy="12"/>
<feGaussianBlur stdDeviation="6"/>
<feComposite in2="hardAlpha" operator="out"/>
<feColorMatrix type="matrix" values="0 0 0 0 0.054902 0 0 0 0 0.247059 0 0 0 0 0.494118 0 0 0 0.04 0"/>
<feBlend mode="normal" in2="effect1_dropShadow_1_15765" result="effect2_dropShadow_1_15765"/>
<feColorMatrix in="SourceAlpha" type="matrix" values="0 0 0 0 0 0 0 0 0 0 0 0 0 0 0 0 0 0 127 0" result="hardAlpha"/>
<feMorphology radius="3" operator="erode" in="SourceAlpha" result="effect3_dropShadow_1_15765"/>
<feOffset dy="6"/>
<feGaussianBlur stdDeviation="3"/>
<feComposite in2="hardAlpha" operator="out"/>
<feColorMatrix type="matrix" values="0 0 0 0 0.164706 0 0 0 0 0.2 0 0 0 0 0.27451 0 0 0 0.04 0"/>
<feBlend mode="normal" in2="effect2_dropShadow_1_15765" result="effect3_dropShadow_1_15765"/>
<feColorMatrix in="SourceAlpha" type="matrix" values="0 0 0 0 0 0 0 0 0 0 0 0 0 0 0 0 0 0 127 0" result="hardAlpha"/>
<feMorphology radius="1.5" operator="erode" in="SourceAlpha" result="effect4_dropShadow_1_15765"/>
<feOffset dy="3"/>
<feGaussianBlur stdDeviation="1.5"/>
<feComposite in2="hardAlpha" operator="out"/>
<feColorMatrix type="matrix" values="0 0 0 0 0.164706 0 0 0 0 0.2 0 0 0 0 0.27451 0 0 0 0.04 0"/>
<feBlend mode="normal" in2="effect3_dropShadow_1_15765" result="effect4_dropShadow_1_15765"/>
<feColorMatrix in="SourceAlpha" type="matrix" values="0 0 0 0 0 0 0 0 0 0 0 0 0 0 0 0 0 0 127 0" result="hardAlpha"/>
<feMorphology radius="0.5" operator="erode" in="SourceAlpha" result="effect5_dropShadow_1_15765"/>
<feOffset dy="1"/>
<feGaussianBlur stdDeviation="0.5"/>
<feComposite in2="hardAlpha" operator="out"/>
<feColorMatrix type="matrix" values="0 0 0 0 0.164706 0 0 0 0 0.2 0 0 0 0 0.270588 0 0 0 0.04 0"/>
<feBlend mode="normal" in2="effect4_dropShadow_1_15765" result="effect5_dropShadow_1_15765"/>
<feColorMatrix in="SourceAlpha" type="matrix" values="0 0 0 0 0 0 0 0 0 0 0 0 0 0 0 0 0 0 127 0" result="hardAlpha"/>
<feMorphology radius="1" operator="dilate" in="SourceAlpha" result="effect6_dropShadow_1_15765"/>
<feOffset/>
<feComposite in2="hardAlpha" operator="out"/>
<feColorMatrix type="matrix" values="0 0 0 0 0.054902 0 0 0 0 0.247059 0 0 0 0 0.494118 0 0 0 0.04 0"/>
<feBlend mode="normal" in2="effect5_dropShadow_1_15765" result="effect6_dropShadow_1_15765"/>
<feBlend mode="normal" in="SourceGraphic" in2="effect6_dropShadow_1_15765" result="shape"/>
</filter>
<filter id="filter4_ddddddd_1_15765" x="15.1665" y="39" width="92" height="101" filterUnits="userSpaceOnUse" color-interpolation-filters="sRGB">
<feFlood flood-opacity="0" result="BackgroundImageFix"/>
<feColorMatrix in="SourceAlpha" type="matrix" values="0 0 0 0 0 0 0 0 0 0 0 0 0 0 0 0 0 0 127 0" result="hardAlpha"/>
<feMorphology radius="8" operator="erode" in="SourceAlpha" result="effect1_dropShadow_1_15765"/>
<feOffset dy="24"/>
<feGaussianBlur stdDeviation="12"/>
<feComposite in2="hardAlpha" operator="out"/>
<feColorMatrix type="matrix" values="0 0 0 0 0.164706 0 0 0 0 0.2 0 0 0 0 0.27451 0 0 0 0.03 0"/>
<feBlend mode="normal" in2="BackgroundImageFix" result="effect1_dropShadow_1_15765"/>
<feColorMatrix in="SourceAlpha" type="matrix" values="0 0 0 0 0 0 0 0 0 0 0 0 0 0 0 0 0 0 127 0" result="hardAlpha"/>
<feMorphology radius="5" operator="erode" in="SourceAlpha" result="effect2_dropShadow_1_15765"/>
<feOffset dy="10"/>
<feGaussianBlur stdDeviation="5"/>
<feComposite in2="hardAlpha" operator="out"/>
<feColorMatrix type="matrix" values="0 0 0 0 0.164706 0 0 0 0 0.2 0 0 0 0 0.27451 0 0 0 0.03 0"/>
<feBlend mode="normal" in2="effect1_dropShadow_1_15765" result="effect2_dropShadow_1_15765"/>
<feColorMatrix in="SourceAlpha" type="matrix" values="0 0 0 0 0 0 0 0 0 0 0 0 0 0 0 0 0 0 127 0" result="hardAlpha"/>
<feMorphology radius="2.5" operator="erode" in="SourceAlpha" result="effect3_dropShadow_1_15765"/>
<feOffset dy="5"/>
<feGaussianBlur stdDeviation="2.5"/>
<feComposite in2="hardAlpha" operator="out"/>
<feColorMatrix type="matrix" values="0 0 0 0 0.164706 0 0 0 0 0.2 0 0 0 0 0.27451 0 0 0 0.03 0"/>
<feBlend mode="normal" in2="effect2_dropShadow_1_15765" result="effect3_dropShadow_1_15765"/>
<feColorMatrix in="SourceAlpha" type="matrix" values="0 0 0 0 0 0 0 0 0 0 0 0 0 0 0 0 0 0 127 0" result="hardAlpha"/>
<feMorphology radius="1.5" operator="erode" in="SourceAlpha" result="effect4_dropShadow_1_15765"/>
<feOffset dy="3"/>
<feGaussianBlur stdDeviation="1.5"/>
<feComposite in2="hardAlpha" operator="out"/>
<feColorMatrix type="matrix" values="0 0 0 0 0.164706 0 0 0 0 0.2 0 0 0 0 0.27451 0 0 0 0.04 0"/>
<feBlend mode="normal" in2="effect3_dropShadow_1_15765" result="effect4_dropShadow_1_15765"/>
<feColorMatrix in="SourceAlpha" type="matrix" values="0 0 0 0 0 0 0 0 0 0 0 0 0 0 0 0 0 0 127 0" result="hardAlpha"/>
<feMorphology radius="1" operator="erode" in="SourceAlpha" result="effect5_dropShadow_1_15765"/>
<feOffset dy="2"/>
<feGaussianBlur stdDeviation="1"/>
<feComposite in2="hardAlpha" operator="out"/>
<feColorMatrix type="matrix" values="0 0 0 0 0.164706 0 0 0 0 0.2 0 0 0 0 0.27451 0 0 0 0.04 0"/>
<feBlend mode="normal" in2="effect4_dropShadow_1_15765" result="effect5_dropShadow_1_15765"/>
<feColorMatrix in="SourceAlpha" type="matrix" values="0 0 0 0 0 0 0 0 0 0 0 0 0 0 0 0 0 0 127 0" result="hardAlpha"/>
<feMorphology radius="0.5" operator="erode" in="SourceAlpha" result="effect6_dropShadow_1_15765"/>
<feOffset dy="1"/>
<feGaussianBlur stdDeviation="0.5"/>
<feComposite in2="hardAlpha" operator="out"/>
<feColorMatrix type="matrix" values="0 0 0 0 0.164706 0 0 0 0 0.2 0 0 0 0 0.27451 0 0 0 0.03 0"/>
<feBlend mode="normal" in2="effect5_dropShadow_1_15765" result="effect6_dropShadow_1_15765"/>
<feColorMatrix in="SourceAlpha" type="matrix" values="0 0 0 0 0 0 0 0 0 0 0 0 0 0 0 0 0 0 127 0" result="hardAlpha"/>
<feMorphology radius="1" operator="dilate" in="SourceAlpha" result="effect7_dropShadow_1_15765"/>
<feOffset/>
<feComposite in2="hardAlpha" operator="out"/>
<feColorMatrix type="matrix" values="0 0 0 0 0.054902 0 0 0 0 0.247059 0 0 0 0 0.494118 0 0 0 0.06 0"/>
<feBlend mode="normal" in2="effect6_dropShadow_1_15765" result="effect7_dropShadow_1_15765"/>
<feBlend mode="normal" in="SourceGraphic" in2="effect7_dropShadow_1_15765" result="shape"/>
</filter>
<filter id="filter5_ddddddd_1_15765" x="281.167" y="143" width="77" height="86" filterUnits="userSpaceOnUse" color-interpolation-filters="sRGB">
<feFlood flood-opacity="0" result="BackgroundImageFix"/>
<feColorMatrix in="SourceAlpha" type="matrix" values="0 0 0 0 0 0 0 0 0 0 0 0 0 0 0 0 0 0 127 0" result="hardAlpha"/>
<feMorphology radius="8" operator="erode" in="SourceAlpha" result="effect1_dropShadow_1_15765"/>
<feOffset dy="24"/>
<feGaussianBlur stdDeviation="12"/>
<feComposite in2="hardAlpha" operator="out"/>
<feColorMatrix type="matrix" values="0 0 0 0 0.164706 0 0 0 0 0.2 0 0 0 0 0.27451 0 0 0 0.03 0"/>
<feBlend mode="normal" in2="BackgroundImageFix" result="effect1_dropShadow_1_15765"/>
<feColorMatrix in="SourceAlpha" type="matrix" values="0 0 0 0 0 0 0 0 0 0 0 0 0 0 0 0 0 0 127 0" result="hardAlpha"/>
<feMorphology radius="5" operator="erode" in="SourceAlpha" result="effect2_dropShadow_1_15765"/>
<feOffset dy="10"/>
<feGaussianBlur stdDeviation="5"/>
<feComposite in2="hardAlpha" operator="out"/>
<feColorMatrix type="matrix" values="0 0 0 0 0.164706 0 0 0 0 0.2 0 0 0 0 0.27451 0 0 0 0.03 0"/>
<feBlend mode="normal" in2="effect1_dropShadow_1_15765" result="effect2_dropShadow_1_15765"/>
<feColorMatrix in="SourceAlpha" type="matrix" values="0 0 0 0 0 0 0 0 0 0 0 0 0 0 0 0 0 0 127 0" result="hardAlpha"/>
<feMorphology radius="2.5" operator="erode" in="SourceAlpha" result="effect3_dropShadow_1_15765"/>
<feOffset dy="5"/>
<feGaussianBlur stdDeviation="2.5"/>
<feComposite in2="hardAlpha" operator="out"/>
<feColorMatrix type="matrix" values="0 0 0 0 0.164706 0 0 0 0 0.2 0 0 0 0 0.27451 0 0 0 0.03 0"/>
<feBlend mode="normal" in2="effect2_dropShadow_1_15765" result="effect3_dropShadow_1_15765"/>
<feColorMatrix in="SourceAlpha" type="matrix" values="0 0 0 0 0 0 0 0 0 0 0 0 0 0 0 0 0 0 127 0" result="hardAlpha"/>
<feMorphology radius="1.5" operator="erode" in="SourceAlpha" result="effect4_dropShadow_1_15765"/>
<feOffset dy="3"/>
<feGaussianBlur stdDeviation="1.5"/>
<feComposite in2="hardAlpha" operator="out"/>
<feColorMatrix type="matrix" values="0 0 0 0 0.164706 0 0 0 0 0.2 0 0 0 0 0.27451 0 0 0 0.04 0"/>
<feBlend mode="normal" in2="effect3_dropShadow_1_15765" result="effect4_dropShadow_1_15765"/>
<feColorMatrix in="SourceAlpha" type="matrix" values="0 0 0 0 0 0 0 0 0 0 0 0 0 0 0 0 0 0 127 0" result="hardAlpha"/>
<feMorphology radius="1" operator="erode" in="SourceAlpha" result="effect5_dropShadow_1_15765"/>
<feOffset dy="2"/>
<feGaussianBlur stdDeviation="1"/>
<feComposite in2="hardAlpha" operator="out"/>
<feColorMatrix type="matrix" values="0 0 0 0 0.164706 0 0 0 0 0.2 0 0 0 0 0.27451 0 0 0 0.04 0"/>
<feBlend mode="normal" in2="effect4_dropShadow_1_15765" result="effect5_dropShadow_1_15765"/>
<feColorMatrix in="SourceAlpha" type="matrix" values="0 0 0 0 0 0 0 0 0 0 0 0 0 0 0 0 0 0 127 0" result="hardAlpha"/>
<feMorphology radius="0.5" operator="erode" in="SourceAlpha" result="effect6_dropShadow_1_15765"/>
<feOffset dy="1"/>
<feGaussianBlur stdDeviation="0.5"/>
<feComposite in2="hardAlpha" operator="out"/>
<feColorMatrix type="matrix" values="0 0 0 0 0.164706 0 0 0 0 0.2 0 0 0 0 0.27451 0 0 0 0.03 0"/>
<feBlend mode="normal" in2="effect5_dropShadow_1_15765" result="effect6_dropShadow_1_15765"/>
<feColorMatrix in="SourceAlpha" type="matrix" values="0 0 0 0 0 0 0 0 0 0 0 0 0 0 0 0 0 0 127 0" result="hardAlpha"/>
<feMorphology radius="1" operator="dilate" in="SourceAlpha" result="effect7_dropShadow_1_15765"/>
<feOffset/>
<feComposite in2="hardAlpha" operator="out"/>
<feColorMatrix type="matrix" values="0 0 0 0 0.054902 0 0 0 0 0.247059 0 0 0 0 0.494118 0 0 0 0.06 0"/>
<feBlend mode="normal" in2="effect6_dropShadow_1_15765" result="effect7_dropShadow_1_15765"/>
<feBlend mode="normal" in="SourceGraphic" in2="effect7_dropShadow_1_15765" result="shape"/>
</filter>
<filter id="filter6_ddddddd_1_15765" x="71.1665" y="224" width="57" height="66" filterUnits="userSpaceOnUse" color-interpolation-filters="sRGB">
<feFlood flood-opacity="0" result="BackgroundImageFix"/>
<feColorMatrix in="SourceAlpha" type="matrix" values="0 0 0 0 0 0 0 0 0 0 0 0 0 0 0 0 0 0 127 0" result="hardAlpha"/>
<feMorphology radius="8" operator="erode" in="SourceAlpha" result="effect1_dropShadow_1_15765"/>
<feOffset dy="24"/>
<feGaussianBlur stdDeviation="12"/>
<feComposite in2="hardAlpha" operator="out"/>
<feColorMatrix type="matrix" values="0 0 0 0 0.164706 0 0 0 0 0.2 0 0 0 0 0.27451 0 0 0 0.03 0"/>
<feBlend mode="normal" in2="BackgroundImageFix" result="effect1_dropShadow_1_15765"/>
<feColorMatrix in="SourceAlpha" type="matrix" values="0 0 0 0 0 0 0 0 0 0 0 0 0 0 0 0 0 0 127 0" result="hardAlpha"/>
<feMorphology radius="5" operator="erode" in="SourceAlpha" result="effect2_dropShadow_1_15765"/>
<feOffset dy="10"/>
<feGaussianBlur stdDeviation="5"/>
<feComposite in2="hardAlpha" operator="out"/>
<feColorMatrix type="matrix" values="0 0 0 0 0.164706 0 0 0 0 0.2 0 0 0 0 0.27451 0 0 0 0.03 0"/>
<feBlend mode="normal" in2="effect1_dropShadow_1_15765" result="effect2_dropShadow_1_15765"/>
<feColorMatrix in="SourceAlpha" type="matrix" values="0 0 0 0 0 0 0 0 0 0 0 0 0 0 0 0 0 0 127 0" result="hardAlpha"/>
<feMorphology radius="2.5" operator="erode" in="SourceAlpha" result="effect3_dropShadow_1_15765"/>
<feOffset dy="5"/>
<feGaussianBlur stdDeviation="2.5"/>
<feComposite in2="hardAlpha" operator="out"/>
<feColorMatrix type="matrix" values="0 0 0 0 0.164706 0 0 0 0 0.2 0 0 0 0 0.27451 0 0 0 0.03 0"/>
<feBlend mode="normal" in2="effect2_dropShadow_1_15765" result="effect3_dropShadow_1_15765"/>
<feColorMatrix in="SourceAlpha" type="matrix" values="0 0 0 0 0 0 0 0 0 0 0 0 0 0 0 0 0 0 127 0" result="hardAlpha"/>
<feMorphology radius="1.5" operator="erode" in="SourceAlpha" result="effect4_dropShadow_1_15765"/>
<feOffset dy="3"/>
<feGaussianBlur stdDeviation="1.5"/>
<feComposite in2="hardAlpha" operator="out"/>
<feColorMatrix type="matrix" values="0 0 0 0 0.164706 0 0 0 0 0.2 0 0 0 0 0.27451 0 0 0 0.04 0"/>
<feBlend mode="normal" in2="effect3_dropShadow_1_15765" result="effect4_dropShadow_1_15765"/>
<feColorMatrix in="SourceAlpha" type="matrix" values="0 0 0 0 0 0 0 0 0 0 0 0 0 0 0 0 0 0 127 0" result="hardAlpha"/>
<feMorphology radius="1" operator="erode" in="SourceAlpha" result="effect5_dropShadow_1_15765"/>
<feOffset dy="2"/>
<feGaussianBlur stdDeviation="1"/>
<feComposite in2="hardAlpha" operator="out"/>
<feColorMatrix type="matrix" values="0 0 0 0 0.164706 0 0 0 0 0.2 0 0 0 0 0.27451 0 0 0 0.04 0"/>
<feBlend mode="normal" in2="effect4_dropShadow_1_15765" result="effect5_dropShadow_1_15765"/>
<feColorMatrix in="SourceAlpha" type="matrix" values="0 0 0 0 0 0 0 0 0 0 0 0 0 0 0 0 0 0 127 0" result="hardAlpha"/>
<feMorphology radius="0.5" operator="erode" in="SourceAlpha" result="effect6_dropShadow_1_15765"/>
<feOffset dy="1"/>
<feGaussianBlur stdDeviation="0.5"/>
<feComposite in2="hardAlpha" operator="out"/>
<feColorMatrix type="matrix" values="0 0 0 0 0.164706 0 0 0 0 0.2 0 0 0 0 0.27451 0 0 0 0.03 0"/>
<feBlend mode="normal" in2="effect5_dropShadow_1_15765" result="effect6_dropShadow_1_15765"/>
<feColorMatrix in="SourceAlpha" type="matrix" values="0 0 0 0 0 0 0 0 0 0 0 0 0 0 0 0 0 0 127 0" result="hardAlpha"/>
<feMorphology radius="1" operator="dilate" in="SourceAlpha" result="effect7_dropShadow_1_15765"/>
<feOffset/>
<feComposite in2="hardAlpha" operator="out"/>
<feColorMatrix type="matrix" values="0 0 0 0 0.054902 0 0 0 0 0.247059 0 0 0 0 0.494118 0 0 0 0.06 0"/>
<feBlend mode="normal" in2="effect6_dropShadow_1_15765" result="effect7_dropShadow_1_15765"/>
<feBlend mode="normal" in="SourceGraphic" in2="effect7_dropShadow_1_15765" result="shape"/>
</filter>
<filter id="filter7_ddddddd_1_15765" x="227.167" y="58" width="62" height="71" filterUnits="userSpaceOnUse" color-interpolation-filters="sRGB">
<feFlood flood-opacity="0" result="BackgroundImageFix"/>
<feColorMatrix in="SourceAlpha" type="matrix" values="0 0 0 0 0 0 0 0 0 0 0 0 0 0 0 0 0 0 127 0" result="hardAlpha"/>
<feMorphology radius="8" operator="erode" in="SourceAlpha" result="effect1_dropShadow_1_15765"/>
<feOffset dy="24"/>
<feGaussianBlur stdDeviation="12"/>
<feComposite in2="hardAlpha" operator="out"/>
<feColorMatrix type="matrix" values="0 0 0 0 0.164706 0 0 0 0 0.2 0 0 0 0 0.27451 0 0 0 0.03 0"/>
<feBlend mode="normal" in2="BackgroundImageFix" result="effect1_dropShadow_1_15765"/>
<feColorMatrix in="SourceAlpha" type="matrix" values="0 0 0 0 0 0 0 0 0 0 0 0 0 0 0 0 0 0 127 0" result="hardAlpha"/>
<feMorphology radius="5" operator="erode" in="SourceAlpha" result="effect2_dropShadow_1_15765"/>
<feOffset dy="10"/>
<feGaussianBlur stdDeviation="5"/>
<feComposite in2="hardAlpha" operator="out"/>
<feColorMatrix type="matrix" values="0 0 0 0 0.164706 0 0 0 0 0.2 0 0 0 0 0.27451 0 0 0 0.03 0"/>
<feBlend mode="normal" in2="effect1_dropShadow_1_15765" result="effect2_dropShadow_1_15765"/>
<feColorMatrix in="SourceAlpha" type="matrix" values="0 0 0 0 0 0 0 0 0 0 0 0 0 0 0 0 0 0 127 0" result="hardAlpha"/>
<feMorphology radius="2.5" operator="erode" in="SourceAlpha" result="effect3_dropShadow_1_15765"/>
<feOffset dy="5"/>
<feGaussianBlur stdDeviation="2.5"/>
<feComposite in2="hardAlpha" operator="out"/>
<feColorMatrix type="matrix" values="0 0 0 0 0.164706 0 0 0 0 0.2 0 0 0 0 0.27451 0 0 0 0.03 0"/>
<feBlend mode="normal" in2="effect2_dropShadow_1_15765" result="effect3_dropShadow_1_15765"/>
<feColorMatrix in="SourceAlpha" type="matrix" values="0 0 0 0 0 0 0 0 0 0 0 0 0 0 0 0 0 0 127 0" result="hardAlpha"/>
<feMorphology radius="1.5" operator="erode" in="SourceAlpha" result="effect4_dropShadow_1_15765"/>
<feOffset dy="3"/>
<feGaussianBlur stdDeviation="1.5"/>
<feComposite in2="hardAlpha" operator="out"/>
<feColorMatrix type="matrix" values="0 0 0 0 0.164706 0 0 0 0 0.2 0 0 0 0 0.27451 0 0 0 0.04 0"/>
<feBlend mode="normal" in2="effect3_dropShadow_1_15765" result="effect4_dropShadow_1_15765"/>
<feColorMatrix in="SourceAlpha" type="matrix" values="0 0 0 0 0 0 0 0 0 0 0 0 0 0 0 0 0 0 127 0" result="hardAlpha"/>
<feMorphology radius="1" operator="erode" in="SourceAlpha" result="effect5_dropShadow_1_15765"/>
<feOffset dy="2"/>
<feGaussianBlur stdDeviation="1"/>
<feComposite in2="hardAlpha" operator="out"/>
<feColorMatrix type="matrix" values="0 0 0 0 0.164706 0 0 0 0 0.2 0 0 0 0 0.27451 0 0 0 0.04 0"/>
<feBlend mode="normal" in2="effect4_dropShadow_1_15765" result="effect5_dropShadow_1_15765"/>
<feColorMatrix in="SourceAlpha" type="matrix" values="0 0 0 0 0 0 0 0 0 0 0 0 0 0 0 0 0 0 127 0" result="hardAlpha"/>
<feMorphology radius="0.5" operator="erode" in="SourceAlpha" result="effect6_dropShadow_1_15765"/>
<feOffset dy="1"/>
<feGaussianBlur stdDeviation="0.5"/>
<feComposite in2="hardAlpha" operator="out"/>
<feColorMatrix type="matrix" values="0 0 0 0 0.164706 0 0 0 0 0.2 0 0 0 0 0.27451 0 0 0 0.03 0"/>
<feBlend mode="normal" in2="effect5_dropShadow_1_15765" result="effect6_dropShadow_1_15765"/>
<feColorMatrix in="SourceAlpha" type="matrix" values="0 0 0 0 0 0 0 0 0 0 0 0 0 0 0 0 0 0 127 0" result="hardAlpha"/>
<feMorphology radius="1" operator="dilate" in="SourceAlpha" result="effect7_dropShadow_1_15765"/>
<feOffset/>
<feComposite in2="hardAlpha" operator="out"/>
<feColorMatrix type="matrix" values="0 0 0 0 0.054902 0 0 0 0 0.247059 0 0 0 0 0.494118 0 0 0 0.06 0"/>
<feBlend mode="normal" in2="effect6_dropShadow_1_15765" result="effect7_dropShadow_1_15765"/>
<feBlend mode="normal" in="SourceGraphic" in2="effect7_dropShadow_1_15765" result="shape"/>
</filter>
<radialGradient id="paint0_radial_1_15765" cx="0" cy="0" r="1" gradientUnits="userSpaceOnUse" gradientTransform="translate(190.025 191.047) rotate(89.4115) scale(180.963 308.936)">
<stop offset="0.705"/>
<stop offset="1" stop-color="white" stop-opacity="0"/>
</radialGradient>
<linearGradient id="paint1_linear_1_15765" x1="187.606" y1="77.2363" x2="187.606" y2="257.644" gradientUnits="userSpaceOnUse">
<stop stop-color="#476CFF"/>
<stop offset="1" stop-color="#2B4199" stop-opacity="0"/>
</linearGradient>
<linearGradient id="paint2_linear_1_15765" x1="187.606" y1="9.87988" x2="187.606" y2="325" gradientUnits="userSpaceOnUse">
<stop stop-color="#476CFF"/>
<stop offset="1" stop-color="#2B4199" stop-opacity="0"/>
</linearGradient>
<linearGradient id="paint3_linear_1_15765" x1="187.607" y1="32.332" x2="187.607" y2="302.566" gradientUnits="userSpaceOnUse">
<stop stop-color="#476CFF"/>
<stop offset="1" stop-color="#2B4199" stop-opacity="0"/>
</linearGradient>
<linearGradient id="paint4_linear_1_15765" x1="187.607" y1="50.2939" x2="187.607" y2="284.604" gradientUnits="userSpaceOnUse">
<stop stop-color="#476CFF"/>
<stop offset="1" stop-color="#2B4199" stop-opacity="0"/>
</linearGradient>
<linearGradient id="paint5_linear_1_15765" x1="187.606" y1="64.6631" x2="187.606" y2="270.217" gradientUnits="userSpaceOnUse">
<stop stop-color="#476CFF"/>
<stop offset="1" stop-color="#2B4199" stop-opacity="0"/>
</linearGradient>
<linearGradient id="paint6_linear_1_15765" x1="184.24" y1="140.799" x2="184.24" y2="195.799" gradientUnits="userSpaceOnUse">
<stop stop-color="#1BB3F3"/>
<stop offset="1" stop-color="#186CE6"/>
</linearGradient>
<linearGradient id="paint7_linear_1_15765" x1="241.919" y1="136.994" x2="241.919" y2="191.994" gradientUnits="userSpaceOnUse">
<stop stop-color="#1BB3F3"/>
<stop offset="1" stop-color="#186CE6"/>
</linearGradient>
</defs>
</svg>
