<svg width="20" height="20" viewBox="0 0 20 20" fill="none" xmlns="http://www.w3.org/2000/svg">
<path d="M9.17489 2.5752L16.5991 3.63645L17.6596 11.0614L10.7656 17.9554C10.625 18.096 10.4343 18.175 10.2354 18.175C10.0365 18.175 9.84578 18.096 9.70514 17.9554L2.28014 10.5304C2.13953 10.3898 2.06055 10.1991 2.06055 10.0002C2.06055 9.80132 2.13953 9.61059 2.28014 9.46995L9.17489 2.5752ZM9.70514 4.1667L3.87089 10.0002L10.2354 16.3639L16.0689 10.5304L15.2739 4.9617L9.70514 4.1667V4.1667ZM11.2951 8.9397C11.0138 8.65823 10.8557 8.27653 10.8558 7.87856C10.8559 7.6815 10.8947 7.48638 10.9701 7.30433C11.0456 7.12229 11.1561 6.95689 11.2955 6.81757C11.4349 6.67825 11.6003 6.56775 11.7824 6.49237C11.9645 6.417 12.1596 6.37822 12.3567 6.37825C12.7546 6.37832 13.1363 6.53648 13.4176 6.81795C13.699 7.09941 13.857 7.48111 13.857 7.87909C13.8569 8.27706 13.6987 8.65871 13.4173 8.94007C13.1358 9.22143 12.7541 9.37946 12.3561 9.37939C11.9581 9.37932 11.5765 9.22116 11.2951 8.9397V8.9397Z" fill="#FF8447"/>
</svg>
