<svg width="112" height="27" viewBox="0 0 112 27" fill="none" xmlns="http://www.w3.org/2000/svg">
<path fill-rule="evenodd" clip-rule="evenodd" d="M21.4605 1.43677L19.8715 7.52096C19.664 8.31514 20.1231 8.95773 20.8977 8.95773H26.8325C27.6072 8.95773 28.0663 9.60031 27.8588 10.3945L25.8923 17.9177H18.5538C17.7792 17.9177 17.3201 17.2751 17.5276 16.4809L19.1166 10.3968C19.3241 9.60257 18.865 8.95999 18.0904 8.95999H12.1556C11.3809 8.95999 10.9218 8.3174 11.1293 7.52322L13.0958 0H20.4343C21.2089 0 21.668 0.642585 21.4605 1.43677ZM15.3161 15.3473L16.8522 17.4991H16.8544C17.0486 17.7683 17.0994 18.1326 17.0001 18.515L14.8129 26.8799H7.47439C6.69972 26.8799 6.24065 26.2373 6.44811 25.4431L8.15417 18.9132C8.22595 18.6392 8.1828 18.3907 8.05458 18.2108L14.2258 15.1708C14.654 14.9672 15.0954 15.0396 15.3161 15.3473ZM8.05404 18.2101C8.05422 18.2103 8.0544 18.2106 8.05458 18.2108L8.05264 18.2118L8.05404 18.2101ZM8.05404 18.2101C7.92595 18.0309 7.7133 17.9199 7.4457 17.9199H1.07613C0.301447 17.9199 -0.157621 17.2773 0.0498425 16.4831L2.01413 8.96219H10.1736C10.5444 8.96219 10.8622 9.11378 11.0542 9.38304L12.6522 11.6208C12.8751 11.9353 12.8155 12.4172 12.5065 12.8041L8.05404 18.2101Z" fill="#0E121B"/>
<path d="M34.5069 3.22583H37.2664V18.7962H34.5069V3.22583Z" fill="#0E121B"/>
<path d="M39.658 8.1041H42.3089V9.55199C42.8014 8.94314 43.3881 8.49763 44.0689 8.21548C44.7497 7.91848 45.4667 7.76998 46.22 7.76998C47.6251 7.76998 48.6752 8.1635 49.3706 8.95056C50.0659 9.72277 50.4135 10.7549 50.4135 12.0468V18.7962H47.6758V12.3141C47.6758 10.7549 46.966 9.97522 45.5464 9.97522C44.9235 9.97522 44.3369 10.1311 43.7864 10.443C43.236 10.74 42.7724 11.1929 42.3958 11.8018V18.7962H39.658V8.1041Z" fill="#0E121B"/>
<path d="M56.7658 19.1303C56.0125 19.1303 55.2086 19.0412 54.354 18.863C53.4993 18.6848 52.833 18.4398 52.355 18.128V15.7445C52.9199 16.1009 53.5935 16.3905 54.3757 16.6132C55.1579 16.8211 55.8967 16.9251 56.592 16.9251C57.2873 16.9251 57.7943 16.8657 58.1129 16.7469C58.4316 16.6132 58.591 16.3756 58.591 16.0341C58.591 15.7668 58.504 15.5515 58.3302 15.3881C58.1709 15.2099 57.9029 15.054 57.5263 14.9203C57.1641 14.7718 56.5992 14.5936 55.8315 14.3857C54.9623 14.1333 54.2743 13.8734 53.7673 13.6061C53.2748 13.3388 52.8982 13.0047 52.6374 12.6037C52.3912 12.1879 52.268 11.6533 52.268 10.9999C52.268 9.93067 52.6809 9.12876 53.5066 8.59416C54.3322 8.0447 55.4476 7.76998 56.8527 7.76998C57.577 7.76998 58.294 7.84423 59.0038 7.99273C59.7281 8.12638 60.293 8.31943 60.6986 8.57188V10.8662C60.264 10.5989 59.7353 10.3836 59.1124 10.2202C58.4896 10.0569 57.8522 9.97522 57.2003 9.97522C56.4906 9.97522 55.9546 10.0495 55.5925 10.198C55.2303 10.3316 55.0493 10.5989 55.0493 10.9999C55.0493 11.2672 55.1434 11.4825 55.3317 11.6459C55.5345 11.7944 55.7953 11.928 56.1139 12.0468C56.4326 12.1508 57.012 12.3141 57.8522 12.5369C58.7503 12.7893 59.4528 13.0641 59.9598 13.3611C60.4668 13.6581 60.829 14.0145 61.0462 14.4303C61.2635 14.8461 61.3722 15.3658 61.3722 15.9895C61.3722 16.9399 60.9738 17.7047 60.1771 18.2839C59.3949 18.8482 58.2578 19.1303 56.7658 19.1303Z" fill="#0E121B"/>
<path d="M67.4131 19.1303C66.008 19.1303 64.9578 18.7442 64.2625 17.972C63.5672 17.185 63.2196 16.1455 63.2196 14.8535V8.1041H65.9573V14.5862C65.9573 16.1455 66.6671 16.9251 68.0867 16.9251C68.7096 16.9251 69.2962 16.7766 69.8467 16.4796C70.3971 16.1677 70.8607 15.7074 71.2373 15.0985V8.1041H73.975V18.7962H71.3242V17.3483C70.8317 17.9572 70.245 18.4101 69.5642 18.7071C68.8834 18.9893 68.1664 19.1303 67.4131 19.1303Z" fill="#0E121B"/>
<path d="M76.3728 8.1041H79.0236V9.8193C79.4437 9.24014 80.0376 8.80948 80.8053 8.52733C81.5875 8.24518 82.4784 8.1041 83.4779 8.1041V10.2425C82.4205 10.2425 81.5006 10.4133 80.7184 10.7549C79.9507 11.0816 79.4147 11.6013 79.1105 12.3141V18.7962H76.3728V8.1041Z" fill="#0E121B"/>
<path d="M91.3919 19.1303C89.248 19.1303 87.6257 18.5586 86.5248 17.4151C85.4384 16.2568 84.8952 14.6976 84.8952 12.7373V3.22583H87.6546V12.7819C87.6546 14.0145 87.9878 14.9574 88.6541 15.6109C89.335 16.2494 90.2475 16.5687 91.3919 16.5687C92.5218 16.5687 93.4199 16.2494 94.0862 15.6109C94.767 14.9574 95.1074 14.0145 95.1074 12.7819V3.22583H97.8669V12.7373C97.8669 14.6976 97.3237 16.2568 96.2373 17.4151C95.1509 18.5586 93.5357 19.1303 91.3919 19.1303Z" fill="#0E121B"/>
<path d="M99.7236 8.1041H102.374V9.39607C102.939 8.84661 103.555 8.43823 104.221 8.17093C104.888 7.90363 105.648 7.76998 106.503 7.76998C107.56 7.76998 108.502 8.00758 109.327 8.48278C110.168 8.94314 110.819 9.60397 111.283 10.4653C111.761 11.3117 112 12.2993 112 13.4279C112 14.5416 111.761 15.5292 111.283 16.3905C110.819 17.2518 110.168 17.9275 109.327 18.4175C108.502 18.8927 107.56 19.1303 106.503 19.1303C105.706 19.1303 104.953 19.019 104.243 18.7962C103.548 18.5586 102.954 18.2096 102.461 17.7493V23.6745H99.7236V8.1041ZM105.829 16.9251C106.814 16.9251 107.625 16.5984 108.263 15.945C108.9 15.2916 109.219 14.4525 109.219 13.4279C109.219 12.4032 108.9 11.5716 108.263 10.9331C107.625 10.2945 106.814 9.97522 105.829 9.97522C105.047 9.97522 104.352 10.1905 103.743 10.6212C103.135 11.0519 102.708 11.631 102.461 12.3587V14.5194C102.693 15.247 103.113 15.8336 103.722 16.2791C104.344 16.7098 105.047 16.9251 105.829 16.9251Z" fill="#0E121B"/>
</svg>
