<svg width="40" height="40" viewBox="0 0 40 40" fill="none" xmlns="http://www.w3.org/2000/svg">
<path d="M0 10C0 4.47715 4.47715 0 10 0H30C35.5228 0 40 4.47715 40 10V30C40 35.5228 35.5228 40 30 40H10C4.47715 40 0 35.5228 0 30V10Z" fill="#E0FAEC"/>
<path d="M20 29C15.0293 29 11 24.9707 11 20C11 15.0293 15.0293 11 20 11C24.9707 11 29 15.0293 29 20C29 24.9707 24.9707 29 20 29ZM19.1027 23.6L25.4657 17.2361L24.1931 15.9635L19.1027 21.0548L16.5566 18.5087L15.284 19.7813L19.1027 23.6Z" fill="#1FC16B"/>
</svg>
