<svg width="20" height="20" viewBox="0 0 20 20" fill="none" xmlns="http://www.w3.org/2000/svg">
<path d="M11.875 5.78125C12.9968 5.78125 13.9062 4.87183 13.9062 3.75H14.8438C14.8438 4.87183 15.7532 5.78125 16.875 5.78125V6.71875C15.7532 6.71875 14.8438 7.62817 14.8438 8.75H13.9062C13.9062 7.62817 12.9968 6.71875 11.875 6.71875V5.78125ZM5 6.875C5 6.18464 5.55964 5.625 6.25 5.625H10.625V4.375H6.25C4.86929 4.375 3.75 5.49429 3.75 6.875V13.125C3.75 14.5057 4.86929 15.625 6.25 15.625H13.75C15.1307 15.625 16.25 14.5057 16.25 13.125V10H15V13.125C15 13.8154 14.4404 14.375 13.75 14.375H6.25C5.55964 14.375 5 13.8154 5 13.125V6.875Z" fill="#1FC16B"/>
</svg>
