<svg width="20" height="20" viewBox="0 0 20 20" fill="none" xmlns="http://www.w3.org/2000/svg">
<path d="M3.25 6.24998L9.58375 2.02748C9.707 1.94525 9.85184 1.90137 10 1.90137C10.1482 1.90137 10.293 1.94525 10.4163 2.02748L16.75 6.24998V16.75C16.75 16.9489 16.671 17.1397 16.5303 17.2803C16.3897 17.421 16.1989 17.5 16 17.5H4C3.80109 17.5 3.61032 17.421 3.46967 17.2803C3.32902 17.1397 3.25 16.9489 3.25 16.75V6.24998ZM4.75 7.05248V16H15.25V7.05248L10 3.55298L4.75 7.05248ZM7 13H13V14.5H7V13ZM7 10.75H13V12.25H7V10.75ZM10 9.24998C9.60218 9.24998 9.22064 9.09194 8.93934 8.81064C8.65804 8.52934 8.5 8.1478 8.5 7.74998C8.5 7.35215 8.65804 6.97062 8.93934 6.68932C9.22064 6.40801 9.60218 6.24998 10 6.24998C10.3978 6.24998 10.7794 6.40801 11.0607 6.68932C11.342 6.97062 11.5 7.35215 11.5 7.74998C11.5 8.1478 11.342 8.52934 11.0607 8.81064C10.7794 9.09194 10.3978 9.24998 10 9.24998Z" fill="#47C2FF"/>
</svg>
