<svg width="284" height="243" viewBox="0 0 284 243" fill="none" xmlns="http://www.w3.org/2000/svg">
<path d="M0 30C0 13.4315 13.4315 0 30 0H254C270.569 0 284 13.4315 284 30V213C284 229.569 270.569 243 254 243H30C13.4315 243 0 229.569 0 213V30Z" fill="white"/>
<circle cx="126.612" cy="124.895" r="12.8954" fill="#476CFF"/>
<circle cx="88.8954" cy="124.999" r="12.8954" fill="#47C2FF"/>
<circle cx="164.612" cy="124.895" r="12.8954" fill="#1FC16B"/>
<g filter="url(#filter0_d_364_13391)">
<path d="M186 125.4C186 117.447 192.447 111 200.4 111V111C208.353 111 214.8 117.447 214.8 125.4V125.4C214.8 133.353 208.353 139.8 200.4 139.8V139.8C192.447 139.8 186 133.353 186 125.4V125.4Z" fill="white"/>
<path d="M200.4 139.35C192.696 139.35 186.45 133.104 186.45 125.4C186.45 117.696 192.696 111.45 200.4 111.45C208.104 111.45 214.35 117.696 214.35 125.4C214.35 133.104 208.104 139.35 200.4 139.35Z" stroke="#E1E4EA" stroke-width="0.9"/>
<path d="M199.725 124.725V120.675H201.075V124.725H205.125V126.075H201.075V130.125H199.725V126.075H195.675V124.725H199.725Z" fill="#335CFF"/>
</g>
<g filter="url(#filter1_dddddd_364_13391)">
<g clip-path="url(#clip0_364_13391)">
<rect x="75" y="30" width="134" height="57" rx="12.6408" fill="white"/>
<g filter="url(#filter2_i_364_13391)">
<rect x="83.4268" y="38.4268" width="4.21359" height="4.21359" rx="2.1068" fill="#0E3F7E" fill-opacity="0.06"/>
</g>
<g filter="url(#filter3_i_364_13391)">
<rect x="196.087" y="38.4268" width="4.21359" height="4.21359" rx="2.1068" fill="#0E3F7E" fill-opacity="0.06"/>
</g>
<g filter="url(#filter4_i_364_13391)">
<rect x="83.4268" y="74.6016" width="4.21359" height="4.21359" rx="2.1068" fill="#0E3F7E" fill-opacity="0.06"/>
</g>
<g filter="url(#filter5_i_364_13391)">
<rect x="196.087" y="74.6016" width="4.21359" height="4.21359" rx="2.1068" fill="#0E3F7E" fill-opacity="0.06"/>
</g>
<path d="M101.555 62.5H100.273L103.152 54.5H104.547L107.426 62.5H106.145L103.883 55.9531H103.82L101.555 62.5ZM101.77 59.3672H105.926V60.3828H101.77V59.3672ZM110.852 62.6211C110.271 62.6211 109.771 62.4896 109.352 62.2266C108.935 61.9609 108.615 61.5951 108.391 61.1289C108.167 60.6628 108.055 60.1289 108.055 59.5273C108.055 58.918 108.17 58.3802 108.399 57.9141C108.628 57.4453 108.951 57.0794 109.368 56.8164C109.784 56.5534 110.275 56.4219 110.84 56.4219C111.296 56.4219 111.702 56.5065 112.059 56.6758C112.416 56.8424 112.704 57.0768 112.922 57.3789C113.144 57.681 113.275 58.0339 113.317 58.4375H112.18C112.118 58.1562 111.974 57.9141 111.75 57.7109C111.529 57.5078 111.232 57.4062 110.86 57.4062C110.534 57.4062 110.249 57.4922 110.004 57.6641C109.762 57.8333 109.573 58.0755 109.438 58.3906C109.302 58.7031 109.235 59.0729 109.235 59.5C109.235 59.9375 109.301 60.3151 109.434 60.6328C109.567 60.9505 109.754 61.1966 109.997 61.3711C110.241 61.5456 110.529 61.6328 110.86 61.6328C111.081 61.6328 111.282 61.5924 111.461 61.5117C111.644 61.4284 111.796 61.3099 111.918 61.1562C112.043 61.0026 112.131 60.8177 112.18 60.6016H113.317C113.275 60.9896 113.149 61.3359 112.938 61.6406C112.727 61.9453 112.444 62.1849 112.09 62.3594C111.739 62.5339 111.326 62.6211 110.852 62.6211ZM117.086 62.6211C116.495 62.6211 115.986 62.4948 115.558 62.2422C115.134 61.987 114.806 61.6289 114.574 61.168C114.345 60.7044 114.23 60.1615 114.23 59.5391C114.23 58.9245 114.345 58.3828 114.574 57.9141C114.806 57.4453 115.129 57.0794 115.543 56.8164C115.959 56.5534 116.446 56.4219 117.004 56.4219C117.342 56.4219 117.67 56.4779 117.988 56.5898C118.306 56.7018 118.591 56.8776 118.844 57.1172C119.096 57.3568 119.295 57.668 119.441 58.0508C119.587 58.431 119.66 58.8932 119.66 59.4375V59.8516H114.89V58.9766H118.515C118.515 58.6693 118.453 58.3971 118.328 58.1602C118.203 57.9206 118.027 57.7318 117.801 57.5937C117.577 57.4557 117.314 57.3867 117.012 57.3867C116.683 57.3867 116.397 57.4674 116.152 57.6289C115.91 57.7878 115.722 57.9961 115.59 58.2539C115.459 58.5091 115.394 58.7865 115.394 59.0859V59.7695C115.394 60.1706 115.465 60.5117 115.605 60.793C115.749 61.0742 115.948 61.2891 116.203 61.4375C116.458 61.5833 116.756 61.6562 117.097 61.6562C117.319 61.6562 117.521 61.625 117.703 61.5625C117.885 61.4974 118.043 61.401 118.176 61.2734C118.308 61.1458 118.41 60.9883 118.48 60.8008L119.586 61C119.497 61.3255 119.338 61.6107 119.109 61.8555C118.883 62.0977 118.597 62.2865 118.254 62.4219C117.913 62.5547 117.523 62.6211 117.086 62.6211ZM122.058 58.9375V62.5H120.89V56.5H122.011V57.4766H122.085C122.223 57.1589 122.439 56.9036 122.734 56.7109C123.031 56.5182 123.404 56.4219 123.855 56.4219C124.264 56.4219 124.622 56.5078 124.929 56.6797C125.236 56.849 125.475 57.1016 125.644 57.4375C125.813 57.7734 125.898 58.1888 125.898 58.6836V62.5H124.73V58.8242C124.73 58.3893 124.616 58.0495 124.39 57.8047C124.163 57.5573 123.852 57.4336 123.456 57.4336C123.185 57.4336 122.945 57.4922 122.734 57.6094C122.525 57.7266 122.36 57.8984 122.238 58.125C122.118 58.349 122.058 58.6198 122.058 58.9375ZM130.199 56.5V57.4375H126.922V56.5H130.199ZM127.8 55.0625H128.968V60.7383C128.968 60.9648 129.002 61.1354 129.07 61.25C129.138 61.362 129.225 61.4388 129.332 61.4805C129.441 61.5195 129.56 61.5391 129.687 61.5391C129.781 61.5391 129.863 61.5326 129.933 61.5195C130.004 61.5065 130.058 61.4961 130.097 61.4883L130.308 62.4531C130.241 62.4792 130.144 62.5052 130.019 62.5313C129.894 62.5599 129.738 62.5755 129.55 62.5781C129.243 62.5833 128.957 62.5286 128.691 62.4141C128.425 62.2995 128.211 62.1224 128.047 61.8828C127.882 61.6432 127.8 61.3424 127.8 60.9805V55.0625ZM133.946 62.6211C133.355 62.6211 132.846 62.4948 132.419 62.2422C131.995 61.987 131.666 61.6289 131.435 61.168C131.205 60.7044 131.091 60.1615 131.091 59.5391C131.091 58.9245 131.205 58.3828 131.435 57.9141C131.666 57.4453 131.989 57.0794 132.403 56.8164C132.82 56.5534 133.307 56.4219 133.864 56.4219C134.203 56.4219 134.531 56.4779 134.849 56.5898C135.166 56.7018 135.452 56.8776 135.704 57.1172C135.957 57.3568 136.156 57.668 136.302 58.0508C136.448 58.431 136.521 58.8932 136.521 59.4375V59.8516H131.751V58.9766H135.376C135.376 58.6693 135.314 58.3971 135.189 58.1602C135.064 57.9206 134.888 57.7318 134.661 57.5937C134.437 57.4557 134.174 57.3867 133.872 57.3867C133.544 57.3867 133.258 57.4674 133.013 57.6289C132.771 57.7878 132.583 57.9961 132.45 58.2539C132.32 58.5091 132.255 58.7865 132.255 59.0859V59.7695C132.255 60.1706 132.325 60.5117 132.466 60.793C132.609 61.0742 132.808 61.2891 133.064 61.4375C133.319 61.5833 133.617 61.6562 133.958 61.6562C134.179 61.6562 134.381 61.625 134.564 61.5625C134.746 61.4974 134.903 61.401 135.036 61.2734C135.169 61.1458 135.271 60.9883 135.341 60.8008L136.446 61C136.358 61.3255 136.199 61.6107 135.97 61.8555C135.743 62.0977 135.458 62.2865 135.114 62.4219C134.773 62.5547 134.384 62.6211 133.946 62.6211ZM140.689 62.5V54.5H141.896V61.4609H145.521V62.5H140.689ZM149.266 62.6211C148.703 62.6211 148.213 62.4922 147.793 62.2344C147.374 61.9766 147.048 61.6159 146.817 61.1523C146.585 60.6888 146.469 60.1471 146.469 59.5273C146.469 58.9049 146.585 58.3607 146.817 57.8945C147.048 57.4284 147.374 57.0664 147.793 56.8086C148.213 56.5508 148.703 56.4219 149.266 56.4219C149.828 56.4219 150.319 56.5508 150.739 56.8086C151.158 57.0664 151.483 57.4284 151.715 57.8945C151.947 58.3607 152.063 58.9049 152.063 59.5273C152.063 60.1471 151.947 60.6888 151.715 61.1523C151.483 61.6159 151.158 61.9766 150.739 62.2344C150.319 62.4922 149.828 62.6211 149.266 62.6211ZM149.27 61.6406C149.634 61.6406 149.937 61.5443 150.176 61.3516C150.416 61.1589 150.593 60.9023 150.707 60.582C150.825 60.2617 150.883 59.9089 150.883 59.5234C150.883 59.1406 150.825 58.7891 150.707 58.4687C150.593 58.1458 150.416 57.8867 150.176 57.6914C149.937 57.4961 149.634 57.3984 149.27 57.3984C148.903 57.3984 148.598 57.4961 148.356 57.6914C148.116 57.8867 147.938 58.1458 147.821 58.4687C147.706 58.7891 147.649 59.1406 147.649 59.5234C147.649 59.9089 147.706 60.2617 147.821 60.582C147.938 60.9023 148.116 61.1589 148.356 61.3516C148.598 61.5443 148.903 61.6406 149.27 61.6406ZM155.816 64.875C155.34 64.875 154.929 64.8125 154.586 64.6875C154.245 64.5625 153.966 64.3971 153.75 64.1914C153.534 63.9857 153.372 63.7604 153.265 63.5156L154.269 63.1016C154.34 63.2161 154.433 63.3372 154.551 63.4648C154.67 63.5951 154.832 63.7057 155.035 63.7969C155.241 63.888 155.505 63.9336 155.828 63.9336C156.271 63.9336 156.636 63.8255 156.926 63.6094C157.215 63.3958 157.359 63.0547 157.359 62.5859V61.4062H157.285C157.215 61.5339 157.113 61.6758 156.98 61.832C156.85 61.9883 156.67 62.1237 156.441 62.2383C156.212 62.3529 155.914 62.4102 155.547 62.4102C155.073 62.4102 154.646 62.2995 154.265 62.0781C153.888 61.8542 153.588 61.5247 153.367 61.0898C153.148 60.6523 153.039 60.1146 153.039 59.4766C153.039 58.8385 153.147 58.2917 153.363 57.8359C153.582 57.3802 153.881 57.0312 154.261 56.7891C154.642 56.5443 155.073 56.4219 155.554 56.4219C155.927 56.4219 156.228 56.4844 156.457 56.6094C156.686 56.7318 156.864 56.875 156.992 57.0391C157.122 57.2031 157.222 57.3477 157.293 57.4727H157.379V56.5H158.523V62.6328C158.523 63.1484 158.403 63.5716 158.164 63.9023C157.924 64.2331 157.6 64.4779 157.191 64.6367C156.785 64.7956 156.327 64.875 155.816 64.875ZM155.804 61.4414C156.14 61.4414 156.424 61.3633 156.656 61.207C156.89 61.0482 157.067 60.8216 157.187 60.5273C157.31 60.2305 157.371 59.875 157.371 59.4609C157.371 59.0573 157.311 58.7018 157.191 58.3945C157.071 58.0872 156.896 57.8477 156.664 57.6758C156.432 57.5013 156.146 57.4141 155.804 57.4141C155.453 57.4141 155.16 57.5052 154.926 57.6875C154.691 57.8672 154.514 58.112 154.394 58.4219C154.277 58.7318 154.218 59.0781 154.218 59.4609C154.218 59.8542 154.278 60.1992 154.398 60.4961C154.518 60.793 154.695 61.0247 154.929 61.1914C155.166 61.3581 155.458 61.4414 155.804 61.4414ZM162.551 62.6211C161.988 62.6211 161.498 62.4922 161.078 62.2344C160.659 61.9766 160.333 61.6159 160.102 61.1523C159.87 60.6888 159.754 60.1471 159.754 59.5273C159.754 58.9049 159.87 58.3607 160.102 57.8945C160.333 57.4284 160.659 57.0664 161.078 56.8086C161.498 56.5508 161.988 56.4219 162.551 56.4219C163.113 56.4219 163.604 56.5508 164.024 56.8086C164.443 57.0664 164.768 57.4284 165 57.8945C165.232 58.3607 165.348 58.9049 165.348 59.5273C165.348 60.1471 165.232 60.6888 165 61.1523C164.768 61.6159 164.443 61.9766 164.024 62.2344C163.604 62.4922 163.113 62.6211 162.551 62.6211ZM162.555 61.6406C162.919 61.6406 163.222 61.5443 163.461 61.3516C163.701 61.1589 163.878 60.9023 163.992 60.582C164.11 60.2617 164.168 59.9089 164.168 59.5234C164.168 59.1406 164.11 58.7891 163.992 58.4687C163.878 58.1458 163.701 57.8867 163.461 57.6914C163.222 57.4961 162.919 57.3984 162.555 57.3984C162.188 57.3984 161.883 57.4961 161.641 57.6914C161.401 57.8867 161.223 58.1458 161.106 58.4687C160.991 58.7891 160.934 59.1406 160.934 59.5234C160.934 59.9089 160.991 60.2617 161.106 60.582C161.223 60.9023 161.401 61.1589 161.641 61.3516C161.883 61.5443 162.188 61.6406 162.555 61.6406ZM167.753 58.9375V62.5H166.586V56.5H167.707V57.4766H167.781C167.919 57.1589 168.135 56.9036 168.429 56.7109C168.726 56.5182 169.1 56.4219 169.55 56.4219C169.959 56.4219 170.317 56.5078 170.625 56.6797C170.932 56.849 171.17 57.1016 171.339 57.4375C171.509 57.7734 171.593 58.1888 171.593 58.6836V62.5H170.425V58.8242C170.425 58.3893 170.312 58.0495 170.086 57.8047C169.859 57.5573 169.548 57.4336 169.152 57.4336C168.881 57.4336 168.64 57.4922 168.429 57.6094C168.221 57.7266 168.056 57.8984 167.933 58.125C167.813 58.349 167.753 58.6198 167.753 58.9375ZM176.895 60.0117V56.5H178.066V62.5H176.918V61.4609H176.855C176.717 61.7813 176.496 62.0482 176.191 62.2617C175.889 62.4727 175.513 62.5781 175.062 62.5781C174.677 62.5781 174.336 62.4935 174.039 62.3242C173.745 62.1523 173.513 61.8984 173.344 61.5625C173.177 61.2266 173.094 60.8112 173.094 60.3164V56.5H174.262V60.1758C174.262 60.5846 174.375 60.9102 174.602 61.1523C174.828 61.3945 175.122 61.5156 175.484 61.5156C175.703 61.5156 175.921 61.4609 176.137 61.3516C176.355 61.2422 176.536 61.0768 176.68 60.8555C176.826 60.6341 176.897 60.3529 176.895 60.0117ZM179.445 62.5V61.6992L182.695 57.5703V57.5156H179.55V56.5H184.152V57.3516L181.027 61.4297V61.4844H184.261V62.5H179.445Z" fill="#0E121B"/>
<path d="M107 102.5L195.86 13.6394L236.083 78.8567L185.108 139.999L107 102.5Z" fill="url(#paint0_linear_364_13391)" fill-opacity="0.04"/>
</g>
</g>
<path d="M74.0053 180.81V173.828H75.0587V177.162H75.144L78.0724 173.828H79.3985L76.5826 176.971L79.4087 180.81H78.1406L75.8837 177.69L75.0587 178.638V180.81H74.0053ZM81.7648 180.925C81.433 180.925 81.133 180.864 80.8648 180.741C80.5966 180.616 80.3841 180.436 80.2273 180.199C80.0727 179.963 79.9955 179.673 79.9955 179.33C79.9955 179.035 80.0523 178.791 80.1659 178.6C80.2795 178.41 80.433 178.258 80.6261 178.147C80.8193 178.036 81.0352 177.952 81.2739 177.895C81.5125 177.838 81.7557 177.795 82.0034 177.765C82.317 177.729 82.5716 177.699 82.767 177.677C82.9625 177.652 83.1045 177.612 83.1932 177.557C83.2818 177.503 83.3261 177.414 83.3261 177.291V177.268C83.3261 176.97 83.242 176.739 83.0739 176.575C82.908 176.412 82.6602 176.33 82.3307 176.33C81.9875 176.33 81.717 176.406 81.5193 176.558C81.3239 176.708 81.1886 176.875 81.1136 177.06L80.1557 176.841C80.2693 176.523 80.4352 176.266 80.6534 176.071C80.8739 175.873 81.1273 175.73 81.4136 175.641C81.7 175.55 82.0011 175.505 82.317 175.505C82.5261 175.505 82.7477 175.53 82.9818 175.58C83.2182 175.628 83.4386 175.716 83.6432 175.846C83.85 175.975 84.0193 176.161 84.1511 176.402C84.283 176.64 84.3489 176.95 84.3489 177.332V180.81H83.3534V180.094H83.3125C83.2466 180.225 83.1477 180.355 83.0159 180.482C82.8841 180.61 82.7148 180.715 82.508 180.799C82.3011 180.883 82.0534 180.925 81.7648 180.925ZM81.9864 180.107C82.2682 180.107 82.5091 180.052 82.7091 179.94C82.9114 179.829 83.0648 179.683 83.1693 179.504C83.2761 179.322 83.3295 179.128 83.3295 178.921V178.246C83.2932 178.282 83.2227 178.316 83.1182 178.348C83.0159 178.378 82.8989 178.404 82.767 178.427C82.6352 178.447 82.5068 178.466 82.3818 178.485C82.2568 178.5 82.1523 178.514 82.0682 178.525C81.8705 178.55 81.6898 178.593 81.5261 178.652C81.3648 178.711 81.2352 178.796 81.1375 178.907C81.042 179.016 80.9943 179.162 80.9943 179.344C80.9943 179.596 81.0875 179.787 81.2739 179.916C81.4602 180.044 81.6977 180.107 81.9864 180.107ZM89.5728 176.852L88.6489 177.015C88.6103 176.897 88.5489 176.785 88.4648 176.678C88.383 176.571 88.2717 176.483 88.1308 176.415C87.9898 176.347 87.8137 176.313 87.6023 176.313C87.3137 176.313 87.0728 176.378 86.8796 176.507C86.6864 176.635 86.5898 176.799 86.5898 177.002C86.5898 177.177 86.6546 177.318 86.7842 177.424C86.9137 177.531 87.1228 177.619 87.4114 177.687L88.2433 177.878C88.7251 177.989 89.0842 178.161 89.3205 178.393C89.5569 178.624 89.6751 178.925 89.6751 179.296C89.6751 179.61 89.5842 179.889 89.4023 180.135C89.2228 180.378 88.9717 180.569 88.6489 180.707C88.3285 180.846 87.9569 180.915 87.5342 180.915C86.9478 180.915 86.4694 180.79 86.0989 180.54C85.7285 180.288 85.5012 179.93 85.4171 179.466L86.4023 179.316C86.4637 179.573 86.5898 179.768 86.7808 179.899C86.9717 180.029 87.2205 180.094 87.5273 180.094C87.8614 180.094 88.1285 180.024 88.3285 179.886C88.5285 179.745 88.6285 179.573 88.6285 179.371C88.6285 179.207 88.5671 179.07 88.4444 178.958C88.3239 178.847 88.1387 178.763 87.8887 178.706L87.0023 178.512C86.5137 178.4 86.1523 178.223 85.9183 177.98C85.6864 177.737 85.5705 177.429 85.5705 177.056C85.5705 176.747 85.6569 176.477 85.8296 176.245C86.0023 176.013 86.241 175.832 86.5455 175.703C86.8501 175.571 87.1989 175.505 87.5921 175.505C88.158 175.505 88.6035 175.628 88.9285 175.873C89.2535 176.116 89.4683 176.443 89.5728 176.852ZM91.6757 179.033L91.6689 177.789H91.8462L93.9325 175.573H95.153L92.7734 178.096H92.6132L91.6757 179.033ZM90.7382 180.81V173.828H91.7575V180.81H90.7382ZM94.045 180.81L92.17 178.321L92.8723 177.608L95.2962 180.81H94.045ZM98.0144 180.915C97.5235 180.915 97.0951 180.803 96.7292 180.578C96.3633 180.353 96.0792 180.038 95.8769 179.633C95.6746 179.229 95.5735 178.756 95.5735 178.215C95.5735 177.672 95.6746 177.197 95.8769 176.79C96.0792 176.383 96.3633 176.068 96.7292 175.843C97.0951 175.618 97.5235 175.505 98.0144 175.505C98.5053 175.505 98.9337 175.618 99.2996 175.843C99.6655 176.068 99.9496 176.383 100.152 176.79C100.354 177.197 100.455 177.672 100.455 178.215C100.455 178.756 100.354 179.229 100.152 179.633C99.9496 180.038 99.6655 180.353 99.2996 180.578C98.9337 180.803 98.5053 180.915 98.0144 180.915ZM98.0178 180.06C98.336 180.06 98.5996 179.975 98.8087 179.807C99.0178 179.639 99.1724 179.415 99.2724 179.136C99.3746 178.856 99.4258 178.548 99.4258 178.212C99.4258 177.878 99.3746 177.571 99.2724 177.291C99.1724 177.01 99.0178 176.783 98.8087 176.613C98.5996 176.443 98.336 176.357 98.0178 176.357C97.6974 176.357 97.4315 176.443 97.2201 176.613C97.011 176.783 96.8553 177.01 96.7531 177.291C96.6531 177.571 96.6031 177.878 96.6031 178.212C96.6031 178.548 96.6531 178.856 96.7531 179.136C96.8553 179.415 97.011 179.639 97.2201 179.807C97.4315 179.975 97.6974 180.06 98.0178 180.06Z" fill="#525866"/>
<path d="M140.328 173.973V173.066H145.731V173.973H143.553V180.048H142.503V173.973H140.328ZM146.242 180.048V174.811H147.228V175.643H147.282C147.378 175.361 147.546 175.14 147.787 174.979C148.03 174.815 148.305 174.733 148.612 174.733C148.675 174.733 148.75 174.735 148.837 174.74C148.925 174.744 148.995 174.75 149.045 174.757V175.732C149.004 175.721 148.931 175.708 148.826 175.694C148.722 175.679 148.617 175.671 148.513 175.671C148.272 175.671 148.057 175.722 147.868 175.824C147.682 175.924 147.534 176.064 147.425 176.243C147.316 176.421 147.262 176.623 147.262 176.85V180.048H146.242ZM151.346 180.164C151.014 180.164 150.714 180.102 150.446 179.98C150.178 179.855 149.965 179.674 149.809 179.438C149.654 179.201 149.577 178.911 149.577 178.568C149.577 178.273 149.634 178.03 149.747 177.839C149.861 177.648 150.014 177.497 150.207 177.385C150.401 177.274 150.616 177.19 150.855 177.133C151.094 177.076 151.337 177.033 151.585 177.004C151.898 176.967 152.153 176.938 152.348 176.915C152.544 176.89 152.686 176.85 152.774 176.796C152.863 176.741 152.907 176.652 152.907 176.53V176.506C152.907 176.208 152.823 175.977 152.655 175.814C152.489 175.65 152.241 175.568 151.912 175.568C151.569 175.568 151.298 175.644 151.101 175.797C150.905 175.947 150.77 176.114 150.695 176.298L149.737 176.08C149.851 175.761 150.016 175.505 150.235 175.309C150.455 175.111 150.709 174.968 150.995 174.88C151.281 174.789 151.582 174.743 151.898 174.743C152.107 174.743 152.329 174.768 152.563 174.818C152.799 174.866 153.02 174.955 153.224 175.084C153.431 175.214 153.601 175.399 153.732 175.64C153.864 175.879 153.93 176.189 153.93 176.571V180.048H152.935V179.332H152.894C152.828 179.464 152.729 179.593 152.597 179.721C152.465 179.848 152.296 179.954 152.089 180.038C151.882 180.122 151.635 180.164 151.346 180.164ZM151.568 179.346C151.849 179.346 152.09 179.29 152.29 179.179C152.493 179.067 152.646 178.922 152.751 178.742C152.857 178.56 152.911 178.366 152.911 178.159V177.484C152.874 177.521 152.804 177.555 152.699 177.586C152.597 177.616 152.48 177.642 152.348 177.665C152.216 177.685 152.088 177.705 151.963 177.723C151.838 177.739 151.734 177.752 151.649 177.764C151.452 177.789 151.271 177.831 151.107 177.89C150.946 177.949 150.816 178.034 150.719 178.146C150.623 178.255 150.576 178.4 150.576 178.582C150.576 178.834 150.669 179.025 150.855 179.155C151.041 179.282 151.279 179.346 151.568 179.346ZM157.722 174.811V175.63H154.763V174.811H157.722ZM155.575 180.048V174.205C155.575 173.877 155.646 173.606 155.789 173.39C155.932 173.172 156.122 173.009 156.359 172.902C156.595 172.793 156.852 172.739 157.129 172.739C157.334 172.739 157.509 172.756 157.654 172.79C157.8 172.822 157.907 172.851 157.978 172.879L157.739 173.704C157.692 173.69 157.63 173.674 157.555 173.656C157.48 173.635 157.389 173.625 157.282 173.625C157.035 173.625 156.857 173.686 156.751 173.809C156.646 173.932 156.594 174.109 156.594 174.341V180.048H155.575ZM158.716 180.048V174.811H159.736V180.048H158.716ZM159.231 174.004C159.054 174.004 158.902 173.944 158.774 173.826C158.649 173.706 158.587 173.563 158.587 173.397C158.587 173.229 158.649 173.085 158.774 172.967C158.902 172.847 159.054 172.786 159.231 172.786C159.408 172.786 159.56 172.847 159.685 172.967C159.812 173.085 159.875 173.229 159.875 173.397C159.875 173.563 159.812 173.706 159.685 173.826C159.56 173.944 159.408 174.004 159.231 174.004ZM161.987 178.272L161.98 177.027H162.157L164.244 174.811H165.464L163.085 177.334H162.924L161.987 178.272ZM161.049 180.048V173.066H162.069V180.048H161.049ZM164.356 180.048L162.481 177.559L163.183 176.847L165.607 180.048H164.356Z" fill="#525866"/>
<path d="M205.09 174.735V173.828H210.493V174.735H208.315V180.81H207.265V174.735H205.09ZM215.438 175.662C215.401 175.339 215.251 175.089 214.988 174.912C214.724 174.732 214.392 174.643 213.992 174.643C213.706 174.643 213.458 174.688 213.249 174.779C213.04 174.868 212.877 174.99 212.761 175.147C212.648 175.302 212.591 175.478 212.591 175.675C212.591 175.841 212.63 175.985 212.707 176.105C212.786 176.225 212.89 176.327 213.017 176.408C213.147 176.488 213.285 176.555 213.433 176.61C213.581 176.662 213.723 176.705 213.859 176.739L214.541 176.916C214.764 176.971 214.992 177.045 215.226 177.138C215.46 177.231 215.677 177.354 215.877 177.506C216.077 177.658 216.239 177.847 216.361 178.072C216.486 178.297 216.549 178.566 216.549 178.88C216.549 179.275 216.447 179.627 216.242 179.933C216.04 180.24 215.745 180.482 215.359 180.66C214.975 180.837 214.51 180.925 213.965 180.925C213.442 180.925 212.99 180.843 212.608 180.677C212.226 180.511 211.927 180.275 211.711 179.971C211.495 179.664 211.376 179.3 211.353 178.88H212.41C212.431 179.132 212.513 179.343 212.656 179.511C212.801 179.677 212.986 179.8 213.211 179.882C213.439 179.962 213.688 180.002 213.958 180.002C214.256 180.002 214.52 179.955 214.752 179.862C214.986 179.766 215.17 179.635 215.305 179.466C215.439 179.296 215.506 179.097 215.506 178.87C215.506 178.663 215.447 178.494 215.328 178.362C215.213 178.23 215.055 178.121 214.855 178.035C214.657 177.948 214.433 177.872 214.183 177.806L213.358 177.581C212.799 177.429 212.356 177.205 212.028 176.91C211.703 176.614 211.541 176.223 211.541 175.737C211.541 175.335 211.65 174.983 211.868 174.683C212.086 174.383 212.382 174.15 212.755 173.985C213.127 173.816 213.548 173.732 214.016 173.732C214.489 173.732 214.906 173.815 215.267 173.981C215.631 174.147 215.917 174.375 216.126 174.666C216.335 174.955 216.444 175.287 216.453 175.662H215.438ZM221.558 175.662C221.522 175.339 221.372 175.089 221.108 174.912C220.844 174.732 220.513 174.643 220.113 174.643C219.826 174.643 219.578 174.688 219.369 174.779C219.16 174.868 218.998 174.99 218.882 175.147C218.768 175.302 218.711 175.478 218.711 175.675C218.711 175.841 218.75 175.985 218.827 176.105C218.907 176.225 219.01 176.327 219.138 176.408C219.267 176.488 219.406 176.555 219.553 176.61C219.701 176.662 219.843 176.705 219.98 176.739L220.661 176.916C220.884 176.971 221.113 177.045 221.347 177.138C221.581 177.231 221.798 177.354 221.998 177.506C222.198 177.658 222.359 177.847 222.482 178.072C222.607 178.297 222.669 178.566 222.669 178.88C222.669 179.275 222.567 179.627 222.363 179.933C222.16 180.24 221.866 180.482 221.48 180.66C221.096 180.837 220.631 180.925 220.085 180.925C219.563 180.925 219.11 180.843 218.728 180.677C218.347 180.511 218.048 180.275 217.832 179.971C217.616 179.664 217.497 179.3 217.474 178.88H218.531C218.551 179.132 218.633 179.343 218.776 179.511C218.922 179.677 219.107 179.8 219.332 179.882C219.559 179.962 219.808 180.002 220.078 180.002C220.376 180.002 220.641 179.955 220.873 179.862C221.107 179.766 221.291 179.635 221.425 179.466C221.559 179.296 221.626 179.097 221.626 178.87C221.626 178.663 221.567 178.494 221.449 178.362C221.333 178.23 221.175 178.121 220.975 178.035C220.777 177.948 220.553 177.872 220.303 177.806L219.478 177.581C218.919 177.429 218.476 177.205 218.149 176.91C217.824 176.614 217.661 176.223 217.661 175.737C217.661 175.335 217.771 174.983 217.989 174.683C218.207 174.383 218.502 174.15 218.875 173.985C219.248 173.816 219.668 173.732 220.136 173.732C220.609 173.732 221.026 173.815 221.388 173.981C221.751 174.147 222.038 174.375 222.247 174.666C222.456 174.955 222.565 175.287 222.574 175.662H221.558Z" fill="#525866"/>
<path d="M75.8847 209.762H73.6245V202.78H75.9563C76.6404 202.78 77.2279 202.92 77.7188 203.199C78.2097 203.476 78.5858 203.875 78.8472 204.396C79.1108 204.914 79.2426 205.536 79.2426 206.261C79.2426 206.988 79.1097 207.613 78.8438 208.136C78.5801 208.658 78.1983 209.061 77.6983 209.342C77.1983 209.622 76.5938 209.762 75.8847 209.762ZM74.6779 208.841H75.8267C76.3586 208.841 76.8006 208.741 77.1529 208.541C77.5051 208.339 77.7688 208.047 77.9438 207.665C78.1188 207.281 78.2063 206.813 78.2063 206.261C78.2063 205.713 78.1188 205.248 77.9438 204.866C77.7711 204.484 77.5131 204.195 77.1699 203.997C76.8267 203.799 76.4006 203.7 75.8915 203.7H74.6779V208.841ZM80.7379 209.762H79.6197L82.1322 202.78H83.3493L85.8618 209.762H84.7436L82.7697 204.048H82.7152L80.7379 209.762ZM80.9254 207.028H84.5527V207.914H80.9254V207.028ZM90.5641 204.614C90.5277 204.291 90.3777 204.041 90.1141 203.864C89.8505 203.684 89.5186 203.595 89.1186 203.595C88.8323 203.595 88.5846 203.64 88.3755 203.731C88.1664 203.82 88.0039 203.942 87.888 204.099C87.7743 204.254 87.7175 204.43 87.7175 204.628C87.7175 204.794 87.7561 204.937 87.8334 205.057C87.913 205.178 88.0164 205.279 88.1436 205.361C88.2732 205.44 88.4118 205.507 88.5596 205.562C88.7073 205.614 88.8493 205.657 88.9857 205.691L89.6675 205.869C89.8902 205.923 90.1186 205.997 90.3527 206.09C90.5868 206.183 90.8039 206.306 91.0039 206.458C91.2039 206.611 91.3652 206.799 91.488 207.024C91.613 207.249 91.6755 207.519 91.6755 207.832C91.6755 208.228 91.5732 208.579 91.3686 208.886C91.1664 209.192 90.8721 209.434 90.4857 209.612C90.1016 209.789 89.6368 209.878 89.0914 209.878C88.5686 209.878 88.1164 209.795 87.7346 209.629C87.3527 209.463 87.0539 209.228 86.838 208.923C86.6221 208.616 86.5027 208.253 86.48 207.832H87.5368C87.5573 208.084 87.6391 208.295 87.7823 208.463C87.9277 208.629 88.113 208.753 88.338 208.834C88.5652 208.914 88.8141 208.954 89.0846 208.954C89.3823 208.954 89.6471 208.907 89.8789 208.814C90.113 208.719 90.2971 208.587 90.4311 208.419C90.5652 208.248 90.6323 208.049 90.6323 207.822C90.6323 207.615 90.5732 207.446 90.455 207.314C90.3391 207.182 90.1811 207.073 89.9811 206.987C89.7834 206.9 89.5596 206.824 89.3096 206.758L88.4846 206.533C87.9255 206.381 87.4823 206.157 87.155 205.862C86.83 205.566 86.6675 205.175 86.6675 204.689C86.6675 204.287 86.7766 203.936 86.9948 203.636C87.213 203.336 87.5084 203.103 87.8811 202.937C88.2539 202.769 88.6743 202.684 89.1425 202.684C89.6152 202.684 90.0323 202.767 90.3936 202.933C90.7573 203.099 91.0436 203.328 91.2527 203.619C91.4618 203.907 91.5709 204.239 91.58 204.614H90.5641ZM92.8767 209.762V202.78H93.9301V206.114H94.0153L96.9437 202.78H98.2698L95.4539 205.923L98.2801 209.762H97.0119L94.7551 206.642L93.9301 207.59V209.762H92.8767Z" fill="#525866"/>
<path d="M142.196 209.762V202.78H143.249V206.114H143.334L146.263 202.78H147.589L144.773 205.923L147.599 209.762H146.331L144.074 206.642L143.249 207.59V209.762H142.196ZM150.253 209.867C149.762 209.867 149.333 209.755 148.967 209.53C148.602 209.305 148.317 208.99 148.115 208.586C147.913 208.181 147.812 207.708 147.812 207.167C147.812 206.624 147.913 206.149 148.115 205.742C148.317 205.336 148.602 205.02 148.967 204.795C149.333 204.57 149.762 204.457 150.253 204.457C150.744 204.457 151.172 204.57 151.538 204.795C151.904 205.02 152.188 205.336 152.39 205.742C152.592 206.149 152.694 206.624 152.694 207.167C152.694 207.708 152.592 208.181 152.39 208.586C152.188 208.99 151.904 209.305 151.538 209.53C151.172 209.755 150.744 209.867 150.253 209.867ZM150.256 209.012C150.574 209.012 150.838 208.928 151.047 208.759C151.256 208.591 151.411 208.367 151.511 208.088C151.613 207.808 151.664 207.5 151.664 207.164C151.664 206.83 151.613 206.523 151.511 206.244C151.411 205.962 151.256 205.736 151.047 205.565C150.838 205.395 150.574 205.309 150.256 205.309C149.936 205.309 149.67 205.395 149.458 205.565C149.249 205.736 149.094 205.962 148.991 206.244C148.891 206.523 148.841 206.83 148.841 207.164C148.841 207.5 148.891 207.808 148.991 208.088C149.094 208.367 149.249 208.591 149.458 208.759C149.67 208.928 149.936 209.012 150.256 209.012ZM154.793 206.653V209.762H153.774V204.525H154.752V205.378H154.817C154.937 205.1 155.126 204.878 155.383 204.709C155.642 204.541 155.968 204.457 156.361 204.457C156.718 204.457 157.031 204.532 157.299 204.682C157.567 204.83 157.775 205.05 157.923 205.344C158.07 205.637 158.144 205.999 158.144 206.431V209.762H157.125V206.554C157.125 206.174 157.026 205.878 156.828 205.664C156.631 205.448 156.359 205.34 156.014 205.34C155.777 205.34 155.567 205.391 155.383 205.494C155.201 205.596 155.057 205.746 154.95 205.944C154.845 206.139 154.793 206.375 154.793 206.653ZM162.771 207.59V204.525H163.793V209.762H162.791V208.855H162.737C162.616 209.134 162.423 209.367 162.157 209.554C161.893 209.738 161.565 209.83 161.172 209.83C160.835 209.83 160.538 209.756 160.279 209.608C160.022 209.458 159.82 209.237 159.672 208.944C159.526 208.65 159.454 208.288 159.454 207.856V204.525H160.473V207.733C160.473 208.09 160.572 208.374 160.77 208.586C160.967 208.797 161.224 208.903 161.54 208.903C161.731 208.903 161.921 208.855 162.109 208.759C162.3 208.664 162.458 208.52 162.583 208.326C162.71 208.133 162.773 207.888 162.771 207.59ZM167.55 204.525V205.344H164.69V204.525H167.55ZM165.457 203.271H166.476V208.224C166.476 208.422 166.505 208.571 166.565 208.671C166.624 208.769 166.7 208.836 166.793 208.872C166.888 208.906 166.992 208.923 167.103 208.923C167.185 208.923 167.257 208.917 167.318 208.906C167.379 208.895 167.427 208.886 167.461 208.879L167.645 209.721C167.586 209.744 167.502 209.766 167.393 209.789C167.284 209.814 167.147 209.828 166.984 209.83C166.716 209.834 166.466 209.787 166.234 209.687C166.002 209.587 165.815 209.432 165.671 209.223C165.528 209.014 165.457 208.751 165.457 208.436V203.271Z" fill="#525866"/>
<path d="M206.487 202.78V209.762H205.434V202.78H206.487ZM205.962 201.972C205.785 201.972 205.633 201.913 205.506 201.795C205.381 201.674 205.318 201.531 205.318 201.365C205.318 201.197 205.381 201.054 205.506 200.936C205.633 200.815 205.785 200.755 205.962 200.755C206.14 200.755 206.291 200.815 206.416 200.936C206.543 201.054 206.607 201.197 206.607 201.365C206.607 201.531 206.543 201.674 206.416 201.795C206.291 201.913 206.14 201.972 205.962 201.972ZM207.964 202.78H209.242L211.465 208.207H211.547L213.77 202.78H215.048V209.762H214.046V204.709H213.981L211.922 209.751H211.09L209.031 204.706H208.966V209.762H207.964V202.78ZM216.522 202.78H217.8L220.023 208.207H220.105L222.328 202.78H223.606V209.762H222.604V204.709H222.539L220.48 209.751H219.648L217.589 204.706H217.524V209.762H216.522V202.78Z" fill="#525866"/>
<g clip-path="url(#clip1_364_13391)">
<path d="M54.9221 177.932L53.3435 177.592C52.9102 177.499 52.5078 177.839 52.5078 178.272V178.922C52.5078 179.449 52.9102 179.572 53.4054 179.572H55.1388C55.4792 179.572 55.8197 179.511 55.8197 179.139V179.046C55.8197 178.489 55.4483 178.025 54.9221 177.932ZM53.0959 178.922C53.0959 178.892 53.0959 178.892 53.0959 178.242C53.0959 178.18 53.1578 178.118 53.2197 178.149L54.7983 178.489C55.015 178.551 55.1697 178.737 55.2007 178.953C54.1173 178.953 53.1888 178.953 53.0959 178.922Z" fill="#525866"/>
<path d="M68.9738 174.621L66.7452 173.569C66.0024 173.228 65.1976 173.104 64.4238 173.259L64.0833 172.578C63.8357 171.959 63.2476 171.526 62.5667 171.526H55.3238C54.6429 171.526 54.0548 171.928 53.8071 172.547L52.6 175.054C52.3214 174.652 51.8571 174.404 51.3619 174.404H50.8357C50.3714 174.404 50 174.776 50 175.24V175.581C50 176.045 50.3714 176.416 50.8357 176.416H51.6405C51.3 176.85 51.1452 177.407 51.1452 177.964V179.821C51.1452 180.533 51.3929 181.214 51.8881 181.802V183.195C51.8881 183.814 52.3833 184.309 53.0024 184.309H54.1476C54.7667 184.309 55.2619 183.814 55.2619 183.195V182.638H61.4524C62.8143 184.495 64.95 185.3 64.981 185.3C65.0429 185.331 65.1048 185.331 65.1976 185.3C65.2286 185.269 69.8095 183.597 69.8095 179.419V175.952C69.8095 175.395 69.469 174.869 68.9738 174.621ZM54.3643 172.795C54.519 172.393 54.8905 172.145 55.3238 172.145H62.5667C63 172.145 63.3714 172.393 63.5571 172.826L63.8357 173.414C63.7119 173.445 63.5881 173.507 63.4643 173.569L61.2357 174.621C60.7405 174.869 60.4 175.364 60.4 175.921H52.8167C52.9405 175.735 52.8167 176.045 54.3643 172.795ZM50.619 175.581V175.24C50.619 175.116 50.7119 175.023 50.8357 175.023H51.3619C51.981 175.023 52.1976 175.581 52.2595 175.673C52.2286 175.735 52.1976 175.766 52.1357 175.828H50.8357C50.7119 175.797 50.619 175.704 50.619 175.581ZM54.6429 183.164C54.6429 183.443 54.4262 183.659 54.1476 183.659H52.9714C52.6929 183.69 52.4762 183.443 52.4762 183.164V182.266C52.8476 182.483 53.281 182.607 53.7143 182.607H54.6429V183.164ZM53.6833 182.019C52.569 182.019 51.7024 180.935 51.7024 179.79V177.933C51.7024 177.407 51.919 176.912 52.2905 176.509H60.4V179.233H56.9952C56.8405 179.233 56.6857 179.357 56.6857 179.543C56.6857 179.728 56.8095 179.852 56.9952 179.852H60.431C60.4619 180.069 60.4619 180.254 60.5238 180.44H56.9952C56.8405 180.44 56.6857 180.564 56.6857 180.75C56.6857 180.935 56.8095 181.059 56.9952 181.059H60.6476C60.7714 181.4 60.8952 181.74 61.081 182.019H53.6833ZM69.1905 179.419C69.1905 182.854 65.7238 184.433 65.1048 184.681C62.8762 183.783 61.019 181.864 61.019 179.419C61.019 178.273 61.019 177.654 61.019 175.952C61.019 175.612 61.2048 175.333 61.5143 175.178L63.7429 174.126C64.6405 173.693 65.631 173.693 66.5286 174.126L68.7571 175.178C69.0357 175.333 69.2524 175.612 69.2524 175.952V179.419H69.1905Z" fill="#525866"/>
<path d="M68.1381 175.89L66.0953 174.93C65.4762 174.621 64.7024 174.621 64.0834 174.93L62.0715 175.89C61.9786 175.952 61.8857 176.045 61.8857 176.168V179.418C61.8857 181.864 64.0215 183.195 64.95 183.659C65.0429 183.69 65.1357 183.69 65.2286 183.659C66.1572 183.195 68.2929 181.864 68.2929 179.418V176.168C68.2929 176.045 68.231 175.952 68.1381 175.89ZM67.7048 179.418C67.7048 181.399 65.9715 182.576 65.1048 183.04C64.0834 182.483 62.5048 181.368 62.5048 179.418V176.354L64.3619 175.457C64.8262 175.24 65.3834 175.24 65.8476 175.457L67.7048 176.354V179.418Z" fill="#525866"/>
<path d="M63.8973 179.326C63.7735 179.233 63.5878 179.264 63.464 179.387C63.3402 179.511 63.4021 179.697 63.5259 179.821L64.7021 180.718C64.8259 180.811 65.0116 180.78 65.1354 180.657L66.8687 178.397C66.9616 178.273 66.9306 178.087 66.8068 177.964C66.683 177.871 66.4973 177.902 66.3735 178.026L64.8259 180.037L63.8973 179.326Z" fill="#525866"/>
</g>
<path d="M127.915 179.867L126.72 179.624C126.527 179.585 126.335 179.632 126.182 179.757C126.03 179.882 125.945 180.06 125.945 180.258V180.707C125.945 181.021 126.201 181.278 126.515 181.278H128.256C128.487 181.278 128.675 181.09 128.675 180.859V180.797C128.675 180.341 128.363 179.958 127.915 179.867ZM126.515 180.742C126.497 180.742 126.481 180.726 126.481 180.707V180.258C126.481 180.221 126.492 180.196 126.521 180.172C126.543 180.155 126.563 180.146 126.587 180.146C126.595 180.146 126.604 180.147 126.613 180.149L127.808 180.392C127.985 180.428 128.113 180.568 128.136 180.742H126.515V180.742ZM133.173 181.221C133.173 181.369 133.052 181.489 132.905 181.489H129.574C129.426 181.489 129.306 181.369 129.306 181.221C129.306 181.073 129.426 180.953 129.574 180.953H132.905C133.053 180.953 133.173 181.073 133.173 181.221ZM133.173 182.191C133.173 182.339 133.052 182.459 132.905 182.459H129.574C129.426 182.459 129.306 182.339 129.306 182.191C129.306 182.043 129.426 181.923 129.574 181.923H132.905C133.053 181.923 133.173 182.043 133.173 182.191ZM136.297 179.758C136.143 179.633 135.952 179.585 135.759 179.625L134.564 179.867C134.116 179.959 133.803 180.341 133.803 180.798V180.859C133.803 181.09 133.991 181.278 134.223 181.278H135.963C136.278 181.278 136.534 181.022 136.534 180.707V180.258C136.534 180.06 136.45 179.883 136.297 179.758ZM135.998 180.707C135.998 180.726 135.982 180.742 135.963 180.742H134.343C134.365 180.568 134.493 180.428 134.67 180.392L135.865 180.15C135.902 180.142 135.929 180.149 135.958 180.172C135.987 180.196 135.998 180.221 135.998 180.258V180.707H135.998ZM137.843 177.092H137.356C136.977 177.092 136.642 177.277 136.435 177.562L135.456 175.545C135.216 175.05 134.744 174.755 134.193 174.755H128.768H128.359H128.285C128.005 174.755 127.745 174.832 127.526 174.972L126.801 173.478C126.591 173.046 126.18 172.789 125.7 172.789H120.731C120.252 172.789 119.84 173.046 119.631 173.478L118.838 175.113C118.654 174.894 118.379 174.755 118.072 174.755H117.663C117.313 174.755 117.028 175.039 117.028 175.389V175.544C117.028 175.957 117.364 176.292 117.776 176.292H117.969C117.798 176.566 117.729 176.904 117.729 177.174V178.507C117.729 179.047 117.954 179.536 118.314 179.884V180.763C118.314 181.2 118.67 181.556 119.108 181.556H119.908C120.345 181.556 120.701 181.2 120.701 180.763V180.421H124.766V181.504C124.766 182.14 125.034 182.713 125.462 183.12V184.186C125.462 184.679 125.863 185.079 126.355 185.079H127.306C127.798 185.079 128.198 184.679 128.198 184.186V183.729H134.28V184.186C134.28 184.679 134.68 185.079 135.172 185.079H136.123C136.615 185.079 137.016 184.679 137.016 184.186V182.964C137.356 182.573 137.563 182.062 137.563 181.504V179.918C137.563 179.579 137.471 179.146 137.233 178.818H137.707C138.169 178.818 138.545 178.442 138.545 177.98V177.796C138.546 177.407 138.231 177.092 137.843 177.092ZM128.285 175.29H128.359H128.768H134.193C134.539 175.29 134.823 175.468 134.974 175.779L136.189 178.282H136.135H126.343H126.289L127.504 175.779C127.655 175.468 127.939 175.29 128.285 175.29ZM124.468 177.98V177.795C124.468 177.704 124.545 177.627 124.636 177.627H125.123C125.451 177.627 125.718 177.891 125.725 178.218L125.694 178.282H124.771C124.604 178.283 124.468 178.146 124.468 177.98ZM120.113 173.712C120.232 173.466 120.457 173.325 120.731 173.325H125.7C125.974 173.325 126.199 173.466 126.318 173.712L127.123 175.37C127.085 175.425 127.052 175.484 127.022 175.546L126.92 175.756H119.121L120.113 173.712ZM117.564 175.544V175.389C117.564 175.335 117.609 175.29 117.663 175.29H118.072C118.322 175.29 118.525 175.488 118.535 175.735L118.526 175.755L117.776 175.756C117.659 175.756 117.564 175.661 117.564 175.544ZM118.265 178.507V177.174C118.265 176.971 118.335 176.549 118.6 176.396C118.719 176.327 118.866 176.292 119.035 176.292H119.098H126.66L126.043 177.562C125.836 177.278 125.501 177.092 125.123 177.092H124.636C124.248 177.092 123.932 177.408 123.932 177.796V177.98C123.932 177.988 123.933 177.995 123.933 178.002H121.814C121.667 178.002 121.547 178.122 121.547 178.27C121.547 178.417 121.667 178.538 121.814 178.538H124.146C124.3 178.709 124.523 178.818 124.771 178.818H125.095C124.866 179.136 124.772 179.551 124.766 179.885H119.639C118.881 179.885 118.265 179.267 118.265 178.507ZM120.165 180.763C120.165 180.905 120.05 181.02 119.908 181.02H119.108C118.966 181.02 118.85 180.905 118.85 180.763V180.249C119.091 180.359 119.358 180.421 119.639 180.421H120.165V180.763H120.165ZM127.663 184.186C127.663 184.383 127.502 184.543 127.306 184.543H126.355C126.158 184.543 125.998 184.383 125.998 184.186V183.495C126.296 183.644 126.632 183.729 126.987 183.729H127.663V184.186ZM136.124 184.542H135.173C134.976 184.542 134.816 184.382 134.816 184.185V183.728H135.343C135.758 183.728 136.148 183.613 136.481 183.413V184.185C136.481 184.382 136.321 184.542 136.124 184.542ZM137.028 181.503C137.028 182.435 136.272 183.193 135.343 183.193H126.987C126.057 183.193 125.302 182.435 125.302 181.503V179.918C125.302 179.649 125.391 179.142 125.725 178.949C125.876 178.863 126.058 178.819 126.269 178.819H126.343H136.06C136.271 178.819 136.454 178.863 136.604 178.949C136.939 179.142 137.028 179.649 137.028 179.918V181.503ZM138.01 177.98C138.01 178.146 137.875 178.282 137.708 178.282H136.785L136.754 178.218C136.76 177.891 137.028 177.627 137.356 177.627H137.843C137.934 177.627 138.011 177.704 138.011 177.795V177.98H138.01ZM119.243 178.36H120.707C120.925 178.36 121.102 178.183 121.102 177.965V177.913C121.102 177.509 120.825 177.17 120.428 177.089L119.423 176.885C119.248 176.85 119.075 176.892 118.935 177.006C118.797 177.119 118.72 177.28 118.72 177.46V177.838C118.72 178.125 118.955 178.36 119.243 178.36ZM119.256 177.46C119.256 177.441 119.26 177.433 119.275 177.421C119.289 177.409 119.298 177.406 119.317 177.41L120.322 177.614C120.435 177.638 120.522 177.719 120.553 177.824H119.256V177.46ZM121.547 179.085C121.547 178.937 121.667 178.817 121.815 178.817H124.514C124.662 178.817 124.782 178.937 124.782 179.085C124.782 179.233 124.662 179.353 124.514 179.353H121.815C121.667 179.353 121.547 179.233 121.547 179.085ZM125.371 171.747L125.507 170.014C125.516 169.908 125.586 169.817 125.687 169.782C125.788 169.747 125.899 169.775 125.971 169.854L127.075 171.05L128.088 169.005C128.142 168.896 128.26 168.838 128.379 168.86C128.497 168.883 128.585 168.982 128.595 169.102L128.787 171.517L130.8 170.155C130.9 170.088 131.032 170.095 131.123 170.173C131.215 170.25 131.244 170.38 131.194 170.489L130.242 172.567L131.852 172.641C131.956 172.646 132.049 172.711 132.088 172.808C132.127 172.905 132.107 173.016 132.035 173.092L130.94 174.255C130.888 174.311 130.817 174.339 130.745 174.339C130.68 174.339 130.614 174.315 130.562 174.267C130.454 174.165 130.449 173.996 130.55 173.888L131.245 173.15L129.821 173.085C129.732 173.081 129.651 173.033 129.604 172.957C129.558 172.881 129.552 172.787 129.589 172.706L130.309 171.134L128.706 172.218C128.627 172.272 128.526 172.279 128.44 172.238C128.355 172.196 128.297 172.113 128.289 172.018L128.138 170.112L127.383 171.637C127.343 171.716 127.268 171.771 127.181 171.783C127.093 171.796 127.006 171.764 126.946 171.7L125.994 170.668L125.906 171.79C125.894 171.937 125.764 172.047 125.618 172.036C125.469 172.024 125.359 171.895 125.371 171.747Z" fill="#525866"/>
<path d="M201.355 173.483C200.392 172.19 198.844 171.418 197.214 171.418C196.231 171.418 195.255 171.704 194.381 172.247C193.506 171.704 192.53 171.418 191.546 171.418C189.919 171.418 188.369 172.189 187.4 173.48C186.464 174.728 186.197 176.27 186.65 177.825C187.749 181.48 192.315 184.866 194.228 186.152C194.274 186.184 194.327 186.199 194.381 186.199C194.434 186.199 194.488 186.183 194.534 186.152C196.447 184.865 201.013 181.475 202.079 177.824C202.542 176.273 202.285 174.731 201.355 173.483ZM201.554 177.669C200.543 181.131 195.993 184.493 194.381 185.594C192.768 184.493 188.216 181.134 187.175 177.669C186.772 176.286 187.008 174.915 187.838 173.809C188.704 172.655 190.09 171.966 191.546 171.966C192.479 171.966 193.407 172.255 194.229 172.801C194.321 172.862 194.44 172.862 194.532 172.801C195.354 172.255 196.282 171.966 197.214 171.966C198.671 171.966 200.055 172.656 200.916 173.81C201.74 174.916 201.967 176.286 201.554 177.669Z" fill="#525866"/>
<path d="M198.841 179.314H197.582L196.144 177.54C196.077 177.457 195.967 177.421 195.863 177.448C195.759 177.475 195.68 177.561 195.662 177.666L195.206 180.316L194.325 175.689C194.302 175.568 194.2 175.477 194.077 175.467C193.952 175.457 193.839 175.533 193.798 175.649L192.221 180.126L191.463 178.349C191.42 178.248 191.321 178.182 191.212 178.182H189.918C189.767 178.182 189.645 178.305 189.645 178.456C189.645 178.607 189.767 178.73 189.918 178.73H191.031L191.994 180.988C192.038 181.092 192.143 181.161 192.255 181.154C192.368 181.151 192.467 181.078 192.504 180.972L193.978 176.789L194.952 181.902C194.976 182.031 195.089 182.125 195.22 182.125H195.223C195.355 182.124 195.468 182.028 195.49 181.897L196.1 178.354L197.239 179.76C197.291 179.824 197.369 179.861 197.452 179.861H198.842C198.993 179.861 199.116 179.739 199.116 179.588C199.116 179.436 198.993 179.314 198.841 179.314Z" fill="#525866"/>
<g clip-path="url(#clip2_364_13391)">
<path d="M133.64 208.862C133.585 208.807 133.508 208.775 133.429 208.775C133.351 208.775 133.274 208.807 133.219 208.862C133.164 208.917 133.132 208.994 133.132 209.073C133.132 209.151 133.164 209.228 133.219 209.283C133.274 209.338 133.351 209.37 133.429 209.37C133.508 209.37 133.585 209.338 133.64 209.283C133.695 209.228 133.727 209.151 133.727 209.073C133.727 208.994 133.695 208.917 133.64 208.862Z" fill="#525866"/>
<path d="M135.035 212.881H133.726V210.113C133.726 209.948 133.592 209.815 133.428 209.815C133.264 209.815 133.13 209.948 133.13 210.113V212.881H123.726V210.083C123.726 209.919 123.592 209.785 123.428 209.785C123.264 209.785 123.13 209.919 123.13 210.083V212.881H122.297V205.053L127.714 200.825L133.13 205.053V207.881C133.13 208.045 133.264 208.178 133.428 208.178C133.592 208.178 133.726 208.045 133.726 207.881V205.518L133.778 205.559C133.832 205.601 133.896 205.622 133.961 205.622C134.037 205.622 134.114 205.592 134.171 205.534L135.245 204.461C135.305 204.401 135.337 204.317 135.331 204.232C135.326 204.147 135.285 204.068 135.217 204.016L133.428 202.619V199.637C133.428 199.472 133.295 199.339 133.13 199.339H131.406C131.241 199.339 131.108 199.472 131.108 199.637V200.808L127.897 198.301C127.789 198.217 127.638 198.217 127.531 198.301L120.21 204.016C120.143 204.068 120.101 204.147 120.096 204.232C120.091 204.317 120.122 204.401 120.183 204.461L121.256 205.534C121.362 205.641 121.531 205.651 121.65 205.559L121.702 205.518V212.881H120.392C120.228 212.881 120.095 213.014 120.095 213.178C120.095 213.343 120.228 213.476 120.392 213.476H135.035C135.2 213.476 135.333 213.343 135.333 213.178C135.333 213.014 135.2 212.881 135.035 212.881ZM131.703 199.934H132.833V202.154L131.703 201.272V199.934ZM121.491 204.927L120.842 204.278L127.714 198.913L134.586 204.278L133.937 204.927L127.897 200.212C127.843 200.17 127.778 200.149 127.714 200.149C127.649 200.149 127.584 200.17 127.531 200.212L121.491 204.927Z" fill="#525866"/>
<path d="M130.571 204.726H124.857C124.693 204.726 124.56 204.859 124.56 205.023V210.737C124.56 210.902 124.693 211.035 124.857 211.035H130.571C130.736 211.035 130.869 210.902 130.869 210.737V205.023C130.869 204.859 130.736 204.726 130.571 204.726ZM127.417 210.44H125.155V208.178H127.417V210.44ZM127.417 207.583H125.155V205.321H127.417V207.583ZM130.274 210.44H128.012V208.178H130.274V210.44ZM130.274 207.583H128.012V205.321H130.274V207.583Z" fill="#525866"/>
<path d="M123.429 208.612C123.265 208.612 123.132 208.746 123.132 208.91V208.915C123.132 209.079 123.265 209.212 123.429 209.212C123.594 209.212 123.727 209.079 123.727 208.915V208.91C123.727 208.746 123.594 208.612 123.429 208.612Z" fill="#525866"/>
</g>
<path d="M194.762 203.285C194.366 203.285 193.979 203.402 193.651 203.622C193.322 203.842 193.065 204.154 192.914 204.52C192.763 204.885 192.723 205.287 192.8 205.675C192.877 206.063 193.068 206.42 193.348 206.699C193.627 206.979 193.984 207.17 194.372 207.247C194.76 207.324 195.162 207.284 195.527 207.133C195.893 206.982 196.205 206.725 196.425 206.396C196.644 206.067 196.762 205.681 196.762 205.285C196.761 204.755 196.55 204.247 196.175 203.872C195.8 203.497 195.292 203.286 194.762 203.285ZM194.762 206.714C194.479 206.714 194.203 206.63 193.968 206.473C193.733 206.316 193.55 206.093 193.442 205.832C193.334 205.571 193.305 205.284 193.361 205.006C193.416 204.729 193.552 204.475 193.752 204.275C193.951 204.075 194.206 203.939 194.483 203.884C194.76 203.829 195.047 203.857 195.308 203.965C195.569 204.073 195.793 204.257 195.95 204.491C196.107 204.726 196.19 205.003 196.19 205.285C196.19 205.664 196.039 206.027 195.771 206.295C195.504 206.563 195.14 206.713 194.762 206.714Z" fill="#525866"/>
<path d="M194.762 198.714C194.366 198.714 193.979 198.831 193.651 199.051C193.322 199.271 193.065 199.583 192.914 199.949C192.763 200.314 192.723 200.716 192.8 201.104C192.877 201.492 193.068 201.848 193.348 202.128C193.627 202.408 193.984 202.598 194.372 202.675C194.76 202.753 195.162 202.713 195.527 202.562C195.893 202.41 196.205 202.154 196.425 201.825C196.644 201.496 196.762 201.109 196.762 200.714C196.761 200.184 196.55 199.675 196.175 199.3C195.8 198.925 195.292 198.714 194.762 198.714ZM194.762 202.142C194.479 202.142 194.203 202.059 193.968 201.902C193.733 201.745 193.55 201.522 193.442 201.261C193.334 201 193.305 200.712 193.361 200.435C193.416 200.158 193.552 199.904 193.752 199.704C193.951 199.504 194.206 199.368 194.483 199.313C194.76 199.258 195.047 199.286 195.308 199.394C195.569 199.502 195.793 199.685 195.95 199.92C196.107 200.155 196.19 200.431 196.19 200.714C196.19 201.093 196.039 201.456 195.771 201.724C195.504 201.991 195.14 202.142 194.762 202.142Z" fill="#525866"/>
<path d="M194.762 207.856C194.366 207.856 193.979 207.974 193.651 208.194C193.322 208.413 193.065 208.726 192.914 209.091C192.763 209.457 192.723 209.859 192.8 210.247C192.877 210.635 193.068 210.991 193.348 211.271C193.627 211.55 193.984 211.741 194.372 211.818C194.76 211.895 195.162 211.856 195.527 211.704C195.893 211.553 196.205 211.296 196.425 210.968C196.644 210.639 196.762 210.252 196.762 209.856C196.761 209.326 196.55 208.818 196.175 208.443C195.8 208.068 195.292 207.857 194.762 207.856ZM194.762 211.285C194.479 211.285 194.203 211.201 193.968 211.044C193.733 210.887 193.55 210.664 193.442 210.403C193.334 210.142 193.305 209.855 193.361 209.578C193.416 209.301 193.552 209.046 193.752 208.846C193.951 208.647 194.206 208.51 194.483 208.455C194.76 208.4 195.047 208.428 195.308 208.537C195.569 208.645 195.793 208.828 195.95 209.063C196.107 209.298 196.19 209.574 196.19 209.856C196.19 210.235 196.039 210.598 195.771 210.866C195.504 211.134 195.14 211.285 194.762 211.285Z" fill="#525866"/>
<path d="M198.761 207.571C198.829 207.571 198.894 207.547 198.946 207.503C198.998 207.46 199.032 207.399 199.043 207.332L199.615 203.904C199.621 203.863 199.619 203.821 199.608 203.781C199.597 203.741 199.578 203.704 199.551 203.672C199.524 203.64 199.491 203.615 199.453 203.598C199.415 203.58 199.374 203.571 199.333 203.571H198.19V202.714H198.761C198.829 202.714 198.894 202.69 198.946 202.646C198.998 202.602 199.032 202.542 199.043 202.475L199.615 199.047C199.621 199.006 199.619 198.964 199.608 198.924C199.597 198.884 199.578 198.847 199.551 198.815C199.524 198.783 199.491 198.758 199.453 198.74C199.415 198.723 199.374 198.714 199.333 198.714H198.19V198.142C198.19 198.067 198.16 197.994 198.106 197.94C198.053 197.887 197.98 197.857 197.904 197.857H197.037C197.002 197.619 196.883 197.401 196.701 197.244C196.52 197.087 196.287 197 196.047 197H193.476C193.235 197 193.003 197.087 192.821 197.244C192.64 197.401 192.521 197.619 192.486 197.857H191.619C191.543 197.857 191.47 197.887 191.416 197.94C191.363 197.994 191.333 198.067 191.333 198.142V198.714H190.19C190.148 198.714 190.107 198.723 190.07 198.74C190.032 198.758 189.999 198.783 189.972 198.815C189.945 198.847 189.926 198.884 189.915 198.924C189.904 198.964 189.901 199.006 189.908 199.047L190.48 202.475C190.491 202.542 190.525 202.602 190.577 202.646C190.628 202.69 190.694 202.714 190.761 202.714H191.333V203.571H190.19C190.148 203.571 190.107 203.58 190.07 203.598C190.032 203.615 189.999 203.64 189.972 203.672C189.945 203.704 189.926 203.741 189.915 203.781C189.904 203.821 189.901 203.863 189.908 203.904L190.48 207.332C190.491 207.399 190.525 207.46 190.577 207.503C190.628 207.547 190.694 207.571 190.761 207.571H191.333V208.142H190.19C190.148 208.142 190.107 208.151 190.07 208.169C190.032 208.186 189.999 208.212 189.972 208.244C189.945 208.275 189.926 208.312 189.915 208.352C189.904 208.392 189.901 208.434 189.908 208.475L190.48 211.904C190.491 211.97 190.525 212.031 190.577 212.075C190.628 212.118 190.694 212.142 190.761 212.142H191.333V212.428C191.333 212.504 191.363 212.577 191.416 212.63C191.47 212.684 191.543 212.714 191.619 212.714H193.333V214.428C193.333 214.504 193.363 214.577 193.416 214.63C193.47 214.684 193.543 214.714 193.619 214.714H195.904C195.98 214.714 196.053 214.684 196.106 214.63C196.16 214.577 196.19 214.504 196.19 214.428V212.714H197.904C197.98 212.714 198.053 212.684 198.106 212.63C198.16 212.577 198.19 212.504 198.19 212.428V212.142H198.761C198.829 212.142 198.894 212.118 198.946 212.075C198.998 212.031 199.032 211.97 199.043 211.904L199.615 208.475C199.621 208.434 199.619 208.392 199.608 208.352C199.597 208.312 199.578 208.275 199.551 208.244C199.524 208.212 199.491 208.186 199.453 208.169C199.415 208.151 199.374 208.142 199.333 208.142H198.19V207.571H198.761ZM198.19 199.285H198.996L198.519 202.142H198.19V199.285ZM198.19 204.142H198.996L198.519 207H198.19V204.142ZM191.333 211.571H191.004L190.527 208.714H191.333V211.571ZM191.333 207H191.004L190.527 204.142H191.333V207ZM191.333 202.142H191.004L190.527 199.285H191.333V202.142ZM193.476 197.571H196.047C196.136 197.571 196.222 197.599 196.294 197.65C196.367 197.701 196.421 197.773 196.451 197.857H193.072C193.101 197.773 193.156 197.701 193.228 197.65C193.301 197.599 193.387 197.571 193.476 197.571ZM195.619 214.142H193.904V212.714H195.619V214.142ZM197.619 212.142H191.904V198.428H197.619V212.142ZM198.996 208.714L198.519 211.571H198.19V208.714H198.996Z" fill="#525866"/>
<g clip-path="url(#clip3_364_13391)">
<path fill-rule="evenodd" clip-rule="evenodd" d="M59.5505 206.772L53.7161 213.034C53.6746 213.079 53.6164 213.104 53.5554 213.104H51.2323C51.111 213.104 51.0127 213.006 51.0127 212.884V208.501C51.0127 208.42 51.0575 208.346 51.1292 208.307L52.3731 207.646L53.5814 206.078C53.6214 206.026 53.6826 205.994 53.7482 205.992C53.8137 205.99 53.8768 206.017 53.9202 206.067L54.3225 206.524L56.4995 201.802L55.6223 202.025C55.5048 202.055 55.3852 201.984 55.3553 201.867L55.0251 200.571C55.0107 200.514 55.0194 200.454 55.0491 200.404C55.0789 200.354 55.1273 200.318 55.1838 200.304C55.1838 200.304 56.5807 199.948 58.1314 199.553L58.8582 197.977C58.909 197.867 59.0395 197.819 59.1496 197.869L60.1302 198.321C60.2403 198.372 60.2884 198.503 60.2376 198.613L60.0263 199.071C61.2575 198.758 62.2393 198.508 62.2389 198.508C62.6402 198.399 63.0761 198.586 63.2673 198.974L63.2673 198.974L66.4881 205.515C66.5139 205.568 66.5178 205.628 66.499 205.683C66.4803 205.738 66.4404 205.784 66.3881 205.809L65.1881 206.4C65.0793 206.454 64.9477 206.409 64.8941 206.3L64.4943 205.488L63.6103 207.405L64.5636 207.121C64.6381 207.099 64.7189 207.118 64.7759 207.171L66.034 208.341C66.0786 208.382 66.104 208.44 66.104 208.501V212.884C66.104 213.006 66.0057 213.104 65.8844 213.104H55.1904C55.1036 213.104 55.0249 213.053 54.9897 212.974C54.9544 212.894 54.9692 212.802 55.0274 212.737L57.8213 209.643C57.8229 209.641 57.8246 209.64 57.8263 209.638L60.5108 206.856L59.8321 205.014C59.8026 204.934 59.8223 204.844 59.8826 204.783L62.2547 202.402L58.9891 204.837L59.5967 206.548C59.6241 206.626 59.6063 206.712 59.5505 206.772ZM55.099 208.07L53.7666 206.557L52.6921 207.952C52.673 207.976 52.6489 207.997 52.6213 208.012L51.4519 208.633V212.665H53.4598L57.4243 208.409L57.3667 208.366L55.241 208.144C55.1861 208.138 55.1354 208.112 55.099 208.07ZM57.0474 201.662L54.64 206.884L55.372 207.716L57.4731 207.935C57.5128 207.94 57.5506 207.954 57.5825 207.978L57.7254 208.086L59.1382 206.57L58.521 204.831C58.4888 204.74 58.5195 204.639 58.5967 204.582L62.5843 201.608L61.9912 200.404L57.0474 201.662ZM58.6793 199.414C58.9475 199.346 59.2159 199.277 59.4784 199.211L59.7468 198.628L59.1652 198.36L58.6793 199.414ZM64.2445 204.981L62.9418 202.335L60.2927 204.994L60.9706 206.834C60.9997 206.913 60.981 207.002 60.9225 207.062L59.0018 209.052L59.3655 209.322L61.5114 207.499C61.5724 207.448 61.6569 207.433 61.7318 207.462L62.4737 207.744L63.0496 207.573L64.2445 204.981ZM63.2694 202.006L65.1912 205.909L65.9971 205.512L63.9393 201.333C63.9393 201.333 63.5827 201.691 63.3899 201.885L63.2694 202.006ZM62.9834 201.311C63.1378 201.196 63.6746 200.796 63.6746 200.796L62.8733 199.168C62.7766 198.972 62.5563 198.877 62.3533 198.932C62.3521 198.932 62.351 198.933 62.3498 198.933L55.505 200.675L55.7267 201.545L62.0554 199.934C62.1559 199.909 62.2607 199.957 62.3066 200.05L62.9424 201.341L62.9834 201.311ZM58.1448 209.94L55.6846 212.665H65.6648V208.597L64.5687 207.578L62.5278 208.186C62.4815 208.2 62.432 208.198 62.3868 208.181L61.6967 207.918L59.5169 209.77C59.439 209.836 59.3259 209.839 59.2439 209.779L58.6942 209.371L58.1448 209.94Z" fill="#525866"/>
</g>
<defs>
<filter id="filter0_d_364_13391" x="184.2" y="110.1" width="32.3998" height="32.3998" filterUnits="userSpaceOnUse" color-interpolation-filters="sRGB">
<feFlood flood-opacity="0" result="BackgroundImageFix"/>
<feColorMatrix in="SourceAlpha" type="matrix" values="0 0 0 0 0 0 0 0 0 0 0 0 0 0 0 0 0 0 127 0" result="hardAlpha"/>
<feOffset dy="0.9"/>
<feGaussianBlur stdDeviation="0.9"/>
<feComposite in2="hardAlpha" operator="out"/>
<feColorMatrix type="matrix" values="0 0 0 0 0.0392157 0 0 0 0 0.0509804 0 0 0 0 0.0784314 0 0 0 0.03 0"/>
<feBlend mode="normal" in2="BackgroundImageFix" result="effect1_dropShadow_364_13391"/>
<feBlend mode="normal" in="SourceGraphic" in2="effect1_dropShadow_364_13391" result="shape"/>
</filter>
<filter id="filter1_dddddd_364_13391" x="63" y="29" width="158" height="94" filterUnits="userSpaceOnUse" color-interpolation-filters="sRGB">
<feFlood flood-opacity="0" result="BackgroundImageFix"/>
<feColorMatrix in="SourceAlpha" type="matrix" values="0 0 0 0 0 0 0 0 0 0 0 0 0 0 0 0 0 0 127 0" result="hardAlpha"/>
<feMorphology radius="12" operator="erode" in="SourceAlpha" result="effect1_dropShadow_364_13391"/>
<feOffset dy="24"/>
<feGaussianBlur stdDeviation="12"/>
<feComposite in2="hardAlpha" operator="out"/>
<feColorMatrix type="matrix" values="0 0 0 0 0.054902 0 0 0 0 0.247059 0 0 0 0 0.494118 0 0 0 0.04 0"/>
<feBlend mode="normal" in2="BackgroundImageFix" result="effect1_dropShadow_364_13391"/>
<feColorMatrix in="SourceAlpha" type="matrix" values="0 0 0 0 0 0 0 0 0 0 0 0 0 0 0 0 0 0 127 0" result="hardAlpha"/>
<feMorphology radius="6" operator="erode" in="SourceAlpha" result="effect2_dropShadow_364_13391"/>
<feOffset dy="12"/>
<feGaussianBlur stdDeviation="6"/>
<feComposite in2="hardAlpha" operator="out"/>
<feColorMatrix type="matrix" values="0 0 0 0 0.054902 0 0 0 0 0.247059 0 0 0 0 0.494118 0 0 0 0.04 0"/>
<feBlend mode="normal" in2="effect1_dropShadow_364_13391" result="effect2_dropShadow_364_13391"/>
<feColorMatrix in="SourceAlpha" type="matrix" values="0 0 0 0 0 0 0 0 0 0 0 0 0 0 0 0 0 0 127 0" result="hardAlpha"/>
<feMorphology radius="3" operator="erode" in="SourceAlpha" result="effect3_dropShadow_364_13391"/>
<feOffset dy="6"/>
<feGaussianBlur stdDeviation="3"/>
<feComposite in2="hardAlpha" operator="out"/>
<feColorMatrix type="matrix" values="0 0 0 0 0.164706 0 0 0 0 0.2 0 0 0 0 0.27451 0 0 0 0.04 0"/>
<feBlend mode="normal" in2="effect2_dropShadow_364_13391" result="effect3_dropShadow_364_13391"/>
<feColorMatrix in="SourceAlpha" type="matrix" values="0 0 0 0 0 0 0 0 0 0 0 0 0 0 0 0 0 0 127 0" result="hardAlpha"/>
<feMorphology radius="1.5" operator="erode" in="SourceAlpha" result="effect4_dropShadow_364_13391"/>
<feOffset dy="3"/>
<feGaussianBlur stdDeviation="1.5"/>
<feComposite in2="hardAlpha" operator="out"/>
<feColorMatrix type="matrix" values="0 0 0 0 0.164706 0 0 0 0 0.2 0 0 0 0 0.27451 0 0 0 0.04 0"/>
<feBlend mode="normal" in2="effect3_dropShadow_364_13391" result="effect4_dropShadow_364_13391"/>
<feColorMatrix in="SourceAlpha" type="matrix" values="0 0 0 0 0 0 0 0 0 0 0 0 0 0 0 0 0 0 127 0" result="hardAlpha"/>
<feMorphology radius="0.5" operator="erode" in="SourceAlpha" result="effect5_dropShadow_364_13391"/>
<feOffset dy="1"/>
<feGaussianBlur stdDeviation="0.5"/>
<feComposite in2="hardAlpha" operator="out"/>
<feColorMatrix type="matrix" values="0 0 0 0 0.164706 0 0 0 0 0.2 0 0 0 0 0.270588 0 0 0 0.04 0"/>
<feBlend mode="normal" in2="effect4_dropShadow_364_13391" result="effect5_dropShadow_364_13391"/>
<feColorMatrix in="SourceAlpha" type="matrix" values="0 0 0 0 0 0 0 0 0 0 0 0 0 0 0 0 0 0 127 0" result="hardAlpha"/>
<feMorphology radius="1" operator="dilate" in="SourceAlpha" result="effect6_dropShadow_364_13391"/>
<feOffset/>
<feComposite in2="hardAlpha" operator="out"/>
<feColorMatrix type="matrix" values="0 0 0 0 0.054902 0 0 0 0 0.247059 0 0 0 0 0.494118 0 0 0 0.04 0"/>
<feBlend mode="normal" in2="effect5_dropShadow_364_13391" result="effect6_dropShadow_364_13391"/>
<feBlend mode="normal" in="SourceGraphic" in2="effect6_dropShadow_364_13391" result="shape"/>
</filter>
<filter id="filter2_i_364_13391" x="83.4268" y="38.4268" width="4.21387" height="5.26678" filterUnits="userSpaceOnUse" color-interpolation-filters="sRGB">
<feFlood flood-opacity="0" result="BackgroundImageFix"/>
<feBlend mode="normal" in="SourceGraphic" in2="BackgroundImageFix" result="shape"/>
<feColorMatrix in="SourceAlpha" type="matrix" values="0 0 0 0 0 0 0 0 0 0 0 0 0 0 0 0 0 0 127 0" result="hardAlpha"/>
<feOffset dy="1.0534"/>
<feGaussianBlur stdDeviation="1.0534"/>
<feComposite in2="hardAlpha" operator="arithmetic" k2="-1" k3="1"/>
<feColorMatrix type="matrix" values="0 0 0 0 0.054902 0 0 0 0 0.247059 0 0 0 0 0.494118 0 0 0 0.08 0"/>
<feBlend mode="normal" in2="shape" result="effect1_innerShadow_364_13391"/>
</filter>
<filter id="filter3_i_364_13391" x="196.087" y="38.4268" width="4.21387" height="5.26678" filterUnits="userSpaceOnUse" color-interpolation-filters="sRGB">
<feFlood flood-opacity="0" result="BackgroundImageFix"/>
<feBlend mode="normal" in="SourceGraphic" in2="BackgroundImageFix" result="shape"/>
<feColorMatrix in="SourceAlpha" type="matrix" values="0 0 0 0 0 0 0 0 0 0 0 0 0 0 0 0 0 0 127 0" result="hardAlpha"/>
<feOffset dy="1.0534"/>
<feGaussianBlur stdDeviation="1.0534"/>
<feComposite in2="hardAlpha" operator="arithmetic" k2="-1" k3="1"/>
<feColorMatrix type="matrix" values="0 0 0 0 0.054902 0 0 0 0 0.247059 0 0 0 0 0.494118 0 0 0 0.08 0"/>
<feBlend mode="normal" in2="shape" result="effect1_innerShadow_364_13391"/>
</filter>
<filter id="filter4_i_364_13391" x="83.4268" y="74.6016" width="4.21387" height="5.26678" filterUnits="userSpaceOnUse" color-interpolation-filters="sRGB">
<feFlood flood-opacity="0" result="BackgroundImageFix"/>
<feBlend mode="normal" in="SourceGraphic" in2="BackgroundImageFix" result="shape"/>
<feColorMatrix in="SourceAlpha" type="matrix" values="0 0 0 0 0 0 0 0 0 0 0 0 0 0 0 0 0 0 127 0" result="hardAlpha"/>
<feOffset dy="1.0534"/>
<feGaussianBlur stdDeviation="1.0534"/>
<feComposite in2="hardAlpha" operator="arithmetic" k2="-1" k3="1"/>
<feColorMatrix type="matrix" values="0 0 0 0 0.054902 0 0 0 0 0.247059 0 0 0 0 0.494118 0 0 0 0.08 0"/>
<feBlend mode="normal" in2="shape" result="effect1_innerShadow_364_13391"/>
</filter>
<filter id="filter5_i_364_13391" x="196.087" y="74.6016" width="4.21387" height="5.26678" filterUnits="userSpaceOnUse" color-interpolation-filters="sRGB">
<feFlood flood-opacity="0" result="BackgroundImageFix"/>
<feBlend mode="normal" in="SourceGraphic" in2="BackgroundImageFix" result="shape"/>
<feColorMatrix in="SourceAlpha" type="matrix" values="0 0 0 0 0 0 0 0 0 0 0 0 0 0 0 0 0 0 127 0" result="hardAlpha"/>
<feOffset dy="1.0534"/>
<feGaussianBlur stdDeviation="1.0534"/>
<feComposite in2="hardAlpha" operator="arithmetic" k2="-1" k3="1"/>
<feColorMatrix type="matrix" values="0 0 0 0 0.054902 0 0 0 0 0.247059 0 0 0 0 0.494118 0 0 0 0.08 0"/>
<feBlend mode="normal" in2="shape" result="effect1_innerShadow_364_13391"/>
</filter>
<linearGradient id="paint0_linear_364_13391" x1="120.424" y1="53.4702" x2="147.258" y2="93.4571" gradientUnits="userSpaceOnUse">
<stop stop-color="#476CFF"/>
<stop offset="0.514188" stop-color="#2B4199" stop-opacity="0"/>
</linearGradient>
<clipPath id="clip0_364_13391">
<rect x="75" y="30" width="134" height="57" rx="12.6408" fill="white"/>
</clipPath>
<clipPath id="clip1_364_13391">
<rect width="19.8095" height="19.8095" fill="white" transform="translate(50 168.524)"/>
</clipPath>
<clipPath id="clip2_364_13391">
<rect width="15.2381" height="15.2381" fill="white" transform="translate(120.096 198.238)"/>
</clipPath>
<clipPath id="clip3_364_13391">
<rect width="16" height="16" fill="white" transform="translate(50.7617 197.476)"/>
</clipPath>
</defs>
</svg>
