<svg width="203" height="70" viewBox="0 0 203 70" fill="none" xmlns="http://www.w3.org/2000/svg">
<rect width="203" height="70" rx="10" fill="white"/>
<path d="M15.0968 52V40.3636H19.2445C20.1498 40.3636 20.8998 40.5284 21.4945 40.858C22.0892 41.1875 22.5343 41.6383 22.8297 42.2102C23.1252 42.7784 23.2729 43.4186 23.2729 44.1307C23.2729 44.8466 23.1233 45.4905 22.824 46.0625C22.5286 46.6307 22.0816 47.0814 21.4831 47.4148C20.8884 47.7443 20.1403 47.9091 19.2388 47.9091H16.3865V46.4205H19.0797C19.6517 46.4205 20.1157 46.322 20.4718 46.125C20.8278 45.9242 21.0892 45.6515 21.2559 45.3068C21.4225 44.9621 21.5059 44.5701 21.5059 44.1307C21.5059 43.6913 21.4225 43.3011 21.2559 42.9602C21.0892 42.6193 20.8259 42.3523 20.4661 42.1591C20.11 41.9659 19.6403 41.8693 19.057 41.8693H16.8525V52H15.0968ZM28.7615 52.1761C27.9434 52.1761 27.2293 51.9886 26.6195 51.6136C26.0096 51.2386 25.5362 50.714 25.199 50.0398C24.8619 49.3655 24.6934 48.5777 24.6934 47.6761C24.6934 46.7708 24.8619 45.9792 25.199 45.3011C25.5362 44.6231 26.0096 44.0966 26.6195 43.7216C27.2293 43.3466 27.9434 43.1591 28.7615 43.1591C29.5797 43.1591 30.2937 43.3466 30.9036 43.7216C31.5134 44.0966 31.9869 44.6231 32.324 45.3011C32.6612 45.9792 32.8297 46.7708 32.8297 47.6761C32.8297 48.5777 32.6612 49.3655 32.324 50.0398C31.9869 50.714 31.5134 51.2386 30.9036 51.6136C30.2937 51.9886 29.5797 52.1761 28.7615 52.1761ZM28.7672 50.75C29.2975 50.75 29.7369 50.6098 30.0854 50.3295C30.4339 50.0492 30.6915 49.6761 30.8581 49.2102C31.0286 48.7443 31.1138 48.2311 31.1138 47.6705C31.1138 47.1136 31.0286 46.6023 30.8581 46.1364C30.6915 45.6667 30.4339 45.2898 30.0854 45.0057C29.7369 44.7216 29.2975 44.5795 28.7672 44.5795C28.2331 44.5795 27.79 44.7216 27.4377 45.0057C27.0892 45.2898 26.8297 45.6667 26.6593 46.1364C26.4926 46.6023 26.4093 47.1136 26.4093 47.6705C26.4093 48.2311 26.4926 48.7443 26.6593 49.2102C26.8297 49.6761 27.0892 50.0492 27.4377 50.3295C27.79 50.6098 28.2331 50.75 28.7672 50.75ZM36.4249 40.3636V52H34.726V40.3636H36.4249ZM38.7104 52V43.2727H40.4093V52H38.7104ZM39.5684 41.9261C39.2729 41.9261 39.0191 41.8277 38.807 41.6307C38.5987 41.4299 38.4945 41.1913 38.4945 40.9148C38.4945 40.6345 38.5987 40.3958 38.807 40.1989C39.0191 39.9981 39.2729 39.8977 39.5684 39.8977C39.8638 39.8977 40.1157 39.9981 40.324 40.1989C40.5362 40.3958 40.6422 40.6345 40.6422 40.9148C40.6422 41.1913 40.5362 41.4299 40.324 41.6307C40.1157 41.8277 39.8638 41.9261 39.5684 41.9261ZM46.3709 52.1761C45.5262 52.1761 44.7989 51.9848 44.1891 51.6023C43.583 51.2159 43.1171 50.6837 42.7914 50.0057C42.4656 49.3277 42.3027 48.5511 42.3027 47.6761C42.3027 46.7898 42.4694 46.0076 42.8027 45.3295C43.1361 44.6477 43.6058 44.1155 44.2118 43.733C44.8179 43.3504 45.5319 43.1591 46.3539 43.1591C47.0167 43.1591 47.6077 43.2822 48.1266 43.5284C48.6455 43.7708 49.0641 44.1117 49.3823 44.5511C49.7042 44.9905 49.8955 45.5038 49.9561 46.0909H48.3027C48.2118 45.6818 48.0035 45.3295 47.6777 45.0341C47.3558 44.7386 46.9239 44.5909 46.3823 44.5909C45.9088 44.5909 45.494 44.7159 45.138 44.9659C44.7857 45.2121 44.5111 45.5644 44.3141 46.0227C44.1171 46.4773 44.0186 47.0152 44.0186 47.6364C44.0186 48.2727 44.1152 48.822 44.3084 49.2841C44.5016 49.7462 44.7743 50.1042 45.1266 50.358C45.4827 50.6117 45.9012 50.7386 46.3823 50.7386C46.7042 50.7386 46.9959 50.6799 47.2573 50.5625C47.5224 50.4413 47.744 50.2689 47.9221 50.0455C48.1039 49.822 48.2308 49.553 48.3027 49.2386H49.9561C49.8955 49.803 49.7118 50.3068 49.405 50.75C49.0982 51.1932 48.6872 51.5417 48.1721 51.7955C47.6607 52.0492 47.0603 52.1761 46.3709 52.1761ZM45.7573 51.9545H46.8709L46.78 52.4205C47.1096 52.4735 47.3974 52.6061 47.6436 52.8182C47.8899 53.0303 48.013 53.3504 48.013 53.7784C48.0167 54.2898 47.7952 54.7045 47.3482 55.0227C46.905 55.3409 46.263 55.5 45.4221 55.5L45.388 54.5511C45.7819 54.5511 46.1001 54.4943 46.3425 54.3807C46.5887 54.267 46.7137 54.0833 46.7175 53.8295C46.7213 53.5758 46.6266 53.3977 46.4334 53.2955C46.244 53.1932 45.941 53.1212 45.5243 53.0795L45.7573 51.9545ZM55.5343 52.1761C54.6744 52.1761 53.9339 51.9924 53.3127 51.625C52.6953 51.2538 52.218 50.733 51.8809 50.0625C51.5475 49.3883 51.3809 48.5985 51.3809 47.6932C51.3809 46.7992 51.5475 46.0114 51.8809 45.3295C52.218 44.6477 52.6877 44.1155 53.29 43.733C53.896 43.3504 54.6043 43.1591 55.415 43.1591C55.9074 43.1591 56.3846 43.2405 56.8468 43.4034C57.3089 43.5663 57.7237 43.822 58.0911 44.1705C58.4585 44.5189 58.7483 44.9716 58.9604 45.5284C59.1725 46.0814 59.2786 46.7538 59.2786 47.5455V48.1477H52.3411V46.875H57.6138C57.6138 46.428 57.5229 46.0322 57.3411 45.6875C57.1593 45.339 56.9036 45.0644 56.574 44.8636C56.2483 44.6629 55.8657 44.5625 55.4263 44.5625C54.949 44.5625 54.5324 44.6799 54.1763 44.9148C53.824 45.1458 53.5513 45.4489 53.3581 45.8239C53.1687 46.1951 53.074 46.5985 53.074 47.0341V48.0284C53.074 48.6117 53.1763 49.108 53.3809 49.517C53.5892 49.9261 53.879 50.2386 54.2502 50.4545C54.6214 50.6667 55.0551 50.7727 55.5513 50.7727C55.8733 50.7727 56.1668 50.7273 56.432 50.6364C56.6971 50.5417 56.9263 50.4015 57.1195 50.2159C57.3127 50.0303 57.4604 49.8011 57.5627 49.5284L59.1706 49.8182C59.0418 50.2917 58.8108 50.7064 58.4775 51.0625C58.1479 51.4148 57.7331 51.6894 57.2331 51.8864C56.7369 52.0795 56.1706 52.1761 55.5343 52.1761ZM71.8809 43.4205C71.8203 42.8826 71.5703 42.4659 71.1309 42.1705C70.6915 41.8712 70.1384 41.7216 69.4718 41.7216C68.9945 41.7216 68.5816 41.7973 68.2331 41.9489C67.8846 42.0966 67.6138 42.3011 67.4206 42.5625C67.2312 42.8201 67.1365 43.1136 67.1365 43.4432C67.1365 43.7197 67.2009 43.9583 67.3297 44.1591C67.4623 44.3598 67.6346 44.5284 67.8468 44.6648C68.0627 44.7973 68.2937 44.9091 68.54 45C68.7862 45.0871 69.0229 45.1591 69.2502 45.2159L70.3865 45.5114C70.7578 45.6023 71.1384 45.7254 71.5286 45.8807C71.9187 46.036 72.2805 46.2405 72.6138 46.4943C72.9471 46.7481 73.2161 47.0625 73.4206 47.4375C73.629 47.8125 73.7331 48.2614 73.7331 48.7841C73.7331 49.4432 73.5627 50.0284 73.2218 50.5398C72.8846 51.0511 72.3941 51.4545 71.7502 51.75C71.11 52.0455 70.3354 52.1932 69.4263 52.1932C68.5551 52.1932 67.8013 52.0549 67.165 51.7784C66.5286 51.5019 66.0305 51.1098 65.6706 50.6023C65.3108 50.0909 65.1119 49.4848 65.074 48.7841H66.8354C66.8695 49.2045 67.0059 49.5549 67.2445 49.8352C67.4869 50.1117 67.7956 50.3182 68.1706 50.4545C68.5494 50.5871 68.9642 50.6534 69.415 50.6534C69.9112 50.6534 70.3525 50.5758 70.7388 50.4205C71.129 50.2614 71.4358 50.0417 71.6593 49.7614C71.8828 49.4773 71.9945 49.1458 71.9945 48.767C71.9945 48.4223 71.896 48.1402 71.699 47.9205C71.5059 47.7008 71.2426 47.5189 70.9093 47.375C70.5797 47.2311 70.2066 47.1042 69.79 46.9943L68.415 46.6193C67.4831 46.3655 66.7445 45.9924 66.199 45.5C65.6574 45.0076 65.3865 44.3561 65.3865 43.5455C65.3865 42.875 65.5684 42.2898 65.932 41.7898C66.2956 41.2898 66.7881 40.9015 67.4093 40.625C68.0305 40.3447 68.7312 40.2045 69.5115 40.2045C70.2994 40.2045 70.9945 40.3428 71.5968 40.6193C72.2028 40.8958 72.6801 41.2765 73.0286 41.7614C73.3771 42.2424 73.5589 42.7955 73.574 43.4205H71.8809ZM78.2346 52.1932C77.6815 52.1932 77.1815 52.0909 76.7346 51.8864C76.2876 51.678 75.9334 51.3769 75.6721 50.983C75.4145 50.589 75.2857 50.1061 75.2857 49.5341C75.2857 49.0417 75.3804 48.6364 75.5698 48.3182C75.7592 48 76.0149 47.7481 76.3368 47.5625C76.6588 47.3769 77.0186 47.2367 77.4164 47.142C77.8141 47.0473 78.2194 46.9754 78.6323 46.9261C79.155 46.8655 79.5792 46.8163 79.905 46.7784C80.2308 46.7367 80.4675 46.6705 80.6152 46.5795C80.763 46.4886 80.8368 46.3409 80.8368 46.1364V46.0966C80.8368 45.6004 80.6967 45.2159 80.4164 44.9432C80.1399 44.6705 79.727 44.5341 79.1777 44.5341C78.6058 44.5341 78.155 44.661 77.8255 44.9148C77.4997 45.1648 77.2743 45.4432 77.1493 45.75L75.5527 45.3864C75.7421 44.8561 76.0186 44.428 76.3823 44.1023C76.7497 43.7727 77.1721 43.5341 77.6493 43.3864C78.1266 43.2348 78.6285 43.1591 79.155 43.1591C79.5035 43.1591 79.8728 43.2008 80.263 43.2841C80.6569 43.3636 81.0243 43.5114 81.3652 43.7273C81.7099 43.9432 81.9921 44.2519 82.2118 44.6534C82.4315 45.0511 82.5414 45.5682 82.5414 46.2045V52H80.8823V50.8068H80.8141C80.7042 51.0265 80.5395 51.2424 80.3198 51.4545C80.1001 51.6667 79.8179 51.8428 79.4732 51.983C79.1285 52.1231 78.7156 52.1932 78.2346 52.1932ZM78.6039 50.8295C79.0736 50.8295 79.4751 50.7367 79.8084 50.5511C80.1455 50.3655 80.4012 50.1231 80.5755 49.8239C80.7535 49.5208 80.8425 49.197 80.8425 48.8523V47.7273C80.7819 47.7879 80.6645 47.8447 80.4902 47.8977C80.3198 47.947 80.1247 47.9905 79.905 48.0284C79.6853 48.0625 79.4713 48.0947 79.263 48.125C79.0546 48.1515 78.8804 48.1742 78.7402 48.1932C78.4107 48.2348 78.1096 48.3049 77.8368 48.4034C77.5679 48.5019 77.352 48.6439 77.1891 48.8295C77.03 49.0114 76.9505 49.2538 76.9505 49.5568C76.9505 49.9773 77.1058 50.2955 77.4164 50.5114C77.727 50.7235 78.1228 50.8295 78.6039 50.8295ZM88.878 43.2727V44.6364H84.111V43.2727H88.878ZM85.3894 41.1818H87.0882V49.4375C87.0882 49.767 87.1375 50.0152 87.236 50.1818C87.3345 50.3447 87.4614 50.4564 87.6167 50.517C87.7757 50.5739 87.9481 50.6023 88.1337 50.6023C88.2701 50.6023 88.3894 50.5928 88.4917 50.5739C88.5939 50.5549 88.6735 50.5398 88.7303 50.5284L89.0371 51.9318C88.9386 51.9697 88.7985 52.0076 88.6167 52.0455C88.4348 52.0871 88.2076 52.1098 87.9348 52.1136C87.4879 52.1212 87.0712 52.0417 86.6848 51.875C86.2985 51.7083 85.986 51.4508 85.7473 51.1023C85.5087 50.7538 85.3894 50.3163 85.3894 49.7898V41.1818ZM90.7573 52V43.2727H92.4561V52H90.7573ZM101.281 45.4034L99.7417 45.6761C99.6773 45.4792 99.575 45.2917 99.4348 45.1136C99.2985 44.9356 99.1129 44.7898 98.878 44.6761C98.6432 44.5625 98.3496 44.5057 97.9973 44.5057C97.5163 44.5057 97.1148 44.6136 96.7928 44.8295C96.4708 45.0417 96.3098 45.3163 96.3098 45.6534C96.3098 45.9451 96.4178 46.1799 96.6337 46.358C96.8496 46.536 97.1981 46.6818 97.6792 46.7955L99.0655 47.1136C99.8685 47.2992 100.467 47.5852 100.861 47.9716C101.255 48.358 101.452 48.8598 101.452 49.4773C101.452 50 101.3 50.4659 100.997 50.875C100.698 51.2803 100.28 51.5985 99.7417 51.8295C99.2076 52.0606 98.5882 52.1761 97.8837 52.1761C96.9064 52.1761 96.1091 51.9678 95.4917 51.5511C94.8742 51.1307 94.4954 50.5341 94.3553 49.7614L95.9973 49.5114C96.0996 49.9394 96.3098 50.2633 96.628 50.483C96.9462 50.6989 97.361 50.8068 97.8723 50.8068C98.4292 50.8068 98.8742 50.6913 99.2076 50.4602C99.5409 50.2254 99.7076 49.9394 99.7076 49.6023C99.7076 49.3295 99.6053 49.1004 99.4007 48.9148C99.2 48.7292 98.8913 48.589 98.4746 48.4943L96.9973 48.1705C96.1829 47.9848 95.5807 47.6894 95.1905 47.2841C94.8042 46.8788 94.611 46.3655 94.611 45.7443C94.611 45.2292 94.7549 44.7784 95.0428 44.392C95.3307 44.0057 95.7284 43.7045 96.236 43.4886C96.7435 43.2689 97.325 43.1591 97.9803 43.1591C98.9235 43.1591 99.6659 43.3636 100.208 43.7727C100.749 44.178 101.107 44.7216 101.281 45.4034ZM97.3723 51.9545H98.486L98.3951 52.4205C98.7246 52.4735 99.0125 52.6061 99.2587 52.8182C99.5049 53.0303 99.628 53.3504 99.628 53.7784C99.6318 54.2898 99.4102 54.7045 98.9632 55.0227C98.5201 55.3409 97.878 55.5 97.0371 55.5L97.003 54.5511C97.397 54.5511 97.7151 54.4943 97.9576 54.3807C98.2038 54.267 98.3288 54.0833 98.3326 53.8295C98.3364 53.5758 98.2417 53.3977 98.0485 53.2955C97.8591 53.1932 97.556 53.1212 97.1394 53.0795L97.3723 51.9545ZM103.32 52V43.2727H105.019V52H103.32ZM109.003 46.8182V52H107.304V43.2727H108.935V44.6932H109.043C109.244 44.2311 109.558 43.8598 109.986 43.5795C110.418 43.2992 110.961 43.1591 111.617 43.1591C112.211 43.1591 112.732 43.2841 113.179 43.5341C113.626 43.7803 113.973 44.1477 114.219 44.6364C114.465 45.125 114.588 45.7292 114.588 46.4489V52H112.889V46.6534C112.889 46.0208 112.725 45.5265 112.395 45.1705C112.066 44.8106 111.613 44.6307 111.037 44.6307C110.643 44.6307 110.293 44.7159 109.986 44.8864C109.683 45.0568 109.442 45.3068 109.264 45.6364C109.09 45.9621 109.003 46.3561 109.003 46.8182ZM119.406 52.1932C118.853 52.1932 118.353 52.0909 117.906 51.8864C117.459 51.678 117.105 51.3769 116.844 50.983C116.586 50.589 116.458 50.1061 116.458 49.5341C116.458 49.0417 116.552 48.6364 116.742 48.3182C116.931 48 117.187 47.7481 117.509 47.5625C117.831 47.3769 118.191 47.2367 118.588 47.142C118.986 47.0473 119.391 46.9754 119.804 46.9261C120.327 46.8655 120.751 46.8163 121.077 46.7784C121.403 46.7367 121.639 46.6705 121.787 46.5795C121.935 46.4886 122.009 46.3409 122.009 46.1364V46.0966C122.009 45.6004 121.869 45.2159 121.588 44.9432C121.312 44.6705 120.899 44.5341 120.35 44.5341C119.778 44.5341 119.327 44.661 118.997 44.9148C118.672 45.1648 118.446 45.4432 118.321 45.75L116.725 45.3864C116.914 44.8561 117.191 44.428 117.554 44.1023C117.922 43.7727 118.344 43.5341 118.821 43.3864C119.298 43.2348 119.8 43.1591 120.327 43.1591C120.675 43.1591 121.045 43.2008 121.435 43.2841C121.829 43.3636 122.196 43.5114 122.537 43.7273C122.882 43.9432 123.164 44.2519 123.384 44.6534C123.603 45.0511 123.713 45.5682 123.713 46.2045V52H122.054V50.8068H121.986C121.876 51.0265 121.711 51.2424 121.492 51.4545C121.272 51.6667 120.99 51.8428 120.645 51.983C120.3 52.1231 119.887 52.1932 119.406 52.1932ZM119.776 50.8295C120.245 50.8295 120.647 50.7367 120.98 50.5511C121.317 50.3655 121.573 50.1231 121.747 49.8239C121.925 49.5208 122.014 49.197 122.014 48.8523V47.7273C121.954 47.7879 121.836 47.8447 121.662 47.8977C121.492 47.947 121.297 47.9905 121.077 48.0284C120.857 48.0625 120.643 48.0947 120.435 48.125C120.227 48.1515 120.052 48.1742 119.912 48.1932C119.583 48.2348 119.281 48.3049 119.009 48.4034C118.74 48.5019 118.524 48.6439 118.361 48.8295C118.202 49.0114 118.122 49.2538 118.122 49.5568C118.122 49.9773 118.278 50.2955 118.588 50.5114C118.899 50.7235 119.295 50.8295 119.776 50.8295ZM130.347 52V40.3636H134.608C135.434 40.3636 136.118 40.5 136.659 40.7727C137.201 41.0417 137.606 41.4072 137.875 41.8693C138.144 42.3277 138.279 42.8447 138.279 43.4205C138.279 43.9053 138.19 44.3144 138.012 44.6477C137.834 44.9773 137.595 45.2424 137.296 45.4432C137 45.6402 136.674 45.7841 136.318 45.875V45.9886C136.705 46.0076 137.082 46.1326 137.449 46.3636C137.82 46.5909 138.127 46.9148 138.369 47.3352C138.612 47.7557 138.733 48.267 138.733 48.8693C138.733 49.464 138.593 49.9981 138.313 50.4716C138.036 50.9413 137.608 51.3144 137.029 51.5909C136.449 51.8636 135.709 52 134.807 52H130.347ZM132.102 50.4943H134.637C135.477 50.4943 136.08 50.3314 136.443 50.0057C136.807 49.6799 136.989 49.2727 136.989 48.7841C136.989 48.4167 136.896 48.0795 136.71 47.7727C136.525 47.4659 136.26 47.2216 135.915 47.0398C135.574 46.858 135.169 46.767 134.699 46.767H132.102V50.4943ZM132.102 45.3977H134.455C134.849 45.3977 135.203 45.322 135.517 45.1705C135.835 45.0189 136.087 44.8068 136.273 44.5341C136.462 44.2576 136.557 43.9318 136.557 43.5568C136.557 43.0758 136.388 42.6723 136.051 42.3466C135.714 42.0208 135.197 41.858 134.5 41.858H132.102V45.3977ZM143.219 52.1932C142.666 52.1932 142.166 52.0909 141.719 51.8864C141.272 51.678 140.918 51.3769 140.656 50.983C140.399 50.589 140.27 50.1061 140.27 49.5341C140.27 49.0417 140.365 48.6364 140.554 48.3182C140.744 48 140.999 47.7481 141.321 47.5625C141.643 47.3769 142.003 47.2367 142.401 47.142C142.798 47.0473 143.204 46.9754 143.617 46.9261C144.139 46.8655 144.564 46.8163 144.889 46.7784C145.215 46.7367 145.452 46.6705 145.6 46.5795C145.747 46.4886 145.821 46.3409 145.821 46.1364V46.0966C145.821 45.6004 145.681 45.2159 145.401 44.9432C145.124 44.6705 144.711 44.5341 144.162 44.5341C143.59 44.5341 143.139 44.661 142.81 44.9148C142.484 45.1648 142.259 45.4432 142.134 45.75L140.537 45.3864C140.727 44.8561 141.003 44.428 141.367 44.1023C141.734 43.7727 142.156 43.5341 142.634 43.3864C143.111 43.2348 143.613 43.1591 144.139 43.1591C144.488 43.1591 144.857 43.2008 145.247 43.2841C145.641 43.3636 146.009 43.5114 146.35 43.7273C146.694 43.9432 146.977 44.2519 147.196 44.6534C147.416 45.0511 147.526 45.5682 147.526 46.2045V52H145.867V50.8068H145.798C145.689 51.0265 145.524 51.2424 145.304 51.4545C145.084 51.6667 144.802 51.8428 144.458 51.983C144.113 52.1231 143.7 52.1932 143.219 52.1932ZM143.588 50.8295C144.058 50.8295 144.459 50.7367 144.793 50.5511C145.13 50.3655 145.386 50.1231 145.56 49.8239C145.738 49.5208 145.827 49.197 145.827 48.8523V47.7273C145.766 47.7879 145.649 47.8447 145.475 47.8977C145.304 47.947 145.109 47.9905 144.889 48.0284C144.67 48.0625 144.456 48.0947 144.247 48.125C144.039 48.1515 143.865 48.1742 143.725 48.1932C143.395 48.2348 143.094 48.3049 142.821 48.4034C142.552 48.5019 142.336 48.6439 142.173 48.8295C142.014 49.0114 141.935 49.2538 141.935 49.5568C141.935 49.9773 142.09 50.2955 142.401 50.5114C142.711 50.7235 143.107 50.8295 143.588 50.8295ZM156.328 45.4034L154.789 45.6761C154.724 45.4792 154.622 45.2917 154.482 45.1136C154.345 44.9356 154.16 44.7898 153.925 44.6761C153.69 44.5625 153.396 44.5057 153.044 44.5057C152.563 44.5057 152.162 44.6136 151.84 44.8295C151.518 45.0417 151.357 45.3163 151.357 45.6534C151.357 45.9451 151.465 46.1799 151.681 46.358C151.896 46.536 152.245 46.6818 152.726 46.7955L154.112 47.1136C154.915 47.2992 155.514 47.5852 155.908 47.9716C156.302 48.358 156.499 48.8598 156.499 49.4773C156.499 50 156.347 50.4659 156.044 50.875C155.745 51.2803 155.326 51.5985 154.789 51.8295C154.254 52.0606 153.635 52.1761 152.931 52.1761C151.953 52.1761 151.156 51.9678 150.539 51.5511C149.921 51.1307 149.542 50.5341 149.402 49.7614L151.044 49.5114C151.146 49.9394 151.357 50.2633 151.675 50.483C151.993 50.6989 152.408 50.8068 152.919 50.8068C153.476 50.8068 153.921 50.6913 154.254 50.4602C154.588 50.2254 154.754 49.9394 154.754 49.6023C154.754 49.3295 154.652 49.1004 154.448 48.9148C154.247 48.7292 153.938 48.589 153.521 48.4943L152.044 48.1705C151.23 47.9848 150.628 47.6894 150.237 47.2841C149.851 46.8788 149.658 46.3655 149.658 45.7443C149.658 45.2292 149.802 44.7784 150.09 44.392C150.378 44.0057 150.775 43.7045 151.283 43.4886C151.79 43.2689 152.372 43.1591 153.027 43.1591C153.97 43.1591 154.713 43.3636 155.254 43.7727C155.796 44.178 156.154 44.7216 156.328 45.4034ZM152.419 51.9545H153.533L153.442 52.4205C153.771 52.4735 154.059 52.6061 154.306 52.8182C154.552 53.0303 154.675 53.3504 154.675 53.7784C154.679 54.2898 154.457 54.7045 154.01 55.0227C153.567 55.3409 152.925 55.5 152.084 55.5L152.05 54.5511C152.444 54.5511 152.762 54.4943 153.004 54.3807C153.251 54.267 153.376 54.0833 153.379 53.8295C153.383 53.5758 153.289 53.3977 153.095 53.2955C152.906 53.1932 152.603 53.1212 152.186 53.0795L152.419 51.9545ZM160.066 40.3636V52H158.367V40.3636H160.066ZM164.891 52.1932C164.338 52.1932 163.838 52.0909 163.391 51.8864C162.944 51.678 162.59 51.3769 162.328 50.983C162.071 50.589 161.942 50.1061 161.942 49.5341C161.942 49.0417 162.037 48.6364 162.226 48.3182C162.415 48 162.671 47.7481 162.993 47.5625C163.315 47.3769 163.675 47.2367 164.073 47.142C164.47 47.0473 164.876 46.9754 165.289 46.9261C165.811 46.8655 166.235 46.8163 166.561 46.7784C166.887 46.7367 167.124 46.6705 167.271 46.5795C167.419 46.4886 167.493 46.3409 167.493 46.1364V46.0966C167.493 45.6004 167.353 45.2159 167.073 44.9432C166.796 44.6705 166.383 44.5341 165.834 44.5341C165.262 44.5341 164.811 44.661 164.482 44.9148C164.156 45.1648 163.931 45.4432 163.806 45.75L162.209 45.3864C162.398 44.8561 162.675 44.428 163.039 44.1023C163.406 43.7727 163.828 43.5341 164.306 43.3864C164.783 43.2348 165.285 43.1591 165.811 43.1591C166.16 43.1591 166.529 43.2008 166.919 43.2841C167.313 43.3636 167.681 43.5114 168.021 43.7273C168.366 43.9432 168.648 44.2519 168.868 44.6534C169.088 45.0511 169.198 45.5682 169.198 46.2045V52H167.539V50.8068H167.47C167.36 51.0265 167.196 51.2424 166.976 51.4545C166.756 51.6667 166.474 51.8428 166.129 51.983C165.785 52.1231 165.372 52.1932 164.891 52.1932ZM165.26 50.8295C165.73 50.8295 166.131 50.7367 166.465 50.5511C166.802 50.3655 167.057 50.1231 167.232 49.8239C167.41 49.5208 167.499 49.197 167.499 48.8523V47.7273C167.438 47.7879 167.321 47.8447 167.146 47.8977C166.976 47.947 166.781 47.9905 166.561 48.0284C166.342 48.0625 166.128 48.0947 165.919 48.125C165.711 48.1515 165.537 48.1742 165.396 48.1932C165.067 48.2348 164.766 48.3049 164.493 48.4034C164.224 48.5019 164.008 48.6439 163.845 48.8295C163.686 49.0114 163.607 49.2538 163.607 49.5568C163.607 49.9773 163.762 50.2955 164.073 50.5114C164.383 50.7235 164.779 50.8295 165.26 50.8295ZM172.222 55.2727C171.968 55.2727 171.737 55.2519 171.529 55.2102C171.32 55.1723 171.165 55.1307 171.063 55.0852L171.472 53.6932C171.782 53.7765 172.059 53.8125 172.301 53.8011C172.544 53.7898 172.758 53.6989 172.943 53.5284C173.133 53.358 173.299 53.0795 173.443 52.6932L173.654 52.1136L170.46 43.2727H172.279L174.489 50.0455H174.58L176.79 43.2727H178.614L175.017 53.1648C174.851 53.6193 174.638 54.0038 174.381 54.3182C174.123 54.6364 173.816 54.875 173.46 55.0341C173.104 55.1932 172.691 55.2727 172.222 55.2727ZM180.21 52V43.2727H181.909V52H180.21ZM185.894 46.8182V52H184.195V43.2727H185.825V44.6932H185.933C186.134 44.2311 186.449 43.8598 186.877 43.5795C187.308 43.2992 187.852 43.1591 188.507 43.1591C189.102 43.1591 189.623 43.2841 190.07 43.5341C190.517 43.7803 190.863 44.1477 191.11 44.6364C191.356 45.125 191.479 45.7292 191.479 46.4489V52H189.78V46.6534C189.78 46.0208 189.615 45.5265 189.286 45.1705C188.956 44.8106 188.503 44.6307 187.928 44.6307C187.534 44.6307 187.183 44.7159 186.877 44.8864C186.574 45.0568 186.333 45.3068 186.155 45.6364C185.981 45.9621 185.894 46.3561 185.894 46.8182Z" fill="black"/>
<path d="M21.8319 23.6364C21.8319 24.5767 21.6558 25.3821 21.3035 26.0526C20.9541 26.7202 20.4768 27.2315 19.8717 27.5866C19.2694 27.9418 18.5862 28.1193 17.822 28.1193C17.0578 28.1193 16.3731 27.9418 15.768 27.5866C15.1657 27.2287 14.6885 26.7159 14.3362 26.0483C13.9868 25.3778 13.8121 24.5739 13.8121 23.6364C13.8121 22.696 13.9868 21.892 14.3362 21.2244C14.6885 20.554 15.1657 20.0412 15.768 19.6861C16.3731 19.331 17.0578 19.1534 17.822 19.1534C18.5862 19.1534 19.2694 19.331 19.8717 19.6861C20.4768 20.0412 20.9541 20.554 21.3035 21.2244C21.6558 21.892 21.8319 22.696 21.8319 23.6364ZM20.2425 23.6364C20.2425 22.9744 20.1388 22.4162 19.9314 21.9616C19.7268 21.5043 19.4427 21.1591 19.0791 20.9261C18.7155 20.6903 18.2964 20.5724 17.822 20.5724C17.3476 20.5724 16.9285 20.6903 16.5649 20.9261C16.2013 21.1591 15.9157 21.5043 15.7084 21.9616C15.5038 22.4162 15.4015 22.9744 15.4015 23.6364C15.4015 24.2983 15.5038 24.858 15.7084 25.3153C15.9157 25.7699 16.2013 26.1151 16.5649 26.3509C16.9285 26.5838 17.3476 26.7003 17.822 26.7003C18.2964 26.7003 18.7155 26.5838 19.0791 26.3509C19.4427 26.1151 19.7268 25.7699 19.9314 25.3153C20.1388 24.858 20.2425 24.2983 20.2425 23.6364ZM24.801 24.1648V28H23.2584V21.4545H24.7329V22.5668H24.8096C24.9601 22.2003 25.2002 21.9091 25.5297 21.6932C25.8621 21.4773 26.2726 21.3693 26.7613 21.3693C27.213 21.3693 27.6064 21.4659 27.9417 21.6591C28.2797 21.8523 28.5411 22.1321 28.7258 22.4986C28.9133 22.8651 29.0056 23.3097 29.0028 23.8324V28H27.4601V24.071C27.4601 23.6335 27.3465 23.2912 27.1192 23.044C26.8948 22.7969 26.5837 22.6733 26.186 22.6733C25.9161 22.6733 25.676 22.733 25.4658 22.8523C25.2584 22.9687 25.0951 23.1378 24.9758 23.3594C24.8593 23.581 24.801 23.8494 24.801 24.1648ZM32.1135 19.2727V28H30.5709V19.2727H32.1135ZM33.6998 28V21.4545H35.2425V28H33.6998ZM34.4754 20.5256C34.2311 20.5256 34.0209 20.4446 33.8447 20.2827C33.6686 20.1179 33.5805 19.9205 33.5805 19.6903C33.5805 19.4574 33.6686 19.2599 33.8447 19.098C34.0209 18.9332 34.2311 18.8509 34.4754 18.8509C34.7226 18.8509 34.9328 18.9332 35.1061 19.098C35.2822 19.2599 35.3703 19.4574 35.3703 19.6903C35.3703 19.9205 35.2822 20.1179 35.1061 20.2827C34.9328 20.4446 34.7226 20.5256 34.4754 20.5256ZM38.3714 24.1648V28H36.8287V21.4545H38.3032V22.5668H38.3799C38.5305 22.2003 38.7705 21.9091 39.1001 21.6932C39.4324 21.4773 39.843 21.3693 40.3316 21.3693C40.7833 21.3693 41.1768 21.4659 41.512 21.6591C41.8501 21.8523 42.1114 22.1321 42.2961 22.4986C42.4836 22.8651 42.5759 23.3097 42.5731 23.8324V28H41.0305V24.071C41.0305 23.6335 40.9168 23.2912 40.6895 23.044C40.4651 22.7969 40.154 22.6733 39.7563 22.6733C39.4864 22.6733 39.2464 22.733 39.0361 22.8523C38.8287 22.9687 38.6654 23.1378 38.5461 23.3594C38.4296 23.581 38.3714 23.8494 38.3714 24.1648ZM47.039 28.1278C46.3827 28.1278 45.816 27.9915 45.3387 27.7188C44.8643 27.4432 44.4992 27.054 44.2435 26.5511C43.9878 26.0455 43.86 25.4503 43.86 24.7656C43.86 24.0923 43.9878 23.5014 44.2435 22.9929C44.502 22.4815 44.8628 22.0838 45.3259 21.7997C45.789 21.5128 46.333 21.3693 46.958 21.3693C47.3614 21.3693 47.7421 21.4347 48.1001 21.5653C48.4608 21.6932 48.779 21.892 49.0546 22.1619C49.333 22.4318 49.5518 22.7756 49.7108 23.1932C49.8699 23.608 49.9495 24.1023 49.9495 24.6761V25.1491H44.5844V24.1094H48.4708C48.468 23.8139 48.404 23.5511 48.279 23.321C48.154 23.0881 47.9793 22.9048 47.7549 22.7713C47.5333 22.6378 47.2748 22.571 46.9793 22.571C46.664 22.571 46.387 22.6477 46.1483 22.8011C45.9097 22.9517 45.7236 23.1506 45.5901 23.3977C45.4594 23.642 45.3927 23.9105 45.3898 24.2031V25.1108C45.3898 25.4915 45.4594 25.8182 45.5986 26.0909C45.7378 26.3608 45.9324 26.5682 46.1824 26.7131C46.4324 26.8551 46.7251 26.9261 47.0603 26.9261C47.2847 26.9261 47.4878 26.8949 47.6697 26.8324C47.8515 26.767 48.0091 26.6719 48.1427 26.5469C48.2762 26.4219 48.377 26.267 48.4452 26.0824L49.8856 26.2443C49.7947 26.625 49.6214 26.9574 49.3657 27.2415C49.1128 27.5227 48.789 27.7415 48.3941 27.8977C47.9992 28.0511 47.5475 28.1278 47.039 28.1278Z" fill="#A9A7B6"/>
</svg>
