<svg width="16" height="16" viewBox="0 0 16 16" fill="none" xmlns="http://www.w3.org/2000/svg">
<path d="M1.30575 0.0562015L15.1522 7.6717C15.211 7.70407 15.2601 7.75163 15.2942 7.80941C15.3284 7.8672 15.3464 7.93308 15.3464 8.0002C15.3464 8.06732 15.3284 8.13321 15.2942 8.19099C15.2601 8.24877 15.211 8.29633 15.1522 8.3287L1.30575 15.9442C1.24866 15.9756 1.18436 15.9916 1.1192 15.9906C1.05405 15.9896 0.990279 15.9716 0.934182 15.9385C0.878086 15.9053 0.831597 15.8581 0.7993 15.8015C0.767003 15.7449 0.750011 15.6809 0.75 15.6157V0.384701C0.750011 0.319537 0.767003 0.255501 0.7993 0.198904C0.831597 0.142307 0.878086 0.0951027 0.934182 0.0619442C0.990279 0.0287858 1.05405 0.0108174 1.1192 0.00981042C1.18436 0.00880339 1.24866 0.0247924 1.30575 0.0562015V0.0562015ZM2.25 8.7502V13.713L12.6375 8.0002L2.25 2.28745V7.2502H6V8.7502H2.25Z" fill="#FB3748"/>
</svg>
