<svg width="20" height="20" viewBox="0 0 20 20" fill="none" xmlns="http://www.w3.org/2000/svg">
<path d="M11.875 2.49964C12.318 2.49949 12.7538 2.61144 13.1419 2.82508C13.5299 3.03872 13.8576 3.3471 14.0944 3.72149C14.3312 4.09587 14.4694 4.5241 14.4961 4.96628C14.5228 5.40846 14.4372 5.85021 14.2473 6.25039L16.75 6.24964C16.9489 6.24964 17.1397 6.32865 17.2803 6.46931C17.421 6.60996 17.5 6.80072 17.5 6.99964V9.99964C17.5 10.1985 17.421 10.3893 17.2803 10.53C17.1397 10.6706 16.9489 10.7496 16.75 10.7496H16V16.7496C16 16.9485 15.921 17.1393 15.7803 17.28C15.6397 17.4206 15.4489 17.4996 15.25 17.4996H4.75C4.55109 17.4996 4.36032 17.4206 4.21967 17.28C4.07902 17.1393 4 16.9485 4 16.7496V10.7496H3.25C3.05109 10.7496 2.86032 10.6706 2.71967 10.53C2.57902 10.3893 2.5 10.1985 2.5 9.99964V6.99964C2.5 6.80072 2.57902 6.60996 2.71967 6.46931C2.86032 6.32865 3.05109 6.24964 3.25 6.24964L5.75275 6.25039C5.48557 5.68914 5.42622 5.05129 5.58528 4.45039C5.74433 3.84948 6.11147 3.32452 6.62132 2.96895C7.13118 2.61338 7.75068 2.45028 8.36952 2.50869C8.98837 2.56709 9.56642 2.84321 10.0008 3.28789C10.2445 3.03778 10.536 2.83915 10.858 2.70375C11.1799 2.56835 11.5257 2.49894 11.875 2.49964V2.49964ZM14.5 10.7496H5.5V15.9996H14.5V10.7496ZM16 7.74964H4V9.24964H16V7.74964ZM8.125 3.99964C7.83609 3.99978 7.5583 4.11107 7.34921 4.31044C7.14012 4.50982 7.01574 4.78199 7.00186 5.07057C6.98797 5.35915 7.08564 5.64201 7.27463 5.86054C7.46362 6.07907 7.72944 6.21651 8.017 6.24439L8.125 6.24964H9.25V5.12464C9.24999 4.84497 9.14581 4.57534 8.95779 4.36832C8.76976 4.1613 8.51137 4.03173 8.233 4.00489L8.125 3.99964ZM11.875 3.99964L11.767 4.00489C11.507 4.02979 11.2638 4.14437 11.0791 4.32897C10.8944 4.51357 10.7796 4.75669 10.7545 5.01664L10.75 5.12464V6.24964H11.875L11.983 6.24439C12.2613 6.21741 12.5195 6.08778 12.7074 5.88078C12.8953 5.67377 12.9994 5.40421 12.9994 5.12464C12.9994 4.84506 12.8953 4.5755 12.7074 4.3685C12.5195 4.16149 12.2613 4.03186 11.983 4.00489L11.875 3.99964Z" fill="#7D52F4"/>
</svg>
