<svg width="20" height="20" viewBox="0 0 20 20" fill="none" xmlns="http://www.w3.org/2000/svg">
<path d="M16.75 16.75H3.25C3.05109 16.75 2.86032 16.671 2.71967 16.5303C2.57902 16.3897 2.5 16.1989 2.5 16V10.3653C2.49999 10.2581 2.52294 10.1522 2.56732 10.0546C2.61169 9.95706 2.67646 9.87016 2.75725 9.79975L5.5 7.408V4C5.5 3.80109 5.57902 3.61032 5.71967 3.46967C5.86032 3.32902 6.05109 3.25 6.25 3.25H16.75C16.9489 3.25 17.1397 3.32902 17.2803 3.46967C17.421 3.61032 17.5 3.80109 17.5 4V16C17.5 16.1989 17.421 16.3897 17.2803 16.5303C17.1397 16.671 16.9489 16.75 16.75 16.75ZM7.75 15.25H10V10.7065L7 8.0905L4 10.7065V15.25H6.25V12.25H7.75V15.25ZM11.5 15.25H16V4.75H7V6.34525C7.1755 6.34525 7.35175 6.40675 7.49275 6.5305L11.2427 9.79975C11.3235 9.87016 11.3883 9.95706 11.4327 10.0546C11.4771 10.1522 11.5 10.2581 11.5 10.3653V15.25ZM13 9.25H14.5V10.75H13V9.25ZM13 12.25H14.5V13.75H13V12.25ZM13 6.25H14.5V7.75H13V6.25ZM10 6.25H11.5V7.75H10V6.25Z" fill="#335CFF"/>
</svg>
