<svg width="268" height="119" viewBox="0 0 268 119" fill="none" xmlns="http://www.w3.org/2000/svg">
<path d="M214.062 71.858C214.417 71.8546 214.763 71.7471 215.058 71.5488C215.352 71.3504 215.582 71.0701 215.718 70.7424C215.855 70.4148 215.892 70.0543 215.825 69.7056C215.759 69.357 215.591 69.0356 215.344 68.7813L209.906 63.3438C209.564 63.0136 209.106 62.8309 208.631 62.835C208.156 62.8392 207.701 63.0298 207.365 63.3658C207.029 63.7019 206.839 64.1565 206.835 64.6317C206.83 65.1069 207.013 65.5648 207.343 65.9066L212.781 71.3441C213.123 71.6781 213.584 71.8629 214.062 71.858Z" fill="black"/>
<path d="M208.754 80.9375H212.25C212.731 80.9375 213.192 80.7465 213.532 80.4066C213.872 80.0667 214.062 79.6057 214.062 79.125C214.062 78.6443 213.872 78.1833 213.532 77.8434C213.192 77.5035 212.731 77.3125 212.25 77.3125H208.754C208.274 77.3125 207.813 77.5035 207.473 77.8434C207.133 78.1833 206.942 78.6443 206.942 79.125C206.942 79.6057 207.133 80.0667 207.473 80.4066C207.813 80.7465 208.274 80.9375 208.754 80.9375Z" fill="black"/>
<path d="M223.125 70.0627C223.606 70.0627 224.067 69.8717 224.407 69.5318C224.747 69.1919 224.938 68.7309 224.938 68.2502V64.7544C224.938 64.2737 224.747 63.8127 224.407 63.4728C224.067 63.1329 223.606 62.9419 223.125 62.9419C222.644 62.9419 222.183 63.1329 221.843 63.4728C221.503 63.8127 221.312 64.2737 221.312 64.7544V68.2502C221.312 68.7309 221.503 69.1919 221.843 69.5318C222.183 69.8717 222.644 70.0627 223.125 70.0627Z" fill="black"/>
<path d="M208.625 95.425C208.862 95.4271 209.097 95.3825 209.317 95.2935C209.537 95.2046 209.737 95.0731 209.906 94.9066L215.344 89.4691C215.674 89.1273 215.857 88.6694 215.852 88.1942C215.848 87.719 215.658 87.2644 215.322 86.9283C214.986 86.5923 214.531 86.4017 214.056 86.3975C213.581 86.3934 213.123 86.5761 212.781 86.9063L207.343 92.3437C207.098 92.5992 206.932 92.9207 206.867 93.2689C206.802 93.6171 206.839 93.9768 206.975 94.304C207.111 94.6311 207.34 94.9114 207.633 95.1105C207.926 95.3097 208.271 95.4189 208.625 95.425Z" fill="black"/>
<path d="M232.187 71.8645C232.425 71.8665 232.66 71.8215 232.88 71.7322C233.1 71.6429 233.3 71.511 233.469 71.3441L238.906 65.9066C239.236 65.5648 239.419 65.1069 239.415 64.6317C239.411 64.1565 239.22 63.7019 238.884 63.3658C238.548 63.0298 238.094 62.8392 237.618 62.835C237.143 62.8309 236.685 63.0136 236.343 63.3438L230.906 68.7813C230.66 69.0367 230.494 69.3584 230.429 69.7068C230.363 70.0553 230.401 70.4152 230.537 70.7426C230.673 71.07 230.901 71.3505 231.195 71.5498C231.488 71.7491 231.833 71.8585 232.187 71.8645Z" fill="black"/>
<path d="M220.649 76.6497C221.179 76.1119 221.855 75.7412 222.594 75.5834C223.332 75.4256 224.101 75.4875 224.805 75.7616L258.672 88.6627C259.435 88.9532 260.088 89.4753 260.539 90.1558C260.99 90.8362 261.217 91.6408 261.187 92.4566C261.157 93.2724 260.873 94.0584 260.374 94.7043C259.874 95.3502 259.185 95.8235 258.403 96.0577L244.436 100.248C244.391 100.261 244.351 100.286 244.318 100.319C244.284 100.351 244.26 100.392 244.247 100.437L240.057 114.404C239.829 115.189 239.358 115.882 238.71 116.382C238.063 116.882 237.274 117.163 236.457 117.186C235.642 117.213 234.838 116.986 234.158 116.535C233.478 116.085 232.955 115.434 232.662 114.672L219.76 80.8037C219.486 80.1003 219.424 79.3319 219.582 78.5935C219.74 77.8552 220.111 77.1793 220.649 76.6497Z" fill="black"/>
<g filter="url(#filter0_dddddd_364_13392)">
<path d="M12.0752 12.9437C12.0752 6.34736 17.4226 1 24.0189 1H243.981C250.578 1 255.925 6.34736 255.925 12.9437V42.0563C255.925 48.6526 250.578 54 243.981 54H24.0189C17.4226 54 12.0752 48.6526 12.0752 42.0563V12.9437Z" fill="white"/>
<path d="M12.5728 12.9437C12.5728 6.62221 17.6974 1.49765 24.0189 1.49765H243.981C250.303 1.49765 255.427 6.62221 255.427 12.9437V42.0563C255.427 48.3778 250.303 53.5023 243.981 53.5023H24.0189C17.6974 53.5023 12.5728 48.3778 12.5728 42.0563V12.9437Z" stroke="#E1E4EA" stroke-width="0.995305"/>
<path d="M30.6424 32.5L28.4058 24.8995H29.9348L31.4242 30.4811H31.4984L32.9928 24.8995H34.5218L36.0063 30.4564H36.0805L37.56 24.8995H39.089L36.8574 32.5H35.3482L33.8043 27.0124H33.6905L32.1466 32.5H30.6424ZM42.0573 32.5L39.8206 24.8995H41.3497L42.8391 30.4811H42.9133L44.4077 24.8995H45.9367L47.4212 30.4564H47.4954L48.9749 24.8995H50.5039L48.2723 32.5H46.763L45.2192 27.0124H45.1054L43.5615 32.5H42.0573ZM53.4721 32.5L51.2355 24.8995H52.7645L54.254 30.4811H54.3282L55.8226 24.8995H57.3516L58.8361 30.4564H58.9103L60.3898 24.8995H61.9188L59.6872 32.5H58.1779L56.6341 27.0124H56.5203L54.9764 32.5H53.4721ZM63.1799 32.594C62.9094 32.594 62.6768 32.4984 62.4822 32.307C62.2876 32.1124 62.1902 31.8782 62.1902 31.6044C62.1902 31.3339 62.2876 31.1029 62.4822 30.9116C62.6768 30.717 62.9094 30.6197 63.1799 30.6197C63.4504 30.6197 63.683 30.717 63.8776 30.9116C64.0722 31.1029 64.1695 31.3339 64.1695 31.6044C64.1695 31.7858 64.1234 31.9524 64.031 32.1041C63.9419 32.2526 63.8232 32.3713 63.6747 32.4604C63.5263 32.5495 63.3613 32.594 63.1799 32.594ZM67.2355 24.8995L68.913 27.8585L70.6053 24.8995H72.2233L69.8531 28.6997L72.2431 32.5H70.625L68.913 29.6597L67.2058 32.5H65.5828L67.948 28.6997L65.6125 24.8995H67.2355ZM79.3543 26.7551L78.0133 26.9926C77.9572 26.8211 77.8682 26.6578 77.7461 26.5027C77.6273 26.3477 77.4657 26.2207 77.2612 26.1217C77.0566 26.0227 76.801 25.9733 76.4942 25.9733C76.0752 25.9733 75.7256 26.0673 75.4452 26.2553C75.1648 26.44 75.0246 26.6792 75.0246 26.9728C75.0246 27.2268 75.1186 27.4313 75.3066 27.5864C75.4946 27.7414 75.7981 27.8684 76.2171 27.9674L77.4245 28.2445C78.1238 28.4061 78.645 28.6552 78.9881 28.9917C79.3312 29.3282 79.5027 29.7653 79.5027 30.303C79.5027 30.7582 79.3708 31.164 79.1069 31.5202C78.8463 31.8732 78.4817 32.1503 78.0133 32.3516C77.5482 32.5528 77.0088 32.6534 76.3952 32.6534C75.5441 32.6534 74.8497 32.472 74.312 32.1091C73.7743 31.7429 73.4444 31.2234 73.3224 30.5504L74.7524 30.3327C74.8415 30.7054 75.0246 30.9875 75.3017 31.1788C75.5788 31.3669 75.94 31.4609 76.3853 31.4609C76.8703 31.4609 77.2579 31.3603 77.5482 31.159C77.8385 30.9545 77.9836 30.7054 77.9836 30.4118C77.9836 30.1743 77.8945 29.9747 77.7164 29.8131C77.5416 29.6515 77.2727 29.5294 76.9098 29.4469L75.6233 29.1649C74.9141 29.0032 74.3895 28.7459 74.0498 28.393C73.7133 28.04 73.545 27.593 73.545 27.052C73.545 26.6033 73.6704 26.2108 73.9211 25.8743C74.1718 25.5378 74.5182 25.2756 74.9602 25.0875C75.4023 24.8962 75.9086 24.8005 76.4793 24.8005C77.3008 24.8005 77.9473 24.9787 78.4191 25.3349C78.8908 25.6879 79.2025 26.1613 79.3543 26.7551ZM81.0459 32.5V24.8995H82.5254V32.5H81.0459ZM81.793 23.7268C81.5357 23.7268 81.3147 23.641 81.13 23.4694C80.9485 23.2946 80.8578 23.0868 80.8578 22.846C80.8578 22.6018 80.9485 22.394 81.13 22.2225C81.3147 22.0476 81.5357 21.9602 81.793 21.9602C82.0504 21.9602 82.2697 22.0476 82.4512 22.2225C82.6359 22.394 82.7283 22.6018 82.7283 22.846C82.7283 23.0868 82.6359 23.2946 82.4512 23.4694C82.2697 23.641 82.0504 23.7268 81.793 23.7268ZM87.6189 35.5085C87.0152 35.5085 86.4956 35.4294 86.0602 35.271C85.628 35.1127 85.2751 34.9032 85.0013 34.6426C84.7275 34.382 84.5229 34.0966 84.3877 33.7865L85.6594 33.262C85.7484 33.4072 85.8672 33.5606 86.0157 33.7222C86.1674 33.8872 86.3719 34.0274 86.6292 34.1428C86.8898 34.2583 87.2247 34.316 87.6337 34.316C88.1945 34.316 88.658 34.1791 89.0242 33.9053C89.3904 33.6348 89.5734 33.2027 89.5734 32.6089V31.1145H89.4794C89.3904 31.2761 89.2617 31.4559 89.0935 31.6538C88.9285 31.8518 88.7009 32.0233 88.4106 32.1685C88.1203 32.3136 87.7426 32.3862 87.2775 32.3862C86.6771 32.3862 86.1361 32.246 85.6544 31.9656C85.1761 31.6819 84.7967 31.2646 84.5163 30.7137C84.2392 30.1595 84.1007 29.4783 84.1007 28.6701C84.1007 27.8618 84.2376 27.1691 84.5114 26.5918C84.7885 26.0145 85.1679 25.5724 85.6495 25.2657C86.1311 24.9556 86.6771 24.8005 87.2874 24.8005C87.7591 24.8005 88.1401 24.8797 88.4304 25.038C88.7207 25.1931 88.9467 25.3745 89.1083 25.5823C89.2733 25.7902 89.4003 25.9733 89.4893 26.1316H89.5982V24.8995H91.048V32.6682C91.048 33.3214 90.8963 33.8575 90.5928 34.2764C90.2893 34.6954 89.8786 35.0055 89.3607 35.2067C88.8461 35.4079 88.2655 35.5085 87.6189 35.5085ZM87.604 31.159C88.0296 31.159 88.3892 31.0601 88.6828 30.8621C88.9797 30.6609 89.204 30.3739 89.3557 30.0011C89.5108 29.6251 89.5883 29.1748 89.5883 28.6503C89.5883 28.1389 89.5124 27.6887 89.3607 27.2994C89.2089 26.9101 88.9863 26.6066 88.6927 26.3889C88.3991 26.1679 88.0362 26.0574 87.604 26.0574C87.1587 26.0574 86.7876 26.1728 86.4907 26.4038C86.1938 26.6314 85.9695 26.9415 85.8177 27.334C85.6693 27.7266 85.5951 28.1653 85.5951 28.6503C85.5951 29.1484 85.6709 29.5855 85.8227 29.9615C85.9744 30.3376 86.1987 30.6312 86.4956 30.8423C86.7958 31.0535 87.1653 31.159 87.604 31.159ZM96.1502 32.6534C95.4376 32.6534 94.8158 32.4901 94.2847 32.1635C93.7536 31.8369 93.3412 31.38 93.0476 30.7929C92.754 30.2057 92.6072 29.5195 92.6072 28.7344C92.6072 27.946 92.754 27.2565 93.0476 26.666C93.3412 26.0755 93.7536 25.617 94.2847 25.2904C94.8158 24.9638 95.4376 24.8005 96.1502 24.8005C96.8627 24.8005 97.4846 24.9638 98.0157 25.2904C98.5468 25.617 98.9591 26.0755 99.2527 26.666C99.5463 27.2565 99.6931 27.946 99.6931 28.7344C99.6931 29.5195 99.5463 30.2057 99.2527 30.7929C98.9591 31.38 98.5468 31.8369 98.0157 32.1635C97.4846 32.4901 96.8627 32.6534 96.1502 32.6534ZM96.1551 31.4114C96.617 31.4114 96.9996 31.2893 97.3031 31.0452C97.6066 30.8011 97.8309 30.4762 97.9761 30.0704C98.1245 29.6647 98.1988 29.2177 98.1988 28.7294C98.1988 28.2445 98.1245 27.7992 97.9761 27.3934C97.8309 26.9843 97.6066 26.6561 97.3031 26.4087C96.9996 26.1613 96.617 26.0376 96.1551 26.0376C95.69 26.0376 95.304 26.1613 94.9972 26.4087C94.6938 26.6561 94.4678 26.9843 94.3193 27.3934C94.1742 27.7992 94.1016 28.2445 94.1016 28.7294C94.1016 29.2177 94.1742 29.6647 94.3193 30.0704C94.4678 30.4762 94.6938 30.8011 94.9972 31.0452C95.304 31.2893 95.69 31.4114 96.1551 31.4114ZM101.261 32.5V24.8995H102.691V26.1069H102.77C102.909 25.6978 103.153 25.3762 103.503 25.142C103.856 24.9044 104.255 24.7857 104.7 24.7857C104.792 24.7857 104.901 24.789 105.027 24.7956C105.155 24.8022 105.256 24.8104 105.328 24.8203V26.2355C105.269 26.219 105.164 26.2009 105.012 26.1811C104.86 26.158 104.708 26.1464 104.557 26.1464C104.207 26.1464 103.895 26.2207 103.621 26.3691C103.351 26.5143 103.136 26.7171 102.978 26.9778C102.82 27.2351 102.741 27.5287 102.741 27.8585V32.5H101.261ZM110.522 24.8995V26.0871H106.371V24.8995H110.522ZM107.484 23.0785H108.963V30.2683C108.963 30.5553 109.006 30.7714 109.092 30.9166C109.178 31.0584 109.288 31.1557 109.424 31.2085C109.562 31.258 109.712 31.2827 109.874 31.2827C109.993 31.2827 110.097 31.2745 110.186 31.258C110.275 31.2415 110.344 31.2283 110.394 31.2184L110.661 32.4406C110.575 32.4736 110.453 32.5066 110.295 32.5396C110.136 32.5759 109.938 32.5957 109.701 32.599C109.311 32.6056 108.949 32.5363 108.612 32.3911C108.276 32.246 108.004 32.0217 107.796 31.7182C107.588 31.4147 107.484 31.0337 107.484 30.5751V23.0785ZM114.287 32.6682C113.805 32.6682 113.37 32.5792 112.981 32.401C112.591 32.2196 112.283 31.9573 112.055 31.6143C111.831 31.2712 111.719 30.8506 111.719 30.3525C111.719 29.9236 111.801 29.5706 111.966 29.2935C112.131 29.0164 112.354 28.7971 112.634 28.6354C112.915 28.4738 113.228 28.3517 113.575 28.2692C113.921 28.1868 114.274 28.1241 114.633 28.0812C115.089 28.0284 115.458 27.9855 115.742 27.9526C116.026 27.9163 116.232 27.8585 116.36 27.7794C116.489 27.7002 116.553 27.5715 116.553 27.3934V27.3588C116.553 26.9266 116.431 26.5918 116.187 26.3543C115.946 26.1168 115.587 25.998 115.108 25.998C114.61 25.998 114.218 26.1085 113.931 26.3295C113.647 26.5473 113.451 26.7897 113.342 27.0569L111.951 26.7402C112.116 26.2784 112.357 25.9056 112.674 25.6219C112.994 25.3349 113.362 25.1271 113.777 24.9985C114.193 24.8665 114.63 24.8005 115.089 24.8005C115.392 24.8005 115.714 24.8368 116.054 24.9094C116.397 24.9787 116.717 25.1073 117.014 25.2953C117.314 25.4834 117.56 25.7522 117.751 26.1019C117.942 26.4483 118.038 26.8986 118.038 27.4528V32.5H116.593V31.4609H116.534C116.438 31.6522 116.294 31.8402 116.103 32.025C115.912 32.2097 115.666 32.3631 115.366 32.4852C115.066 32.6072 114.706 32.6682 114.287 32.6682ZM114.609 31.4807C115.018 31.4807 115.367 31.3998 115.658 31.2382C115.951 31.0766 116.174 30.8654 116.326 30.6048C116.481 30.3409 116.558 30.0589 116.558 29.7587V28.7789C116.506 28.8317 116.403 28.8812 116.252 28.9274C116.103 28.9702 115.933 29.0082 115.742 29.0412C115.551 29.0709 115.364 29.0989 115.183 29.1253C115.001 29.1484 114.85 29.1682 114.727 29.1847C114.44 29.221 114.178 29.282 113.941 29.3678C113.706 29.4535 113.518 29.5772 113.377 29.7389C113.238 29.8972 113.169 30.1083 113.169 30.3723C113.169 30.7384 113.304 31.0155 113.575 31.2036C113.845 31.3883 114.19 31.4807 114.609 31.4807ZM120.9 32.594C120.629 32.594 120.397 32.4984 120.202 32.307C120.007 32.1124 119.91 31.8782 119.91 31.6044C119.91 31.3339 120.007 31.1029 120.202 30.9116C120.397 30.717 120.629 30.6197 120.9 30.6197C121.17 30.6197 121.403 30.717 121.597 30.9116C121.792 31.1029 121.889 31.3339 121.889 31.6044C121.889 31.7858 121.843 31.9524 121.751 32.1041C121.662 32.2526 121.543 32.3713 121.395 32.4604C121.246 32.5495 121.081 32.594 120.9 32.594ZM126.989 32.6534C126.253 32.6534 125.62 32.4868 125.089 32.1536C124.561 31.8171 124.155 31.3537 123.872 30.7632C123.588 30.1727 123.446 29.4964 123.446 28.7344C123.446 27.9625 123.591 27.2812 123.882 26.6908C124.172 26.097 124.581 25.6335 125.109 25.3003C125.637 24.9671 126.258 24.8005 126.974 24.8005C127.551 24.8005 128.066 24.9077 128.518 25.1222C128.97 25.3333 129.334 25.6302 129.612 26.0128C129.892 26.3955 130.059 26.8425 130.111 27.3538H128.671C128.592 26.9975 128.411 26.6908 128.127 26.4334C127.847 26.1761 127.471 26.0475 126.999 26.0475C126.587 26.0475 126.225 26.1563 125.915 26.3741C125.608 26.5885 125.369 26.8953 125.198 27.2944C125.026 27.6903 124.94 28.1587 124.94 28.6997C124.94 29.2539 125.025 29.7323 125.193 30.1347C125.361 30.5372 125.599 30.8489 125.905 31.07C126.215 31.291 126.58 31.4015 126.999 31.4015C127.279 31.4015 127.533 31.3504 127.761 31.2481C127.992 31.1425 128.185 30.9924 128.34 30.7978C128.498 30.6032 128.609 30.369 128.671 30.0952H130.111C130.059 30.5867 129.899 31.0254 129.631 31.4114C129.364 31.7973 129.006 32.1008 128.558 32.3219C128.112 32.5429 127.589 32.6534 126.989 32.6534ZM134.811 32.6534C134.099 32.6534 133.477 32.4901 132.946 32.1635C132.415 31.8369 132.003 31.38 131.709 30.7929C131.415 30.2057 131.269 29.5195 131.269 28.7344C131.269 27.946 131.415 27.2565 131.709 26.666C132.003 26.0755 132.415 25.617 132.946 25.2904C133.477 24.9638 134.099 24.8005 134.811 24.8005C135.524 24.8005 136.146 24.9638 136.677 25.2904C137.208 25.617 137.62 26.0755 137.914 26.666C138.208 27.2565 138.354 27.946 138.354 28.7344C138.354 29.5195 138.208 30.2057 137.914 30.7929C137.62 31.38 137.208 31.8369 136.677 32.1635C136.146 32.4901 135.524 32.6534 134.811 32.6534ZM134.816 31.4114C135.278 31.4114 135.661 31.2893 135.964 31.0452C136.268 30.8011 136.492 30.4762 136.637 30.0704C136.786 29.6647 136.86 29.2177 136.86 28.7294C136.86 28.2445 136.786 27.7992 136.637 27.3934C136.492 26.9843 136.268 26.6561 135.964 26.4087C135.661 26.1613 135.278 26.0376 134.816 26.0376C134.351 26.0376 133.965 26.1613 133.659 26.4087C133.355 26.6561 133.129 26.9843 132.981 27.3934C132.835 27.7992 132.763 28.2445 132.763 28.7294C132.763 29.2177 132.835 29.6647 132.981 30.0704C133.129 30.4762 133.355 30.8011 133.659 31.0452C133.965 31.2893 134.351 31.4114 134.816 31.4114ZM139.922 32.5V24.8995H141.342V26.1365H141.436C141.595 25.7176 141.854 25.391 142.213 25.1568C142.573 24.9193 143.003 24.8005 143.505 24.8005C144.013 24.8005 144.438 24.9193 144.781 25.1568C145.128 25.3943 145.384 25.7209 145.548 26.1365H145.628C145.809 25.7308 146.098 25.4075 146.494 25.1667C146.889 24.9226 147.361 24.8005 147.909 24.8005C148.598 24.8005 149.161 25.0166 149.596 25.4487C150.035 25.8809 150.254 26.5324 150.254 27.4033V32.5H148.775V27.5419C148.775 27.0272 148.635 26.6545 148.354 26.4235C148.074 26.1926 147.739 26.0772 147.35 26.0772C146.868 26.0772 146.494 26.2256 146.226 26.5225C145.959 26.8161 145.826 27.1938 145.826 27.6557V32.5H144.351V27.4478C144.351 27.0355 144.222 26.7039 143.965 26.4532C143.708 26.2025 143.373 26.0772 142.961 26.0772C142.68 26.0772 142.421 26.1514 142.184 26.2998C141.949 26.445 141.76 26.6479 141.615 26.9085C141.473 27.1691 141.402 27.4709 141.402 27.814V32.5H139.922Z" fill="#0E121B"/>
<g clip-path="url(#clip0_364_13392)">
<path d="M234.099 36.1893L229.066 30.9539C230.36 29.4153 231.069 27.4795 231.069 25.4642C231.069 20.7557 227.238 16.9248 222.53 16.9248C217.821 16.9248 213.99 20.7557 213.99 25.4642C213.99 30.1728 217.821 34.0036 222.53 34.0036C224.297 34.0036 225.982 33.4704 227.422 32.4583L232.494 37.7335C232.706 37.9536 232.991 38.075 233.297 38.075C233.586 38.075 233.86 37.9648 234.069 37.7643C234.511 37.3384 234.525 36.6323 234.099 36.1893ZM222.53 19.1525C226.01 19.1525 228.841 21.9838 228.841 25.4642C228.841 28.9446 226.01 31.7759 222.53 31.7759C219.049 31.7759 216.218 28.9446 216.218 25.4642C216.218 21.9838 219.049 19.1525 222.53 19.1525Z" fill="black"/>
</g>
</g>
<defs>
<filter id="filter0_dddddd_364_13392" x="0.131532" y="0.00469476" width="267.737" height="89.8263" filterUnits="userSpaceOnUse" color-interpolation-filters="sRGB">
<feFlood flood-opacity="0" result="BackgroundImageFix"/>
<feColorMatrix in="SourceAlpha" type="matrix" values="0 0 0 0 0 0 0 0 0 0 0 0 0 0 0 0 0 0 127 0" result="hardAlpha"/>
<feMorphology radius="11.9437" operator="erode" in="SourceAlpha" result="effect1_dropShadow_364_13392"/>
<feOffset dy="23.8873"/>
<feGaussianBlur stdDeviation="11.9437"/>
<feComposite in2="hardAlpha" operator="out"/>
<feColorMatrix type="matrix" values="0 0 0 0 0.054902 0 0 0 0 0.247059 0 0 0 0 0.494118 0 0 0 0.04 0"/>
<feBlend mode="normal" in2="BackgroundImageFix" result="effect1_dropShadow_364_13392"/>
<feColorMatrix in="SourceAlpha" type="matrix" values="0 0 0 0 0 0 0 0 0 0 0 0 0 0 0 0 0 0 127 0" result="hardAlpha"/>
<feMorphology radius="5.97183" operator="erode" in="SourceAlpha" result="effect2_dropShadow_364_13392"/>
<feOffset dy="11.9437"/>
<feGaussianBlur stdDeviation="5.97183"/>
<feComposite in2="hardAlpha" operator="out"/>
<feColorMatrix type="matrix" values="0 0 0 0 0.054902 0 0 0 0 0.247059 0 0 0 0 0.494118 0 0 0 0.04 0"/>
<feBlend mode="normal" in2="effect1_dropShadow_364_13392" result="effect2_dropShadow_364_13392"/>
<feColorMatrix in="SourceAlpha" type="matrix" values="0 0 0 0 0 0 0 0 0 0 0 0 0 0 0 0 0 0 127 0" result="hardAlpha"/>
<feMorphology radius="2.98592" operator="erode" in="SourceAlpha" result="effect3_dropShadow_364_13392"/>
<feOffset dy="5.97183"/>
<feGaussianBlur stdDeviation="2.98592"/>
<feComposite in2="hardAlpha" operator="out"/>
<feColorMatrix type="matrix" values="0 0 0 0 0.164706 0 0 0 0 0.2 0 0 0 0 0.27451 0 0 0 0.04 0"/>
<feBlend mode="normal" in2="effect2_dropShadow_364_13392" result="effect3_dropShadow_364_13392"/>
<feColorMatrix in="SourceAlpha" type="matrix" values="0 0 0 0 0 0 0 0 0 0 0 0 0 0 0 0 0 0 127 0" result="hardAlpha"/>
<feMorphology radius="1.49296" operator="erode" in="SourceAlpha" result="effect4_dropShadow_364_13392"/>
<feOffset dy="2.98592"/>
<feGaussianBlur stdDeviation="1.49296"/>
<feComposite in2="hardAlpha" operator="out"/>
<feColorMatrix type="matrix" values="0 0 0 0 0.164706 0 0 0 0 0.2 0 0 0 0 0.27451 0 0 0 0.04 0"/>
<feBlend mode="normal" in2="effect3_dropShadow_364_13392" result="effect4_dropShadow_364_13392"/>
<feColorMatrix in="SourceAlpha" type="matrix" values="0 0 0 0 0 0 0 0 0 0 0 0 0 0 0 0 0 0 127 0" result="hardAlpha"/>
<feMorphology radius="0.497653" operator="erode" in="SourceAlpha" result="effect5_dropShadow_364_13392"/>
<feOffset dy="0.995305"/>
<feGaussianBlur stdDeviation="0.497653"/>
<feComposite in2="hardAlpha" operator="out"/>
<feColorMatrix type="matrix" values="0 0 0 0 0.164706 0 0 0 0 0.2 0 0 0 0 0.270588 0 0 0 0.04 0"/>
<feBlend mode="normal" in2="effect4_dropShadow_364_13392" result="effect5_dropShadow_364_13392"/>
<feColorMatrix in="SourceAlpha" type="matrix" values="0 0 0 0 0 0 0 0 0 0 0 0 0 0 0 0 0 0 127 0" result="hardAlpha"/>
<feMorphology radius="0.995305" operator="dilate" in="SourceAlpha" result="effect6_dropShadow_364_13392"/>
<feOffset/>
<feComposite in2="hardAlpha" operator="out"/>
<feColorMatrix type="matrix" values="0 0 0 0 0.054902 0 0 0 0 0.247059 0 0 0 0 0.494118 0 0 0 0.04 0"/>
<feBlend mode="normal" in2="effect5_dropShadow_364_13392" result="effect6_dropShadow_364_13392"/>
<feBlend mode="normal" in="SourceGraphic" in2="effect6_dropShadow_364_13392" result="shape"/>
</filter>
<clipPath id="clip0_364_13392">
<rect width="21.1502" height="21.1502" fill="white" transform="translate(213.624 16.9248)"/>
</clipPath>
</defs>
</svg>
