<svg width="20" height="20" viewBox="0 0 20 20" fill="none" xmlns="http://www.w3.org/2000/svg">
<path d="M9.91319 3.99362C10.5309 3.58178 11.3335 3.57324 11.9599 3.97184L14.5569 5.62448H15.6249C15.9701 5.62448 16.2499 5.9043 16.2499 6.24948V11.8744C16.2499 12.2196 15.9701 12.4994 15.6249 12.4994H14.6751C14.7122 13.0915 14.4333 13.6934 13.8722 14.0301L10.6888 15.9401C10.2869 16.1812 9.78806 16.1756 9.39462 15.9354C8.95694 16.3225 8.28319 16.3651 7.7944 15.981L4.58142 13.4565C4.10242 13.0802 3.98129 12.4372 4.22862 11.9274C3.92655 11.6906 3.75 11.3279 3.75 10.9438V6.24951C3.75 5.90434 4.02982 5.62451 4.375 5.62451H7.46683L9.91319 3.99362ZM5.1079 11.0278L5.54042 10.6493C6.3093 9.97651 7.47526 10.0431 8.16251 10.7991L9.85137 12.6569C10.3948 13.2547 10.4939 14.133 10.0987 14.8364L13.2291 12.9582C13.4049 12.8527 13.4686 12.6418 13.403 12.4641L10.6361 8.59046C10.4806 8.37286 10.204 8.27825 9.94787 8.35509L8.39459 8.82107C7.73391 9.01926 7.01774 8.8387 6.52999 8.35098L6.34701 8.168C5.99201 7.81299 5.9002 7.30775 6.04959 6.87451H5V10.9438L5.1079 11.0278ZM11.2888 5.02643C11.08 4.89356 10.8125 4.8964 10.6066 5.03368L7.23089 7.28412L7.41387 7.4671C7.57646 7.62968 7.81518 7.68986 8.03541 7.62379L9.58869 7.15781C10.3571 6.92729 11.187 7.21113 11.6532 7.86391L14.0715 11.2494H14.9999V6.87448H14.5569C14.3191 6.87448 14.0863 6.80669 13.8857 6.67906L11.2888 5.02643ZM6.36355 11.59L5.35371 12.4736L8.56668 14.9981L9.00662 14.2282C9.141 13.9931 9.10862 13.6981 8.92644 13.4977L7.23758 11.6399C7.0085 11.3879 6.61984 11.3658 6.36355 11.59Z" fill="#FB4BA3"/>
</svg>
