<svg width="37" height="36" viewBox="0 0 37 36" fill="none" xmlns="http://www.w3.org/2000/svg">
<path fill-rule="evenodd" clip-rule="evenodd" d="M27.9437 2.37079L25.8746 10.2929C25.6045 11.327 26.2022 12.1637 27.2109 12.1637H34.9385C35.9472 12.1637 36.5449 13.0004 36.2748 14.0345L33.7143 23.8304H24.159C23.1503 23.8304 22.5525 22.9937 22.8227 21.9596L24.8918 14.0374C25.1619 13.0034 24.5642 12.1667 23.5555 12.1667H15.8279C14.8192 12.1667 14.2214 11.33 14.4916 10.2959L17.0521 0.5H26.6074C27.6161 0.5 28.2139 1.3367 27.9437 2.37079ZM19.9428 20.4835L21.943 23.2852H21.9458C22.1987 23.6358 22.2648 24.1102 22.1355 24.6081L19.2876 35.4999H9.73228C8.72359 35.4999 8.12584 34.6632 8.39598 33.6291L10.6174 25.1266C10.7109 24.7698 10.6547 24.4463 10.4877 24.212L18.5232 20.2537C19.0807 19.9885 19.6554 20.0828 19.9428 20.4835ZM10.487 24.2111C10.4873 24.2114 10.4875 24.2117 10.4877 24.212L10.4852 24.2133L10.487 24.2111ZM10.487 24.2111C10.3202 23.9777 10.0434 23.8332 9.69493 23.8332H1.40121C0.39251 23.8332 -0.205236 22.9965 0.0648991 21.9624L2.62256 12.1695H13.2469C13.7297 12.1695 14.1435 12.3669 14.3936 12.7175L16.4742 15.6312C16.7644 16.0407 16.6868 16.6682 16.2845 17.172L10.487 24.2111Z" fill="#0E121B"/>
</svg>
