<svg width="37" height="35" viewBox="0 0 37 35" fill="none" xmlns="http://www.w3.org/2000/svg">
<path fill-rule="evenodd" clip-rule="evenodd" d="M27.9437 1.87079L25.8746 9.7929C25.6045 10.827 26.2022 11.6637 27.2109 11.6637H34.9385C35.9472 11.6637 36.5449 12.5004 36.2748 13.5345L33.7143 23.3304H24.159C23.1503 23.3304 22.5525 22.4937 22.8227 21.4596L24.8918 13.5374C25.1619 12.5034 24.5642 11.6667 23.5555 11.6667H15.8279C14.8192 11.6667 14.2214 10.83 14.4916 9.7959L17.0521 0H26.6074C27.6161 0 28.2139 0.8367 27.9437 1.87079ZM19.9428 19.9835L21.943 22.7852H21.9458C22.1987 23.1358 22.2648 23.6102 22.1355 24.1081L19.2876 34.9999H9.73228C8.72359 34.9999 8.12584 34.1632 8.39598 33.1291L10.6174 24.6266C10.7109 24.2698 10.6547 23.9463 10.4877 23.712L18.5232 19.7537C19.0807 19.4885 19.6554 19.5828 19.9428 19.9835ZM10.487 23.7111C10.4873 23.7114 10.4875 23.7117 10.4877 23.712L10.4852 23.7133L10.487 23.7111ZM10.487 23.7111C10.3202 23.4777 10.0434 23.3332 9.69493 23.3332H1.40121C0.39251 23.3332 -0.205236 22.4965 0.0648991 21.4624L2.62256 11.6695H13.2469C13.7297 11.6695 14.1435 11.8669 14.3936 12.2175L16.4742 15.1312C16.7644 15.5407 16.6868 16.1682 16.2845 16.672L10.487 23.7111Z" fill="#0E121B"/>
</svg>
