<svg width="146" height="36" viewBox="0 0 146 36" fill="none" xmlns="http://www.w3.org/2000/svg">
<path fill-rule="evenodd" clip-rule="evenodd" d="M27.9437 2.37079L25.8746 10.2929C25.6045 11.327 26.2022 12.1637 27.2109 12.1637H34.9385C35.9472 12.1637 36.5449 13.0004 36.2748 14.0345L33.7143 23.8304H24.159C23.1503 23.8304 22.5525 22.9937 22.8227 21.9596L24.8918 14.0374C25.1619 13.0034 24.5642 12.1667 23.5555 12.1667H15.8279C14.8192 12.1667 14.2214 11.33 14.4916 10.2959L17.0521 0.5H26.6074C27.6161 0.5 28.2139 1.3367 27.9437 2.37079ZM19.9428 20.4835L21.943 23.2852H21.9458C22.1987 23.6358 22.2648 24.1102 22.1355 24.6081L19.2876 35.4999H9.73228C8.72359 35.4999 8.12584 34.6632 8.39598 33.6291L10.6174 25.1266C10.7109 24.7698 10.6547 24.4463 10.4877 24.212L18.5232 20.2537C19.0807 19.9885 19.6554 20.0828 19.9428 20.4835ZM10.487 24.2111C10.4873 24.2114 10.4875 24.2117 10.4877 24.212L10.4852 24.2133L10.487 24.2111ZM10.487 24.2111C10.3202 23.9777 10.0434 23.8332 9.69493 23.8332H1.40121C0.39251 23.8332 -0.205236 22.9965 0.0648991 21.9624L2.62256 12.1695H13.2469C13.7297 12.1695 14.1435 12.3669 14.3936 12.7175L16.4742 15.6312C16.7644 16.0407 16.6868 16.6682 16.2845 17.172L10.487 24.2111Z" fill="#0E121B"/>
<path d="M44.9307 4.69971H48.5237V24.9736H44.9307V4.69971Z" fill="#0E121B"/>
<path d="M51.6378 11.0516H55.0895V12.9369C55.7307 12.1441 56.4946 11.564 57.3811 11.1966C58.2676 10.8099 59.2012 10.6166 60.182 10.6166C62.0116 10.6166 63.379 11.129 64.2843 12.1538C65.1897 13.1593 65.6424 14.5031 65.6424 16.1854V24.9736H62.0776V16.5334C62.0776 14.5031 61.1534 13.488 59.305 13.488C58.4939 13.488 57.73 13.691 57.0133 14.0971C56.2966 14.4838 55.693 15.0735 55.2026 15.8663V24.9736H51.6378V11.0516Z" fill="#0E121B"/>
<path d="M73.9135 25.4087C72.9328 25.4087 71.886 25.2927 70.7731 25.0606C69.6603 24.8286 68.7927 24.5096 68.1703 24.1035V21.0001C68.9059 21.4641 69.7829 21.8412 70.8014 22.1312C71.8199 22.4019 72.7819 22.5373 73.6872 22.5373C74.5926 22.5373 75.2527 22.4599 75.6676 22.3053C76.0826 22.1312 76.2901 21.8219 76.2901 21.3771C76.2901 21.0291 76.1769 20.7487 75.9506 20.536C75.7431 20.304 75.3942 20.1009 74.9038 19.9269C74.4322 19.7335 73.6966 19.5015 72.697 19.2308C71.5653 18.9021 70.6694 18.5637 70.0093 18.2157C69.368 17.8676 68.8776 17.4325 68.5381 16.9105C68.2174 16.3691 68.0571 15.673 68.0571 14.8222C68.0571 13.43 68.5947 12.3858 69.6698 11.6897C70.7449 10.9743 72.1972 10.6166 74.0267 10.6166C74.9698 10.6166 75.9034 10.7132 76.8276 10.9066C77.7707 11.0806 78.5063 11.332 79.0344 11.6607V14.6481C78.4686 14.3001 77.7801 14.0197 76.9691 13.807C76.158 13.5943 75.3281 13.488 74.4794 13.488C73.5552 13.488 72.8573 13.5847 72.3858 13.778C71.9143 13.952 71.6785 14.3001 71.6785 14.8222C71.6785 15.1702 71.8011 15.4506 72.0463 15.6633C72.3103 15.8567 72.6498 16.0307 73.0648 16.1854C73.4797 16.3207 74.2342 16.5334 75.3281 16.8235C76.4975 17.1522 77.4123 17.5099 78.0725 17.8966C78.7326 18.2833 79.2041 18.7474 79.4871 19.2888C79.77 19.8302 79.9114 20.507 79.9114 21.3191C79.9114 22.5566 79.3928 23.5524 78.3554 24.3065C77.3369 25.0413 75.8563 25.4087 73.9135 25.4087Z" fill="#0E121B"/>
<path d="M87.7773 25.4087C85.9477 25.4087 84.5803 24.906 83.6749 23.9005C82.7696 22.8757 82.3169 21.5221 82.3169 19.8399V11.0516H85.8817V19.4918C85.8817 21.5221 86.8059 22.5373 88.6543 22.5373C89.4654 22.5373 90.2292 22.3439 90.946 21.9572C91.6627 21.5511 92.2663 20.9517 92.7567 20.1589V11.0516H96.3214V24.9736H92.8698V23.0884C92.2285 23.8811 91.4647 24.4709 90.5782 24.8576C89.6917 25.225 88.7581 25.4087 87.7773 25.4087Z" fill="#0E121B"/>
<path d="M99.4435 11.0516H102.895V13.2849C103.442 12.5308 104.215 11.9701 105.215 11.6027C106.234 11.2353 107.394 11.0516 108.695 11.0516V13.836C107.318 13.836 106.12 14.0584 105.102 14.5031C104.102 14.9285 103.404 15.6053 103.008 16.5334V24.9736H99.4435V11.0516Z" fill="#0E121B"/>
<path d="M119 25.4087C116.208 25.4087 114.096 24.6643 112.662 23.1754C111.248 21.6672 110.54 19.6369 110.54 17.0845V4.69971H114.133V17.1425C114.133 18.7474 114.567 19.9752 115.435 20.826C116.321 21.6575 117.51 22.0732 119 22.0732C120.471 22.0732 121.64 21.6575 122.508 20.826C123.394 19.9752 123.838 18.7474 123.838 17.1425V4.69971H127.431V17.0845C127.431 19.6369 126.723 21.6672 125.309 23.1754C123.894 24.6643 121.791 25.4087 119 25.4087Z" fill="#0E121B"/>
<path d="M129.848 11.0516H133.3V12.7339C134.035 12.0184 134.837 11.4867 135.705 11.1386C136.572 10.7906 137.562 10.6166 138.675 10.6166C140.052 10.6166 141.278 10.9259 142.353 11.5447C143.447 12.1441 144.296 13.0046 144.9 14.1261C145.522 15.2282 145.833 16.5141 145.833 17.9836C145.833 19.4338 145.522 20.7197 144.9 21.8412C144.296 22.9627 143.447 23.8425 142.353 24.4806C141.278 25.0993 140.052 25.4087 138.675 25.4087C137.638 25.4087 136.657 25.2637 135.733 24.9736C134.828 24.6643 134.054 24.2099 133.413 23.6104V31.3256H129.848V11.0516ZM137.798 22.5373C139.081 22.5373 140.137 22.1119 140.967 21.2611C141.797 20.4103 142.212 19.3178 142.212 17.9836C142.212 16.6494 141.797 15.5666 140.967 14.7352C140.137 13.9037 139.081 13.488 137.798 13.488C136.78 13.488 135.874 13.7684 135.082 14.3291C134.29 14.8898 133.734 15.644 133.413 16.5914V19.4048C133.715 20.3523 134.262 21.1161 135.054 21.6962C135.865 22.2569 136.78 22.5373 137.798 22.5373Z" fill="#0E121B"/>
</svg>
