<svg width="527" height="124" viewBox="0 0 527 124" fill="none" xmlns="http://www.w3.org/2000/svg">
<path fill-rule="evenodd" clip-rule="evenodd" d="M100.883 7.10089L93.4132 34.9995C92.4379 38.6412 94.5959 41.5877 98.2376 41.5877H126.136C129.778 41.5877 131.936 44.5343 130.961 48.1759L121.716 82.6731H87.2192C83.5776 82.6731 81.4196 79.7266 82.3948 76.085L89.8649 48.1863C90.8402 44.5446 88.6821 41.5981 85.0405 41.5981H57.1418C53.5002 41.5981 51.3421 38.6516 52.3174 35.0099L61.5616 0.512695H96.0588C99.7005 0.512695 101.859 3.45923 100.883 7.10089ZM71.9989 70.8872L79.22 80.7539H79.2303C80.1433 81.9885 80.382 83.6589 79.9151 85.4123L69.6334 123.769H35.1361C31.4945 123.769 29.3365 120.823 30.3117 117.181L38.3317 87.2383C38.6691 85.982 38.4663 84.8427 37.8635 84.0177L66.8736 70.0779C68.8864 69.1442 70.9614 69.4762 71.9989 70.8872ZM37.861 84.0143C37.8618 84.0154 37.8627 84.0165 37.8635 84.0177L37.8544 84.0221L37.861 84.0143ZM37.861 84.0143C37.2588 83.1925 36.2592 82.6837 35.0013 82.6837H5.05873C1.41706 82.6837 -0.740956 79.7371 0.234303 76.0955L9.46815 41.6086H47.8249C49.5679 41.6086 51.0619 42.3038 51.9646 43.5384L59.4761 53.7994C60.524 55.2415 60.2439 57.4514 58.7914 59.2256L37.861 84.0143Z" fill="white"/>
<path d="M162.212 15.3041H175.184V86.701H162.212V15.3041Z" fill="white"/>
<path d="M186.427 37.6731H198.888V44.3123C201.204 41.5204 203.961 39.4776 207.162 38.1838C210.362 36.8219 213.733 36.1409 217.274 36.1409C223.879 36.1409 228.816 37.9454 232.084 41.5544C235.353 45.0953 236.987 49.8279 236.987 55.7521V86.701H224.117V56.9778C224.117 49.8279 220.781 46.2529 214.108 46.2529C211.179 46.2529 208.422 46.9679 205.834 48.3979C203.246 49.7598 201.067 51.8367 199.297 54.6285V86.701H186.427V37.6731Z" fill="white"/>
<path d="M266.848 88.2331C263.308 88.2331 259.528 87.8245 255.511 87.0074C251.493 86.1903 248.361 85.0667 246.114 83.6367V72.7076C248.769 74.3419 251.936 75.6697 255.613 76.6911C259.29 77.6444 262.763 78.1211 266.031 78.1211C269.3 78.1211 271.683 77.8487 273.181 77.304C274.679 76.6911 275.428 75.6016 275.428 74.0354C275.428 72.8097 275.02 71.8224 274.203 71.0733C273.454 70.2562 272.194 69.5412 270.423 68.9284C268.721 68.2474 266.065 67.4303 262.456 66.477C258.371 65.3194 255.136 64.1277 252.753 62.902C250.438 61.6763 248.667 60.1442 247.442 58.3056C246.284 56.399 245.705 53.9476 245.705 50.9515C245.705 46.0487 247.646 42.3716 251.527 39.9202C255.409 37.4007 260.652 36.1409 267.257 36.1409C270.662 36.1409 274.032 36.4814 277.369 37.1624C280.774 37.7752 283.429 38.6604 285.336 39.818V50.3386C283.293 49.1129 280.808 48.1255 277.88 47.3765C274.952 46.6275 271.955 46.2529 268.891 46.2529C265.555 46.2529 263.035 46.5934 261.333 47.2744C259.63 47.8872 258.779 49.1129 258.779 50.9515C258.779 52.1772 259.222 53.1645 260.107 53.9136C261.06 54.5945 262.286 55.2074 263.784 55.7521C265.282 56.2288 268.006 56.9778 271.955 57.9992C276.177 59.1568 279.48 60.4166 281.863 61.7785C284.247 63.1403 285.949 64.7746 286.97 66.6812C287.992 68.5879 288.502 70.9712 288.502 73.8311C288.502 78.1892 286.63 81.696 282.885 84.3517C279.208 86.9393 273.862 88.2331 266.848 88.2331Z" fill="white"/>
<path d="M316.9 88.2331C310.295 88.2331 305.358 86.4626 302.09 82.9217C298.821 79.3127 297.187 74.5461 297.187 68.6219V37.6731H310.057V67.3962C310.057 74.5461 313.393 78.1211 320.067 78.1211C322.995 78.1211 325.752 77.4401 328.34 76.0783C330.928 74.6483 333.107 72.5374 334.877 69.7455V37.6731H347.747V86.701H335.286V80.0618C332.97 82.8536 330.213 84.9305 327.012 86.2924C323.812 87.5862 320.441 88.2331 316.9 88.2331Z" fill="white"/>
<path d="M359.018 37.6731H371.48V45.538C373.454 42.8823 376.246 40.9075 379.855 39.6138C383.532 38.32 387.72 37.6731 392.419 37.6731V47.4786C387.448 47.4786 383.124 48.2617 379.447 49.8279C375.838 51.326 373.318 53.7093 371.888 56.9778V86.701H359.018V37.6731Z" fill="white"/>
<path d="M429.621 88.2331C419.543 88.2331 411.917 85.6115 406.742 80.3682C401.634 75.0568 399.081 67.9069 399.081 58.9185V15.3041H412.053V59.1228C412.053 64.7746 413.619 69.0986 416.751 72.0947C419.952 75.0228 424.242 76.4868 429.621 76.4868C434.933 76.4868 439.154 75.0228 442.287 72.0947C445.487 69.0986 447.087 64.7746 447.087 59.1228V15.3041H460.059V58.9185C460.059 67.9069 457.506 75.0568 452.399 80.3682C447.292 85.6115 439.699 88.2331 429.621 88.2331Z" fill="white"/>
<path d="M468.787 37.6731H481.249V43.5973C483.904 41.0778 486.798 39.2052 489.931 37.9795C493.063 36.7538 496.638 36.1409 500.656 36.1409C505.626 36.1409 510.053 37.2304 513.934 39.4095C517.883 41.5204 520.948 44.5506 523.127 48.5001C525.374 52.3814 526.497 56.9097 526.497 62.0849C526.497 67.192 525.374 71.7202 523.127 75.6697C520.948 79.6192 517.883 82.7175 513.934 84.9646C510.053 87.1436 505.626 88.2331 500.656 88.2331C496.91 88.2331 493.369 87.7224 490.033 86.701C486.764 85.6115 483.972 84.0112 481.657 81.9003V109.07H468.787V37.6731ZM497.489 78.1211C502.12 78.1211 505.933 76.623 508.929 73.6269C511.925 70.6307 513.423 66.7834 513.423 62.0849C513.423 57.3864 511.925 53.5731 508.929 50.645C505.933 47.717 502.12 46.2529 497.489 46.2529C493.812 46.2529 490.544 47.2403 487.684 49.215C484.824 51.1898 482.815 53.8455 481.657 57.1821V67.0898C482.747 70.4264 484.721 73.1162 487.581 75.159C490.51 77.1337 493.812 78.1211 497.489 78.1211Z" fill="white"/>
</svg>
